SplineFontDB: 3.2
FontName: Silwki
FullName: Silwki
FamilyName: Silwki
Weight: Regular
Copyright: Copyright (c) 2025, W.F.Turnip
UComments: "2025-3-28: Created with FontForge (http://fontforge.org)"
Version: 001.000
ItalicAngle: 0
UnderlinePosition: -85
UnderlineWidth: 42
Ascent: 625
Descent: 225
InvalidEm: 0
LayerCount: 2
Layer: 0 1 "+gMyXYgAA" 1
Layer: 1 1 "+Uk2XYgAA" 0
XUID: [1021 352 -730677569 2550072]
OS2Version: 0
OS2_WeightWidthSlopeOnly: 0
OS2_UseTypoMetrics: 1
CreationTime: 1743105955
ModificationTime: 1761103500
OS2TypoAscent: 0
OS2TypoAOffset: 1
OS2TypoDescent: 0
OS2TypoDOffset: 1
OS2TypoLinegap: 0
OS2WinAscent: 0
OS2WinAOffset: 1
OS2WinDescent: 0
OS2WinDOffset: 1
HheadAscent: 0
HheadAOffset: 1
HheadDescent: 0
HheadDOffset: 1
OS2Vendor: 'PfEd'
MarkAttachClasses: 1
DEI: 91125
Encoding: UnicodeBmp
UnicodeInterp: none
NameList: AGL For New Fonts
DisplaySize: -48
AntiAlias: 0
FitToEm: 0
WinInfo: 0 14 10
BeginPrivate: 0
EndPrivate
BeginChars: 65536 95

StartChar: nine
Encoding: 57 57 0
Width: 500
Flags: W
LayerCount: 2
Fore
SplineSet
250 425 m 0,0,1
 342.076002609 424.907054555 342.076002609 424.907054555 407.682576554 360.183512075 c 128,-1,2
 473.289150498 295.459969596 473.289150498 295.459969596 474.744140625 203.5625 c 0,3,4
 475 201.78775289 475 201.78775289 475 200 c 0,5,6
 475 190 475 190 467.5 182.5 c 128,-1,7
 460 175 460 175 450 175 c 128,-1,8
 440 175 440 175 432.5 182.5 c 128,-1,9
 425 190 425 190 425 200 c 0,10,11
 425 272 425 272 373.5 323.5 c 128,-1,12
 322 375 322 375 250 375 c 128,-1,13
 178 375 178 375 126.5 323.5 c 128,-1,14
 75 272 75 272 75 200 c 128,-1,15
 75 128 75 128 126.5 76.5 c 128,-1,16
 178 25 178 25 250 25 c 0,17,18
 260 25 260 25 267.5 17.5 c 128,-1,19
 275 10 275 10 275 0 c 128,-1,20
 275 -10 275 -10 267.5 -17.5 c 128,-1,21
 260 -25 260 -25 250 -25 c 0,22,-1
 250.000976562 -25 l 0,23,24
 249.384277344 -25 249.384277344 -25 248.7734375 -24.970703125 c 2,25,-1
 248.755859375 -24.96875 l 1,26,27
 156.037561462 -24.4559072949 156.037561462 -24.4559072949 90.5246384244 41.3809450415 c 128,-1,28
 25.0117153868 107.217797378 25.0117153868 107.217797378 25 200 c 0,29,30
 25 293 25 293 91 359 c 128,-1,31
 157 425 157 425 250 425 c 0,0,1
250 325 m 128,-1,33
 302 325 302 325 338.5 288.5 c 128,-1,34
 375 252 375 252 375 200 c 128,-1,35
 375 148 375 148 338.5 111.5 c 128,-1,36
 302 75 302 75 250 75 c 128,-1,37
 198 75 198 75 161.5 111.5 c 128,-1,38
 125 148 125 148 125 200 c 128,-1,39
 125 252 125 252 161.5 288.5 c 128,-1,32
 198 325 198 325 250 325 c 128,-1,33
250 275 m 128,-1,41
 219 275 219 275 197 253 c 128,-1,42
 175 231 175 231 175 200 c 128,-1,43
 175 169 175 169 197 147 c 128,-1,44
 219 125 219 125 250 125 c 128,-1,45
 281 125 281 125 303 147 c 128,-1,46
 325 169 325 169 325 200 c 128,-1,47
 325 231 325 231 303 253 c 128,-1,40
 281 275 281 275 250 275 c 128,-1,41
EndSplineSet
EndChar

StartChar: eight
Encoding: 56 56 1
Width: 500
Flags: W
LayerCount: 2
Fore
SplineSet
233.94921875 424.427734375 m 0,0,1
 242.404418635 425.032226562 242.404418635 425.032226562 250.03125 425.032226562 c 0,2,3
 343.166992188 425.032226562 343.166992188 425.032226562 409.099609375 359.099609375 c 128,-1,4
 474.852539062 293.212351353 474.852539062 293.212351353 474.852539062 200.111328125 c 0,5,6
 474.852539062 109.056903282 474.852539062 109.056903282 411.4375 43.6015625 c 0,7,8
 410.363704819 42.1644860693 410.363704819 42.1644860693 409.099609375 40.900390625 c 0,9,10
 401.7734375 33.57421875 401.7734375 33.57421875 391.41796875 33.57421875 c 128,-1,11
 381.0703125 33.57421875 381.0703125 33.57421875 373.744140625 40.900390625 c 128,-1,12
 366.41796875 48.2265625 366.41796875 48.2265625 366.41796875 58.58203125 c 128,-1,13
 366.41796875 68.9296875 366.41796875 68.9296875 373.744140625 76.255859375 c 0,14,15
 425.025390625 127.537109375 425.025390625 127.537109375 425.025390625 200.024414062 c 128,-1,16
 425.025390625 272.462890625 425.025390625 272.462890625 373.744140625 323.744140625 c 128,-1,17
 322.462890625 375.025390625 322.462890625 375.025390625 249.975585938 375.025390625 c 128,-1,18
 177.537109375 375.025390625 177.537109375 375.025390625 126.255859375 323.744140625 c 128,-1,19
 74.974609375 272.462890625 74.974609375 272.462890625 74.974609375 199.975585938 c 128,-1,20
 74.974609375 127.537109375 74.974609375 127.537109375 126.255859375 76.255859375 c 0,21,22
 133.58203125 68.9296875 133.58203125 68.9296875 133.58203125 58.57421875 c 128,-1,23
 133.58203125 48.2265625 133.58203125 48.2265625 126.255859375 40.900390625 c 128,-1,24
 118.9296875 33.57421875 118.9296875 33.57421875 108.57421875 33.57421875 c 128,-1,25
 98.2265625 33.57421875 98.2265625 33.57421875 90.900390625 40.900390625 c 1,26,-1
 90.90234375 40.90234375 l 0,27,28
 90.4657047857 41.3375223833 90.4657047857 41.3375223833 90.0546875 41.7890625 c 2,29,-1
 90.044921875 41.8046875 l 1,30,31
 24.9912109375 107.582042564 24.9912109375 107.582042564 24.9912109375 200.052734375 c 0,32,33
 24.9912109375 293.171086597 24.9912109375 293.171086597 90.90234375 359.099609375 c 0,34,35
 150.242832829 418.440098454 150.242832829 418.440098454 233.94921875 424.427734375 c 0,0,1
250 325 m 128,-1,37
 302 325 302 325 338.5 288.5 c 128,-1,38
 375 252 375 252 375 200 c 128,-1,39
 375 148 375 148 338.5 111.5 c 128,-1,40
 302 75 302 75 250 75 c 128,-1,41
 198 75 198 75 161.5 111.5 c 128,-1,42
 125 148 125 148 125 200 c 128,-1,43
 125 252 125 252 161.5 288.5 c 128,-1,36
 198 325 198 325 250 325 c 128,-1,37
250 275 m 128,-1,45
 219 275 219 275 197 253 c 128,-1,46
 175 231 175 231 175 200 c 128,-1,47
 175 169 175 169 197 147 c 128,-1,48
 219 125 219 125 250 125 c 128,-1,49
 281 125 281 125 303 147 c 128,-1,50
 325 169 325 169 325 200 c 128,-1,51
 325 231 325 231 303 253 c 128,-1,44
 281 275 281 275 250 275 c 128,-1,45
EndSplineSet
EndChar

StartChar: parenleft
Encoding: 40 40 2
Width: 500
Flags: W
LayerCount: 2
Fore
SplineSet
350 525 m 0,0,1
 360 525 360 525 367.5 517.5 c 128,-1,2
 375 510 375 510 375 500 c 128,-1,3
 375 490 375 490 367.5 482.5 c 128,-1,4
 360 475 360 475 350 475 c 1,5,-1
 350 474.716796875 l 1,6,-1
 349.703125 474.725585938 l 0,7,8
 318.893008723 474.725585938 318.893008723 474.725585938 296.966796875 453.033203125 c 0,9,10
 275 431.067871094 275 431.067871094 275 400 c 2,11,-1
 275 0 l 2,12,13
 275 -31.06640625 275 -31.06640625 296.966796875 -53.033203125 c 0,14,15
 318.88511201 -74.7177734375 318.88511201 -74.7177734375 349.709960938 -74.7177734375 c 0,16,-1
 350 -74.716796875 l 1,17,-1
 350 -75 l 1,18,19
 360.354625616 -75 360.354625616 -75 367.677312808 -82.3236750888 c 128,-1,20
 375 -89.6473501777 375 -89.6473501777 375 -100.001953125 c 128,-1,21
 375 -110.356369808 375 -110.356369808 367.677405918 -117.679161467 c 128,-1,22
 360.354811837 -125.001953125 360.354811837 -125.001953125 350 -125.001953125 c 0,23,24
 298.08038125 -124.395152975 298.08038125 -124.395152975 261.611328125 -88.388671875 c 0,25,26
 225 -51.7758789453 225 -51.7758789453 225 0 c 2,27,-1
 225 400 l 2,28,29
 225 451.775878945 225 451.775878945 261.611328125 488.388671875 c 0,30,31
 298.078814947 524.394492054 298.078814947 524.394492054 350 525 c 0,0,1
253.400390625 424.748046875 m 1,32,33
 254.575518533 424.588334977 254.575518533 424.588334977 255.724609375 424.3203125 c 1,34,35
 254.575518533 424.588334977 254.575518533 424.588334977 253.400390625 424.748046875 c 1,32,33
256.048828125 424.251953125 m 1,36,37
 257.346177314 423.922444163 257.346177314 423.922444163 258.5859375 423.462890625 c 1,38,39
 257.346177314 423.922444163 257.346177314 423.922444163 256.048828125 424.251953125 c 1,36,37
273.4609375 408.587890625 m 1,40,41
 273.926695205 407.331393152 273.926695205 407.331393152 274.251953125 406.05078125 c 1,42,43
 273.922829192 407.3451386 273.922829192 407.3451386 273.462890625 408.5859375 c 2,44,-1
 273.4609375 408.587890625 l 1,40,41
EndSplineSet
EndChar

StartChar: parenright
Encoding: 41 41 3
Width: 500
Flags: W
LayerCount: 2
Fore
SplineSet
150 525.001953125 m 0,0,1
 201.91961875 524.395152975 201.91961875 524.395152975 238.388671875 488.388671875 c 0,2,3
 275 451.775878945 275 451.775878945 275 400 c 2,4,-1
 275 0 l 2,5,6
 275 -51.7758789453 275 -51.7758789453 238.388671875 -88.388671875 c 0,7,8
 201.921185053 -124.394492054 201.921185053 -124.394492054 150 -125 c 0,9,10
 140 -125 140 -125 132.5 -117.5 c 128,-1,11
 125 -110 125 -110 125 -100 c 128,-1,12
 125 -90 125 -90 132.5 -82.5 c 128,-1,13
 140 -75 140 -75 150 -75 c 1,14,-1
 150 -74.716796875 l 1,15,-1
 150.296875 -74.7255859375 l 0,16,17
 181.106991277 -74.7255859375 181.106991277 -74.7255859375 203.033203125 -53.033203125 c 0,18,19
 225 -31.0678710938 225 -31.0678710938 225 0 c 2,20,-1
 225 400 l 2,21,22
 225 431.06640625 225 431.06640625 203.033203125 453.033203125 c 0,23,24
 181.11488799 474.717773438 181.11488799 474.717773438 150.290039062 474.717773438 c 0,25,-1
 150 474.716796875 l 1,26,-1
 150 475 l 1,27,28
 139.645374384 475 139.645374384 475 132.322687192 482.323675089 c 128,-1,29
 125 489.647350178 125 489.647350178 125 500.001953125 c 128,-1,30
 125 510.356369808 125 510.356369808 132.322594082 517.679161467 c 128,-1,31
 139.645188163 525.001953125 139.645188163 525.001953125 150 525.001953125 c 0,0,1
253.400390625 424.748046875 m 1,32,33
 254.575518533 424.588334977 254.575518533 424.588334977 255.724609375 424.3203125 c 1,34,35
 254.575518533 424.588334977 254.575518533 424.588334977 253.400390625 424.748046875 c 1,32,33
256.048828125 424.251953125 m 1,36,37
 257.346177314 423.922444163 257.346177314 423.922444163 258.5859375 423.462890625 c 1,38,39
 257.346177314 423.922444163 257.346177314 423.922444163 256.048828125 424.251953125 c 1,36,37
273.4609375 408.587890625 m 1,40,41
 273.926695205 407.331393152 273.926695205 407.331393152 274.251953125 406.05078125 c 1,42,43
 273.922829192 407.3451386 273.922829192 407.3451386 273.462890625 408.5859375 c 2,44,-1
 273.4609375 408.587890625 l 1,40,41
EndSplineSet
EndChar

StartChar: l
Encoding: 108 108 4
Width: 500
Flags: W
LayerCount: 2
Fore
SplineSet
234.634765625 424.453125 m 0,0,1
 241.321876469 424.845703125 241.321876469 424.845703125 247.635742188 424.845703125 c 0,2,3
 254.959279186 424.845703125 254.959279186 424.845703125 262.255859375 424.376953125 c 0,4,-1
 262.512695312 424.376953125 l 0,5,6
 263.354003906 424.376953125 263.354003906 424.376953125 264.193359375 424.37109375 c 0,7,8
 279.674450873 423.363002436 279.674450873 423.363002436 294.861328125 420.2421875 c 2,9,-1
 294.861328125 420.2421875 l 0,10,-1
 295.583984375 420.13671875 l 1,11,12
 359.508091582 406.863904584 359.508091582 406.863904584 406.3984375 361.4375 c 0,13,14
 406.991315938 360.954030551 406.991315938 360.954030551 407.53515625 360.453125 c 0,15,16
 408.345196719 359.808873783 408.345196719 359.808873783 409.099609375 359.099609375 c 2,17,-1
 409.099609375 359.09765625 l 1,18,-1
 409.1171875 359.078125 l 1,19,20
 475.030273438 293.149229913 475.030273438 293.149229913 475.030273438 199.966796875 c 128,-1,21
 475.030273438 106.832635607 475.030273438 106.832635607 409.099609375 40.900390625 c 1,22,-1
 409.056640625 40.86328125 l 0,23,24
 408.651150414 40.4563632563 408.651150414 40.4563632563 408.2109375 40.0546875 c 2,25,-1
 408.1953125 40.044921875 l 0,26,27
 404.161201789 36.4142222351 404.161201789 36.4142222351 399.958984375 32.984375 c 0,28,29
 392.51302165 25.9905667207 392.51302165 25.9905667207 384.482421875 19.712890625 c 0,30,31
 377.219443645 14.6160637971 377.219443645 14.6160637971 369.57421875 10.10546875 c 0,32,33
 363.834354051 6.20177505412 363.834354051 6.20177505412 357.861328125 2.65625 c 0,34,35
 347.926770596 -2.52693311111 347.926770596 -2.52693311111 337.53515625 -6.6953125 c 0,36,37
 333.345830993 -8.69163763106 333.345830993 -8.69163763106 329.099609375 -10.50390625 c 0,38,39
 317.072792236 -14.8495684054 317.072792236 -14.8495684054 304.6328125 -17.8046875 c 0,40,41
 301.698067889 -18.6977414299 301.698067889 -18.6977414299 298.765625 -19.50390625 c 0,42,43
 284.973985187 -22.4606366116 284.973985187 -22.4606366116 270.921875 -23.671875 c 0,44,45
 269.213245948 -23.9261961763 269.213245948 -23.9261961763 267.48046875 -24.15625 c 0,46,47
 259.157786271 -24.76953125 259.157786271 -24.76953125 251.126953125 -24.76953125 c 0,48,49
 244.435679041 -24.76953125 244.435679041 -24.76953125 237.744140625 -24.376953125 c 0,50,-1
 237.487304688 -24.376953125 l 0,51,52
 236.645996094 -24.376953125 236.645996094 -24.376953125 235.806640625 -24.37109375 c 0,53,54
 220.325549127 -23.3630024363 220.325549127 -23.3630024363 205.138671875 -20.2421875 c 2,55,-1
 205.138671875 -20.2421875 l 0,56,-1
 204.416015625 -20.13671875 l 1,57,58
 140.491908418 -6.86390458402 140.491908418 -6.86390458402 93.6015625 38.5625 c 0,59,60
 93.0086840623 39.0459694492 93.0086840623 39.0459694492 92.46484375 39.546875 c 0,61,62
 91.6548032806 40.1911262172 91.6548032806 40.1911262172 90.900390625 40.900390625 c 2,63,-1
 90.900390625 40.90234375 l 1,64,-1
 90.89453125 40.908203125 l 1,65,66
 24.96875 106.838727123 24.96875 106.838727123 24.96875 200.032226562 c 128,-1,67
 24.96875 293.16796875 24.96875 293.16796875 90.900390625 359.099609375 c 1,68,-1
 90.943359375 359.13671875 l 0,69,70
 91.3488495862 359.543636744 91.3488495862 359.543636744 91.7890625 359.9453125 c 2,71,-1
 91.8046875 359.955078125 l 0,72,73
 95.838798211 363.585777765 95.838798211 363.585777765 100.041015625 367.015625 c 0,74,75
 107.48697835 374.009433279 107.48697835 374.009433279 115.517578125 380.287109375 c 0,76,77
 122.780556355 385.383936203 122.780556355 385.383936203 130.42578125 389.89453125 c 0,78,79
 136.165645949 393.798224946 136.165645949 393.798224946 142.138671875 397.34375 c 0,80,81
 152.073229404 402.526933111 152.073229404 402.526933111 162.46484375 406.6953125 c 0,82,83
 166.654169007 408.691637631 166.654169007 408.691637631 170.900390625 410.50390625 c 0,84,85
 182.927207764 414.849568405 182.927207764 414.849568405 195.3671875 417.8046875 c 0,86,87
 198.301932111 418.69774143 198.301932111 418.69774143 201.234375 419.50390625 c 0,88,89
 215.026014813 422.460636612 215.026014813 422.460636612 229.078125 423.671875 c 0,90,91
 230.786754052 423.926196176 230.786754052 423.926196176 232.51953125 424.15625 c 0,92,93
 233.615404946 424.314763024 233.615404946 424.314763024 234.634765625 424.453125 c 0,0,1
250 375 m 0,94,95
 193.138895157 375 193.138895157 375 147.13671875 341.578125 c 0,96,97
 135.993487094 333.481768344 135.993487094 333.481768344 126.255859375 323.744140625 c 0,98,99
 74.974609375 272.462890625 74.974609375 272.462890625 74.974609375 199.975585938 c 128,-1,100
 74.974609375 127.537109375 74.974609375 127.537109375 126.255859375 76.255859375 c 128,-1,101
 177.517578125 24.994140625 177.517578125 24.994140625 249.830078125 24.994140625 c 0,102,103
 263.742450421 24.994140625 263.742450421 24.994140625 277.376953125 27.154296875 c 0,104,105
 333.53771536 36.04943411 333.53771536 36.04943411 373.744140625 76.255859375 c 0,106,107
 425.025390625 127.537109375 425.025390625 127.537109375 425.025390625 200.024414062 c 128,-1,108
 425.025390625 272.462890625 425.025390625 272.462890625 373.744140625 323.744140625 c 128,-1,109
 322.48828125 375 322.48828125 375 250 375 c 0,94,95
104.66796875 366.11328125 m 0,110,111
 106.634460449 366.424804688 106.634460449 366.424804688 108.58203125 366.424804688 c 0,112,113
 118.929082971 366.424804688 118.929082971 366.424804688 126.255859375 359.099609375 c 2,114,-1
 409.099609375 76.255859375 l 1,115,116
 416.42578125 68.9296875 416.42578125 68.9296875 416.42578125 58.57421875 c 128,-1,117
 416.42578125 48.2265625 416.42578125 48.2265625 409.099609375 40.900390625 c 128,-1,118
 401.7734375 33.57421875 401.7734375 33.57421875 391.41796875 33.57421875 c 128,-1,119
 381.0703125 33.57421875 381.0703125 33.57421875 373.744140625 40.900390625 c 2,120,-1
 90.900390625 323.744140625 l 1,121,122
 83.57421875 331.0703125 83.57421875 331.0703125 83.57421875 341.42578125 c 128,-1,123
 83.57421875 351.7734375 83.57421875 351.7734375 90.900390625 359.099609375 c 0,124,125
 96.6460379679 364.843718392 96.6460379679 364.843718392 104.66796875 366.11328125 c 0,110,111
EndSplineSet
EndChar

StartChar: Y
Encoding: 89 89 5
Width: 500
Flags: W
LayerCount: 2
Fore
SplineSet
234.634765625 424.453125 m 0,0,1
 242.778139067 425.010742188 242.778139067 425.010742188 250.05078125 425.010742188 c 0,2,3
 343.170714288 425.010742188 343.170714288 425.010742188 409.099609375 359.09765625 c 128,-1,4
 475.03125 293.166015625 475.03125 293.166015625 475.03125 199.967773438 c 128,-1,5
 475.03125 106.83203125 475.03125 106.83203125 409.099609375 40.900390625 c 128,-1,6
 343.212351353 -24.8525390625 343.212351353 -24.8525390625 250.111328125 -24.8525390625 c 0,7,8
 159.056903282 -24.8525390625 159.056903282 -24.8525390625 93.6015625 38.5625 c 0,9,10
 92.1644860693 39.6362951807 92.1644860693 39.6362951807 90.900390625 40.900390625 c 0,11,12
 83.57421875 48.2265625 83.57421875 48.2265625 83.57421875 58.58203125 c 128,-1,13
 83.57421875 68.9296875 83.57421875 68.9296875 90.900390625 76.255859375 c 128,-1,14
 98.2265625 83.58203125 98.2265625 83.58203125 108.58203125 83.58203125 c 128,-1,15
 118.9296875 83.58203125 118.9296875 83.58203125 126.255859375 76.255859375 c 0,16,17
 177.537109375 24.974609375 177.537109375 24.974609375 250.024414062 24.974609375 c 128,-1,18
 322.462890625 24.974609375 322.462890625 24.974609375 373.744140625 76.255859375 c 128,-1,19
 425.025390625 127.537109375 425.025390625 127.537109375 425.025390625 200.024414062 c 128,-1,20
 425.025390625 272.462890625 425.025390625 272.462890625 373.744140625 323.744140625 c 128,-1,21
 322.462890625 375.025390625 322.462890625 375.025390625 249.975585938 375.025390625 c 128,-1,22
 177.537109375 375.025390625 177.537109375 375.025390625 126.255859375 323.744140625 c 0,23,24
 118.9296875 316.41796875 118.9296875 316.41796875 108.57421875 316.41796875 c 128,-1,25
 98.2265625 316.41796875 98.2265625 316.41796875 90.900390625 323.744140625 c 128,-1,26
 83.57421875 331.0703125 83.57421875 331.0703125 83.57421875 341.42578125 c 128,-1,27
 83.57421875 351.7734375 83.57421875 351.7734375 90.900390625 359.099609375 c 1,28,-1
 90.90234375 359.09765625 l 0,29,30
 91.3375223833 359.534295214 91.3375223833 359.534295214 91.7890625 359.9453125 c 2,31,-1
 91.8046875 359.955078125 l 1,32,33
 151.23963867 418.736280718 151.23963867 418.736280718 234.634765625 424.453125 c 0,0,1
104.66796875 366.11328125 m 0,34,35
 106.634460449 366.424804688 106.634460449 366.424804688 108.58203125 366.424804688 c 0,36,37
 118.929082971 366.424804688 118.929082971 366.424804688 126.255859375 359.099609375 c 2,38,-1
 409.099609375 76.255859375 l 1,39,40
 416.42578125 68.9296875 416.42578125 68.9296875 416.42578125 58.57421875 c 128,-1,41
 416.42578125 48.2265625 416.42578125 48.2265625 409.099609375 40.900390625 c 128,-1,42
 401.7734375 33.57421875 401.7734375 33.57421875 391.41796875 33.57421875 c 128,-1,43
 381.0703125 33.57421875 381.0703125 33.57421875 373.744140625 40.900390625 c 2,44,-1
 90.900390625 323.744140625 l 1,45,46
 83.57421875 331.0703125 83.57421875 331.0703125 83.57421875 341.42578125 c 128,-1,47
 83.57421875 351.7734375 83.57421875 351.7734375 90.900390625 359.099609375 c 0,48,49
 96.6460379679 364.843718392 96.6460379679 364.843718392 104.66796875 366.11328125 c 0,34,35
250 325 m 128,-1,51
 302 325 302 325 338.5 288.5 c 128,-1,52
 375 252 375 252 375 200 c 128,-1,53
 375 148 375 148 338.5 111.5 c 128,-1,54
 302 75 302 75 250 75 c 128,-1,55
 198 75 198 75 161.5 111.5 c 128,-1,56
 125 148 125 148 125 200 c 128,-1,57
 125 252 125 252 161.5 288.5 c 128,-1,50
 198 325 198 325 250 325 c 128,-1,51
250 275 m 128,-1,59
 219 275 219 275 197 253 c 128,-1,60
 175 231 175 231 175 200 c 128,-1,61
 175 169 175 169 197 147 c 128,-1,62
 219 125 219 125 250 125 c 128,-1,63
 281 125 281 125 303 147 c 128,-1,64
 325 169 325 169 325 200 c 128,-1,65
 325 231 325 231 303 253 c 128,-1,58
 281 275 281 275 250 275 c 128,-1,59
EndSplineSet
EndChar

StartChar: q
Encoding: 113 113 6
Width: 500
Flags: W
LayerCount: 2
Fore
SplineSet
234.634765625 424.453125 m 0,0,1
 242.778139067 425.010742188 242.778139067 425.010742188 250.05078125 425.010742188 c 0,2,3
 343.170714288 425.010742188 343.170714288 425.010742188 409.099609375 359.09765625 c 128,-1,4
 475.03125 293.166015625 475.03125 293.166015625 475.03125 199.967773438 c 128,-1,5
 475.03125 106.83203125 475.03125 106.83203125 409.099609375 40.900390625 c 128,-1,6
 343.212351353 -24.8525390625 343.212351353 -24.8525390625 250.111328125 -24.8525390625 c 0,7,8
 159.056903282 -24.8525390625 159.056903282 -24.8525390625 93.6015625 38.5625 c 0,9,10
 92.1644860693 39.6362951807 92.1644860693 39.6362951807 90.900390625 40.900390625 c 0,11,12
 83.57421875 48.2265625 83.57421875 48.2265625 83.57421875 58.58203125 c 128,-1,13
 83.57421875 68.9296875 83.57421875 68.9296875 90.900390625 76.255859375 c 128,-1,14
 98.2265625 83.58203125 98.2265625 83.58203125 108.58203125 83.58203125 c 128,-1,15
 118.9296875 83.58203125 118.9296875 83.58203125 126.255859375 76.255859375 c 0,16,17
 177.537109375 24.974609375 177.537109375 24.974609375 250.024414062 24.974609375 c 128,-1,18
 322.462890625 24.974609375 322.462890625 24.974609375 373.744140625 76.255859375 c 128,-1,19
 425.025390625 127.537109375 425.025390625 127.537109375 425.025390625 200.024414062 c 128,-1,20
 425.025390625 272.462890625 425.025390625 272.462890625 373.744140625 323.744140625 c 128,-1,21
 322.462890625 375.025390625 322.462890625 375.025390625 249.975585938 375.025390625 c 128,-1,22
 177.537109375 375.025390625 177.537109375 375.025390625 126.255859375 323.744140625 c 0,23,24
 118.9296875 316.41796875 118.9296875 316.41796875 108.57421875 316.41796875 c 128,-1,25
 98.2265625 316.41796875 98.2265625 316.41796875 90.900390625 323.744140625 c 128,-1,26
 83.57421875 331.0703125 83.57421875 331.0703125 83.57421875 341.42578125 c 128,-1,27
 83.57421875 351.7734375 83.57421875 351.7734375 90.900390625 359.099609375 c 1,28,-1
 90.90234375 359.09765625 l 0,29,30
 91.3375223833 359.534295214 91.3375223833 359.534295214 91.7890625 359.9453125 c 2,31,-1
 91.8046875 359.955078125 l 1,32,33
 151.23963867 418.736280718 151.23963867 418.736280718 234.634765625 424.453125 c 0,0,1
EndSplineSet
EndChar

StartChar: e
Encoding: 101 101 7
Width: 0
GlyphClass: 4
Flags: W
LayerCount: 2
Fore
SplineSet
-143.205078125 566.357421875 m 0,0,1
 -142.269375888 566.424804688 -142.269375888 566.424804688 -141.41796875 566.424804688 c 0,2,3
 -131.070917029 566.424804688 -131.070917029 566.424804688 -123.744140625 559.099609375 c 2,4,-1
 17.677734375 417.677734375 l 1,5,6
 25 410.35546875 25 410.35546875 25 400 c 0,7,8
 25 390 25 390 17.5 382.5 c 128,-1,9
 10 375 10 375 0 375 c 0,10,11
 -10.3401955001 375.03666216 -10.3401955001 375.03666216 -17.6328125 382.3671875 c 1,12,-1
 -17.677734375 382.322265625 l 1,13,-1
 -159.099609375 523.744140625 l 1,14,15
 -166.42578125 531.0703125 -166.42578125 531.0703125 -166.42578125 541.42578125 c 128,-1,16
 -166.42578125 551.7734375 -166.42578125 551.7734375 -159.099609375 559.099609375 c 0,17,18
 -152.506159856 565.693058894 -152.506159856 565.693058894 -143.205078125 566.357421875 c 0,0,1
EndSplineSet
EndChar

StartChar: d
Encoding: 100 100 8
Width: 500
Flags: W
LayerCount: 2
Fore
SplineSet
108.578125 366.421875 m 128,-1,1
 118.93359375 366.421875 118.93359375 366.421875 126.255859375 359.099609375 c 128,-1,2
 133.58203125 351.7734375 133.58203125 351.7734375 133.58203125 341.41796875 c 128,-1,3
 133.58203125 331.0703125 133.58203125 331.0703125 126.255859375 323.744140625 c 0,4,5
 74.974609375 272.462890625 74.974609375 272.462890625 74.974609375 199.975585938 c 128,-1,6
 74.974609375 127.537109375 74.974609375 127.537109375 126.255859375 76.255859375 c 128,-1,7
 177.537109375 24.974609375 177.537109375 24.974609375 250.024414062 24.974609375 c 128,-1,8
 322.462890625 24.974609375 322.462890625 24.974609375 373.744140625 76.255859375 c 128,-1,9
 425.025390625 127.537109375 425.025390625 127.537109375 425.025390625 200.024414062 c 128,-1,10
 425.025390625 272.462890625 425.025390625 272.462890625 373.744140625 323.744140625 c 0,11,12
 366.41796875 331.0703125 366.41796875 331.0703125 366.41796875 341.42578125 c 128,-1,13
 366.41796875 351.7734375 366.41796875 351.7734375 373.744140625 359.099609375 c 128,-1,14
 381.0703125 366.42578125 381.0703125 366.42578125 391.42578125 366.42578125 c 128,-1,15
 401.7734375 366.42578125 401.7734375 366.42578125 409.099609375 359.099609375 c 1,16,-1
 409.09765625 359.09765625 l 0,17,18
 409.534295214 358.662477617 409.534295214 358.662477617 409.9453125 358.2109375 c 2,19,-1
 409.955078125 358.1953125 l 1,20,21
 475.008789062 292.417957436 475.008789062 292.417957436 475.008789062 199.947265625 c 0,22,23
 475.008789062 106.828913403 475.008789062 106.828913403 409.09765625 40.900390625 c 128,-1,24
 343.166015625 -25.03125 343.166015625 -25.03125 249.967773438 -25.03125 c 128,-1,25
 156.83203125 -25.03125 156.83203125 -25.03125 90.900390625 40.900390625 c 128,-1,26
 25.1474609375 106.787648647 25.1474609375 106.787648647 25.1474609375 199.888671875 c 0,27,28
 25.1474609375 290.943096718 25.1474609375 290.943096718 88.5625 356.3984375 c 0,29,30
 89.6362951807 357.835513931 89.6362951807 357.835513931 90.900390625 359.099609375 c 0,31,0
 98.22265625 366.421875 98.22265625 366.421875 108.578125 366.421875 c 128,-1,1
104.66796875 366.11328125 m 0,32,33
 106.634460449 366.424804688 106.634460449 366.424804688 108.58203125 366.424804688 c 0,34,35
 118.929082971 366.424804688 118.929082971 366.424804688 126.255859375 359.099609375 c 2,36,-1
 409.099609375 76.255859375 l 1,37,38
 416.42578125 68.9296875 416.42578125 68.9296875 416.42578125 58.57421875 c 128,-1,39
 416.42578125 48.2265625 416.42578125 48.2265625 409.099609375 40.900390625 c 128,-1,40
 401.7734375 33.57421875 401.7734375 33.57421875 391.41796875 33.57421875 c 128,-1,41
 381.0703125 33.57421875 381.0703125 33.57421875 373.744140625 40.900390625 c 2,42,-1
 90.900390625 323.744140625 l 1,43,44
 83.57421875 331.0703125 83.57421875 331.0703125 83.57421875 341.42578125 c 128,-1,45
 83.57421875 351.7734375 83.57421875 351.7734375 90.900390625 359.099609375 c 0,46,47
 96.6460379679 364.843718392 96.6460379679 364.843718392 104.66796875 366.11328125 c 0,32,33
EndSplineSet
EndChar

StartChar: p
Encoding: 112 112 9
Width: 500
Flags: W
LayerCount: 2
Fore
SplineSet
264.0546875 424.390625 m 0,0,1
 346.8300979 419.149204604 346.8300979 419.149204604 406.3984375 361.4375 c 0,2,3
 407.835513931 360.363704819 407.835513931 360.363704819 409.099609375 359.099609375 c 0,4,5
 416.42578125 351.7734375 416.42578125 351.7734375 416.42578125 341.41796875 c 128,-1,6
 416.42578125 331.0703125 416.42578125 331.0703125 409.099609375 323.744140625 c 128,-1,7
 401.7734375 316.41796875 401.7734375 316.41796875 391.41796875 316.41796875 c 128,-1,8
 381.0703125 316.41796875 381.0703125 316.41796875 373.744140625 323.744140625 c 0,9,10
 322.462890625 375.025390625 322.462890625 375.025390625 249.975585938 375.025390625 c 128,-1,11
 177.537109375 375.025390625 177.537109375 375.025390625 126.255859375 323.744140625 c 128,-1,12
 74.974609375 272.462890625 74.974609375 272.462890625 74.974609375 199.975585938 c 128,-1,13
 74.974609375 127.537109375 74.974609375 127.537109375 126.255859375 76.255859375 c 128,-1,14
 177.537109375 24.974609375 177.537109375 24.974609375 250.024414062 24.974609375 c 128,-1,15
 322.462890625 24.974609375 322.462890625 24.974609375 373.744140625 76.255859375 c 0,16,17
 381.0703125 83.58203125 381.0703125 83.58203125 391.42578125 83.58203125 c 128,-1,18
 401.7734375 83.58203125 401.7734375 83.58203125 409.099609375 76.255859375 c 128,-1,19
 416.42578125 68.9296875 416.42578125 68.9296875 416.42578125 58.57421875 c 128,-1,20
 416.42578125 48.2265625 416.42578125 48.2265625 409.099609375 40.900390625 c 1,21,-1
 409.09765625 40.90234375 l 0,22,23
 408.662477617 40.4657047857 408.662477617 40.4657047857 408.2109375 40.0546875 c 2,24,-1
 408.1953125 40.044921875 l 1,25,26
 342.417957436 -25.0087890625 342.417957436 -25.0087890625 249.947265625 -25.0087890625 c 0,27,28
 156.828913403 -25.0087890625 156.828913403 -25.0087890625 90.900390625 40.90234375 c 128,-1,29
 24.96875 106.833984375 24.96875 106.833984375 24.96875 200.032226562 c 128,-1,30
 24.96875 293.16796875 24.96875 293.16796875 90.900390625 359.099609375 c 128,-1,31
 156.779215385 424.845703125 156.779215385 424.845703125 249.650390625 424.845703125 c 0,32,33
 256.872111398 424.845703125 256.872111398 424.845703125 264.0546875 424.390625 c 0,0,1
EndSplineSet
EndChar

StartChar: X
Encoding: 88 88 10
Width: 500
Flags: W
LayerCount: 2
Fore
SplineSet
250 425 m 0,0,1
 343 425 343 425 409 359 c 128,-1,2
 475 293 475 293 475 200 c 0,3,4
 474.907054555 107.923997391 474.907054555 107.923997391 410.183512075 42.3174234462 c 128,-1,5
 345.459969596 -23.2891504984 345.459969596 -23.2891504984 253.5625 -24.744140625 c 0,6,7
 251.78775289 -25 251.78775289 -25 250 -25 c 0,8,9
 240 -25 240 -25 232.5 -17.5 c 128,-1,10
 225 -10 225 -10 225 0 c 128,-1,11
 225 10 225 10 232.5 17.5 c 128,-1,12
 240 25 240 25 250 25 c 0,13,14
 322 25 322 25 373.5 76.5 c 128,-1,15
 425 128 425 128 425 200 c 128,-1,16
 425 272 425 272 373.5 323.5 c 128,-1,17
 322 375 322 375 250 375 c 128,-1,18
 178 375 178 375 126.5 323.5 c 128,-1,19
 75 272 75 272 75 200 c 0,20,21
 75 190 75 190 67.5 182.5 c 128,-1,22
 60 175 60 175 50 175 c 128,-1,23
 40 175 40 175 32.5 182.5 c 128,-1,24
 25 190 25 190 25 200 c 0,25,-1
 25 199.999023438 l 0,26,27
 25 200.615722656 25 200.615722656 25.029296875 201.2265625 c 2,28,-1
 25.03125 201.244140625 l 1,29,30
 25.5440927051 293.962438538 25.5440927051 293.962438538 91.3809450415 359.475361576 c 128,-1,31
 157.217797378 424.988284613 157.217797378 424.988284613 250 425 c 0,0,1
104.66796875 366.11328125 m 0,32,33
 106.634460449 366.424804688 106.634460449 366.424804688 108.58203125 366.424804688 c 0,34,35
 118.929082971 366.424804688 118.929082971 366.424804688 126.255859375 359.099609375 c 2,36,-1
 409.099609375 76.255859375 l 1,37,38
 416.42578125 68.9296875 416.42578125 68.9296875 416.42578125 58.57421875 c 128,-1,39
 416.42578125 48.2265625 416.42578125 48.2265625 409.099609375 40.900390625 c 128,-1,40
 401.7734375 33.57421875 401.7734375 33.57421875 391.41796875 33.57421875 c 128,-1,41
 381.0703125 33.57421875 381.0703125 33.57421875 373.744140625 40.900390625 c 2,42,-1
 90.900390625 323.744140625 l 1,43,44
 83.57421875 331.0703125 83.57421875 331.0703125 83.57421875 341.42578125 c 128,-1,45
 83.57421875 351.7734375 83.57421875 351.7734375 90.900390625 359.099609375 c 0,46,47
 96.6460379679 364.843718392 96.6460379679 364.843718392 104.66796875 366.11328125 c 0,32,33
EndSplineSet
EndChar

StartChar: k
Encoding: 107 107 11
Width: 500
Flags: W
LayerCount: 2
Fore
SplineSet
250 425 m 0,0,-1
 249.999023438 425 l 0,1,2
 250.615722656 425 250.615722656 425 251.2265625 424.970703125 c 2,3,-1
 251.244140625 424.96875 l 1,4,5
 343.962438538 424.455907295 343.962438538 424.455907295 409.475361576 358.619054958 c 128,-1,6
 474.988284613 292.782202622 474.988284613 292.782202622 475 200 c 0,7,8
 475 107 475 107 409 41 c 128,-1,9
 343 -25 343 -25 250 -25 c 0,10,11
 157.923997391 -24.907054555 157.923997391 -24.907054555 92.3174234462 39.8164879247 c 128,-1,12
 26.7108495016 104.540030404 26.7108495016 104.540030404 25.255859375 196.4375 c 0,13,14
 25 198.21224711 25 198.21224711 25 200 c 0,15,16
 25 210 25 210 32.5 217.5 c 128,-1,17
 40 225 40 225 50 225 c 128,-1,18
 60 225 60 225 67.5 217.5 c 128,-1,19
 75 210 75 210 75 200 c 0,20,21
 75 128 75 128 126.5 76.5 c 128,-1,22
 178 25 178 25 250 25 c 128,-1,23
 322 25 322 25 373.5 76.5 c 128,-1,24
 425 128 425 128 425 200 c 128,-1,25
 425 272 425 272 373.5 323.5 c 128,-1,26
 322 375 322 375 250 375 c 0,27,28
 240 375 240 375 232.5 382.5 c 128,-1,29
 225 390 225 390 225 400 c 128,-1,30
 225 410 225 410 232.5 417.5 c 128,-1,31
 240 425 240 425 250 425 c 0,0,-1
EndSplineSet
EndChar

StartChar: braceright
Encoding: 125 125 12
Width: 500
Flags: W
LayerCount: 2
Fore
SplineSet
150 525.001953125 m 0,0,1
 201.91961875 524.395152975 201.91961875 524.395152975 238.388671875 488.388671875 c 0,2,3
 275 451.775878945 275 451.775878945 275 400 c 2,4,-1
 275 300 l 2,5,6
 275 268.93359375 275 268.93359375 296.966796875 246.966796875 c 0,7,8
 318.88511201 225.282226562 318.88511201 225.282226562 349.709960938 225.282226562 c 0,9,-1
 350 225.283203125 l 1,10,-1
 350 225 l 1,11,-1
 350.036132812 225.00390625 l 0,12,13
 360.371748725 225.00390625 360.371748725 225.00390625 367.677734375 217.67578125 c 0,14,15
 369.381606575 215.974831643 369.381606575 215.974831643 370.73046875 213.978515625 c 2,16,-1
 370.73046875 213.9765625 l 1,17,18
 372.090196623 211.962150836 372.090196623 211.962150836 373.03515625 209.73046875 c 2,19,-1
 373.03515625 209.728515625 l 1,20,21
 373.993927051 207.460022095 373.993927051 207.460022095 374.4921875 205.0390625 c 2,22,-1
 374.4921875 205.037109375 l 2,23,24
 375 202.556125137 375 202.556125137 375 200 c 2,25,-1
 375 199.998046875 l 0,26,-1
 375 199.993164062 l 0,27,28
 375 197.440432551 375 197.440432551 374.4921875 194.9609375 c 0,29,30
 372.983779795 187.616095688 372.983779795 187.616095688 367.677734375 182.322265625 c 0,31,32
 360.374062635 174.998046875 360.374062635 174.998046875 350.032226562 174.998046875 c 0,33,-1
 350 174.998046875 l 1,34,-1
 350 174.716796875 l 1,35,-1
 349.703125 174.725585938 l 0,36,37
 318.893008723 174.725585938 318.893008723 174.725585938 296.966796875 153.033203125 c 0,38,39
 275 131.067871094 275 131.067871094 275 100 c 2,40,-1
 275 0 l 2,41,42
 275 -51.7758789453 275 -51.7758789453 238.388671875 -88.388671875 c 0,43,44
 201.921185053 -124.394492054 201.921185053 -124.394492054 150 -125 c 0,45,46
 140 -125 140 -125 132.5 -117.5 c 128,-1,47
 125 -110 125 -110 125 -100 c 128,-1,48
 125 -90 125 -90 132.5 -82.5 c 128,-1,49
 140 -75 140 -75 150 -75 c 1,50,-1
 150 -74.716796875 l 1,51,-1
 150.296875 -74.7255859375 l 0,52,53
 181.106991277 -74.7255859375 181.106991277 -74.7255859375 203.033203125 -53.033203125 c 0,54,55
 225 -31.0678710938 225 -31.0678710938 225 0 c 2,56,-1
 225 100 l 2,57,58
 225 151.776367305 225 151.776367305 261.609375 188.388671875 c 0,59,60
 268.014042342 194.702844828 268.014042342 194.702844828 275.28125 200 c 1,61,62
 268.017406564 205.295764012 268.017406564 205.295764012 261.611328125 211.611328125 c 0,63,64
 225.01171875 248.2109375 225.01171875 248.2109375 225.01171875 300 c 1,65,-1
 225 300 l 1,66,-1
 225 400 l 2,67,68
 225 431.06640625 225 431.06640625 203.033203125 453.033203125 c 0,69,70
 181.11488799 474.717773438 181.11488799 474.717773438 150.290039062 474.717773438 c 0,71,-1
 150 474.716796875 l 1,72,-1
 150 475 l 1,73,74
 139.645374384 475 139.645374384 475 132.322687192 482.323675089 c 128,-1,75
 125 489.647350178 125 489.647350178 125 500.001953125 c 128,-1,76
 125 510.356369808 125 510.356369808 132.322594082 517.679161467 c 128,-1,77
 139.645188163 525.001953125 139.645188163 525.001953125 150 525.001953125 c 0,0,1
EndSplineSet
EndChar

StartChar: f
Encoding: 102 102 13
Width: 500
Flags: W
LayerCount: 2
Fore
SplineSet
233.94921875 424.427734375 m 0,0,1
 242.404418635 425.032226562 242.404418635 425.032226562 250.03125 425.032226562 c 0,2,3
 343.166992188 425.032226562 343.166992188 425.032226562 409.099609375 359.099609375 c 128,-1,4
 474.852539062 293.212351353 474.852539062 293.212351353 474.852539062 200.111328125 c 0,5,6
 474.852539062 109.056903282 474.852539062 109.056903282 411.4375 43.6015625 c 0,7,8
 410.363704819 42.1644860693 410.363704819 42.1644860693 409.099609375 40.900390625 c 0,9,10
 401.7734375 33.57421875 401.7734375 33.57421875 391.41796875 33.57421875 c 128,-1,11
 381.0703125 33.57421875 381.0703125 33.57421875 373.744140625 40.900390625 c 128,-1,12
 366.41796875 48.2265625 366.41796875 48.2265625 366.41796875 58.58203125 c 128,-1,13
 366.41796875 68.9296875 366.41796875 68.9296875 373.744140625 76.255859375 c 0,14,15
 425.025390625 127.537109375 425.025390625 127.537109375 425.025390625 200.024414062 c 128,-1,16
 425.025390625 272.462890625 425.025390625 272.462890625 373.744140625 323.744140625 c 128,-1,17
 322.462890625 375.025390625 322.462890625 375.025390625 249.975585938 375.025390625 c 128,-1,18
 177.537109375 375.025390625 177.537109375 375.025390625 126.255859375 323.744140625 c 128,-1,19
 74.974609375 272.462890625 74.974609375 272.462890625 74.974609375 199.975585938 c 128,-1,20
 74.974609375 127.537109375 74.974609375 127.537109375 126.255859375 76.255859375 c 0,21,22
 133.58203125 68.9296875 133.58203125 68.9296875 133.58203125 58.57421875 c 128,-1,23
 133.58203125 48.2265625 133.58203125 48.2265625 126.255859375 40.900390625 c 128,-1,24
 118.9296875 33.57421875 118.9296875 33.57421875 108.57421875 33.57421875 c 128,-1,25
 98.2265625 33.57421875 98.2265625 33.57421875 90.900390625 40.900390625 c 1,26,-1
 90.90234375 40.90234375 l 0,27,28
 90.4657047857 41.3375223833 90.4657047857 41.3375223833 90.0546875 41.7890625 c 2,29,-1
 90.044921875 41.8046875 l 1,30,31
 24.9912109375 107.582042564 24.9912109375 107.582042564 24.9912109375 200.052734375 c 0,32,33
 24.9912109375 293.171086597 24.9912109375 293.171086597 90.90234375 359.099609375 c 0,34,35
 150.242832829 418.440098454 150.242832829 418.440098454 233.94921875 424.427734375 c 0,0,1
EndSplineSet
EndChar

StartChar: r
Encoding: 114 114 14
Width: 500
Flags: W
LayerCount: 2
Fore
SplineSet
234.634765625 424.453125 m 0,0,1
 241.321876469 424.845703125 241.321876469 424.845703125 247.635742188 424.845703125 c 0,2,3
 254.959279186 424.845703125 254.959279186 424.845703125 262.255859375 424.376953125 c 0,4,-1
 262.512695312 424.376953125 l 0,5,6
 263.354003906 424.376953125 263.354003906 424.376953125 264.193359375 424.37109375 c 0,7,8
 279.674450873 423.363002436 279.674450873 423.363002436 294.861328125 420.2421875 c 2,9,-1
 294.861328125 420.2421875 l 0,10,-1
 295.583984375 420.13671875 l 1,11,12
 359.508091582 406.863904584 359.508091582 406.863904584 406.3984375 361.4375 c 0,13,14
 406.991315938 360.954030551 406.991315938 360.954030551 407.53515625 360.453125 c 0,15,16
 408.345196719 359.808873783 408.345196719 359.808873783 409.099609375 359.099609375 c 2,17,-1
 409.099609375 359.09765625 l 1,18,-1
 409.1171875 359.078125 l 1,19,20
 475.030273438 293.149229913 475.030273438 293.149229913 475.030273438 199.966796875 c 128,-1,21
 475.030273438 106.832635607 475.030273438 106.832635607 409.099609375 40.900390625 c 1,22,-1
 409.056640625 40.86328125 l 0,23,24
 408.651150414 40.4563632563 408.651150414 40.4563632563 408.2109375 40.0546875 c 2,25,-1
 408.1953125 40.044921875 l 0,26,27
 404.161201789 36.4142222351 404.161201789 36.4142222351 399.958984375 32.984375 c 0,28,29
 392.51302165 25.9905667207 392.51302165 25.9905667207 384.482421875 19.712890625 c 0,30,31
 377.219443645 14.6160637971 377.219443645 14.6160637971 369.57421875 10.10546875 c 0,32,33
 363.834354051 6.20177505412 363.834354051 6.20177505412 357.861328125 2.65625 c 0,34,35
 347.926770596 -2.52693311111 347.926770596 -2.52693311111 337.53515625 -6.6953125 c 0,36,37
 333.345830993 -8.69163763106 333.345830993 -8.69163763106 329.099609375 -10.50390625 c 0,38,39
 317.072792236 -14.8495684054 317.072792236 -14.8495684054 304.6328125 -17.8046875 c 0,40,41
 301.698067889 -18.6977414299 301.698067889 -18.6977414299 298.765625 -19.50390625 c 0,42,43
 284.973985187 -22.4606366116 284.973985187 -22.4606366116 270.921875 -23.671875 c 0,44,45
 269.213245948 -23.9261961763 269.213245948 -23.9261961763 267.48046875 -24.15625 c 0,46,47
 259.157786271 -24.76953125 259.157786271 -24.76953125 251.126953125 -24.76953125 c 0,48,49
 244.435679041 -24.76953125 244.435679041 -24.76953125 237.744140625 -24.376953125 c 0,50,-1
 237.487304688 -24.376953125 l 0,51,52
 236.645996094 -24.376953125 236.645996094 -24.376953125 235.806640625 -24.37109375 c 0,53,54
 220.325549127 -23.3630024363 220.325549127 -23.3630024363 205.138671875 -20.2421875 c 2,55,-1
 205.138671875 -20.2421875 l 0,56,-1
 204.416015625 -20.13671875 l 1,57,58
 140.491908418 -6.86390458402 140.491908418 -6.86390458402 93.6015625 38.5625 c 0,59,60
 93.0086840623 39.0459694492 93.0086840623 39.0459694492 92.46484375 39.546875 c 0,61,62
 91.6548032806 40.1911262172 91.6548032806 40.1911262172 90.900390625 40.900390625 c 2,63,-1
 90.900390625 40.90234375 l 1,64,-1
 90.89453125 40.908203125 l 1,65,66
 24.96875 106.838727123 24.96875 106.838727123 24.96875 200.032226562 c 128,-1,67
 24.96875 293.16796875 24.96875 293.16796875 90.900390625 359.099609375 c 1,68,-1
 90.943359375 359.13671875 l 0,69,70
 91.3488495862 359.543636744 91.3488495862 359.543636744 91.7890625 359.9453125 c 2,71,-1
 91.8046875 359.955078125 l 0,72,73
 95.838798211 363.585777765 95.838798211 363.585777765 100.041015625 367.015625 c 0,74,75
 107.48697835 374.009433279 107.48697835 374.009433279 115.517578125 380.287109375 c 0,76,77
 122.780556355 385.383936203 122.780556355 385.383936203 130.42578125 389.89453125 c 0,78,79
 136.165645949 393.798224946 136.165645949 393.798224946 142.138671875 397.34375 c 0,80,81
 152.073229404 402.526933111 152.073229404 402.526933111 162.46484375 406.6953125 c 0,82,83
 166.654169007 408.691637631 166.654169007 408.691637631 170.900390625 410.50390625 c 0,84,85
 182.927207764 414.849568405 182.927207764 414.849568405 195.3671875 417.8046875 c 0,86,87
 198.301932111 418.69774143 198.301932111 418.69774143 201.234375 419.50390625 c 0,88,89
 215.026014813 422.460636612 215.026014813 422.460636612 229.078125 423.671875 c 0,90,91
 230.786754052 423.926196176 230.786754052 423.926196176 232.51953125 424.15625 c 0,92,93
 233.615404946 424.314763024 233.615404946 424.314763024 234.634765625 424.453125 c 0,0,1
250 375 m 0,94,95
 193.138895157 375 193.138895157 375 147.13671875 341.578125 c 0,96,97
 135.993487094 333.481768344 135.993487094 333.481768344 126.255859375 323.744140625 c 0,98,99
 74.974609375 272.462890625 74.974609375 272.462890625 74.974609375 199.975585938 c 128,-1,100
 74.974609375 127.537109375 74.974609375 127.537109375 126.255859375 76.255859375 c 128,-1,101
 177.517578125 24.994140625 177.517578125 24.994140625 249.830078125 24.994140625 c 0,102,103
 263.742450421 24.994140625 263.742450421 24.994140625 277.376953125 27.154296875 c 0,104,105
 333.53771536 36.04943411 333.53771536 36.04943411 373.744140625 76.255859375 c 0,106,107
 425.025390625 127.537109375 425.025390625 127.537109375 425.025390625 200.024414062 c 128,-1,108
 425.025390625 272.462890625 425.025390625 272.462890625 373.744140625 323.744140625 c 128,-1,109
 322.48828125 375 322.48828125 375 250 375 c 0,94,95
EndSplineSet
EndChar

StartChar: s
Encoding: 115 115 15
Width: 500
Flags: W
LayerCount: 2
Fore
SplineSet
250 425 m 0,0,1
 260 425 260 425 267.5 417.5 c 128,-1,2
 275 410 275 410 275 400 c 128,-1,3
 275 390 275 390 267.5 382.5 c 128,-1,4
 260 375 260 375 250 375 c 0,5,6
 178 375 178 375 126.5 323.5 c 128,-1,7
 75 272 75 272 75 200 c 128,-1,8
 75 128 75 128 126.5 76.5 c 128,-1,9
 178 25 178 25 250 25 c 128,-1,10
 322 25 322 25 373.5 76.5 c 128,-1,11
 425 128 425 128 425 200 c 0,12,13
 425 210 425 210 432.5 217.5 c 128,-1,14
 440 225 440 225 450 225 c 128,-1,15
 460 225 460 225 467.5 217.5 c 128,-1,16
 475 210 475 210 475 200 c 0,17,-1
 475 200.000976562 l 0,18,19
 475 199.384277344 475 199.384277344 474.970703125 198.7734375 c 2,20,-1
 474.96875 198.755859375 l 1,21,22
 474.455907295 106.037561462 474.455907295 106.037561462 408.619054958 40.5246384244 c 128,-1,23
 342.782202622 -24.9882846132 342.782202622 -24.9882846132 250 -25 c 0,24,25
 157 -25 157 -25 91 41 c 128,-1,26
 25 107 25 107 25 200 c 0,27,28
 25.092945445 292.076002609 25.092945445 292.076002609 89.8164879247 357.682576554 c 128,-1,29
 154.540030404 423.289150498 154.540030404 423.289150498 246.4375 424.744140625 c 0,30,31
 248.21224711 425 248.21224711 425 250 425 c 0,0,1
EndSplineSet
EndChar

StartChar: g
Encoding: 103 103 16
Width: 500
Flags: W
LayerCount: 2
Fore
SplineSet
250 425 m 0,0,-1
 249.999023438 425 l 0,1,2
 250.615722656 425 250.615722656 425 251.2265625 424.970703125 c 2,3,-1
 251.244140625 424.96875 l 1,4,5
 343.962438538 424.455907295 343.962438538 424.455907295 409.475361576 358.619054958 c 128,-1,6
 474.988284613 292.782202622 474.988284613 292.782202622 475 200 c 0,7,8
 475 107 475 107 409 41 c 128,-1,9
 343 -25 343 -25 250 -25 c 0,10,11
 157.923997391 -24.907054555 157.923997391 -24.907054555 92.3174234462 39.8164879247 c 128,-1,12
 26.7108495016 104.540030404 26.7108495016 104.540030404 25.255859375 196.4375 c 0,13,14
 25 198.21224711 25 198.21224711 25 200 c 0,15,16
 25 210 25 210 32.5 217.5 c 128,-1,17
 40 225 40 225 50 225 c 128,-1,18
 60 225 60 225 67.5 217.5 c 128,-1,19
 75 210 75 210 75 200 c 0,20,21
 75 128 75 128 126.5 76.5 c 128,-1,22
 178 25 178 25 250 25 c 128,-1,23
 322 25 322 25 373.5 76.5 c 128,-1,24
 425 128 425 128 425 200 c 128,-1,25
 425 272 425 272 373.5 323.5 c 128,-1,26
 322 375 322 375 250 375 c 0,27,28
 240 375 240 375 232.5 382.5 c 128,-1,29
 225 390 225 390 225 400 c 128,-1,30
 225 410 225 410 232.5 417.5 c 128,-1,31
 240 425 240 425 250 425 c 0,0,-1
104.66796875 366.11328125 m 0,32,33
 106.634460449 366.424804688 106.634460449 366.424804688 108.58203125 366.424804688 c 0,34,35
 118.929082971 366.424804688 118.929082971 366.424804688 126.255859375 359.099609375 c 2,36,-1
 409.099609375 76.255859375 l 1,37,38
 416.42578125 68.9296875 416.42578125 68.9296875 416.42578125 58.57421875 c 128,-1,39
 416.42578125 48.2265625 416.42578125 48.2265625 409.099609375 40.900390625 c 128,-1,40
 401.7734375 33.57421875 401.7734375 33.57421875 391.41796875 33.57421875 c 128,-1,41
 381.0703125 33.57421875 381.0703125 33.57421875 373.744140625 40.900390625 c 2,42,-1
 90.900390625 323.744140625 l 1,43,44
 83.57421875 331.0703125 83.57421875 331.0703125 83.57421875 341.42578125 c 128,-1,45
 83.57421875 351.7734375 83.57421875 351.7734375 90.900390625 359.099609375 c 0,46,47
 96.6460379679 364.843718392 96.6460379679 364.843718392 104.66796875 366.11328125 c 0,32,33
EndSplineSet
EndChar

StartChar: asciitilde
Encoding: 126 126 17
Width: 500
Flags: W
LayerCount: 2
Fore
SplineSet
108.578125 366.421875 m 0,0,1
 109.352926493 366.293952802 109.352926493 366.293952802 110.130859375 366.11328125 c 0,2,3
 113.244214086 365.889038694 113.244214086 365.889038694 116.21484375 364.90234375 c 0,4,5
 117.551377299 364.549931731 117.551377299 364.549931731 118.8515625 364.046875 c 0,6,7
 123.003937187 362.241749519 123.003937187 362.241749519 126.255859375 359.099609375 c 2,8,-1
 390.123046875 95.232421875 l 1,9,10
 424.995117188 141.869428636 424.995117188 141.869428636 424.995117188 200.053710938 c 0,11,12
 424.995117188 272.467869771 424.995117188 272.467869771 373.744140625 323.744140625 c 0,13,14
 366.41796875 331.0703125 366.41796875 331.0703125 366.41796875 341.42578125 c 128,-1,15
 366.41796875 351.7734375 366.41796875 351.7734375 373.744140625 359.099609375 c 128,-1,16
 381.06640625 366.421875 381.06640625 366.421875 391.421875 366.421875 c 128,-1,17
 401.77734375 366.421875 401.77734375 366.421875 409.099609375 359.099609375 c 1,18,-1
 409.09765625 359.09765625 l 0,19,20
 409.534295214 358.662477617 409.534295214 358.662477617 409.9453125 358.2109375 c 2,21,-1
 409.955078125 358.1953125 l 0,22,23
 413.623081314 354.485215092 413.623081314 354.485215092 417.12890625 350.591796875 c 0,24,25
 417.870942365 349.741285142 417.870942365 349.741285142 418.49609375 349.01171875 c 0,26,27
 421.262127285 345.901578343 421.262127285 345.901578343 423.880859375 342.73046875 c 0,28,29
 425.291161443 340.97490601 425.291161443 340.97490601 426.65625 339.205078125 c 0,30,31
 428.532617335 336.857031373 428.532617335 336.857031373 430.294921875 334.529296875 c 0,32,33
 432.260973094 331.855643019 432.260973094 331.855643019 434.134765625 329.14453125 c 0,34,35
 435.258263858 327.577665928 435.258263858 327.577665928 436.28515625 326.09375 c 0,36,37
 438.717213019 322.47360262 438.717213019 322.47360262 440.986328125 318.798828125 c 0,38,39
 441.493144272 318.006826042 441.493144272 318.006826042 441.890625 317.375 c 0,40,41
 444.601751989 312.937808432 444.601751989 312.937808432 447.095703125 308.3984375 c 0,42,43
 474.852539062 257.813117635 474.852539062 257.813117635 474.852539062 200.112304688 c 0,44,45
 474.852539062 109.056903282 474.852539062 109.056903282 411.4375 43.6015625 c 2,46,-1
 411.283203125 43.423828125 l 0,47,48
 410.299248842 42.1215356911 410.299248842 42.1215356911 409.140625 40.9453125 c 2,49,-1
 409.119140625 40.921875 l 1,50,-1
 409.115234375 40.91796875 l 1,51,-1
 409.09765625 40.900390625 l 1,52,-1
 409.091796875 40.89453125 l 1,53,-1
 409.087890625 40.892578125 l 0,54,55
 405.834578014 37.7520628487 405.834578014 37.7520628487 401.685546875 35.94921875 c 0,56,57
 400.399813257 35.4531013747 400.399813257 35.4531013747 399.07421875 35.1015625 c 0,58,59
 396.094999957 34.1094916607 396.094999957 34.1094916607 392.958984375 33.884765625 c 0,60,61
 392.191909328 33.8369140625 392.191909328 33.8369140625 391.438476562 33.8369140625 c 128,-1,62
 390.651855469 33.8364257812 390.651855469 33.8364257812 389.876953125 33.884765625 c 0,63,64
 386.743777869 34.1094959187 386.743777869 34.1094959187 383.767578125 35.1015625 c 0,65,66
 382.430067683 35.4569539183 382.430067683 35.4569539183 381.150390625 35.953125 c 0,67,68
 376.998360805 37.7574638847 376.998360805 37.7574638847 373.744140625 40.900390625 c 2,69,-1
 109.96875 304.67578125 l 1,70,71
 75.0966796875 258.038774489 75.0966796875 258.038774489 75.0966796875 199.853515625 c 0,72,73
 75.0966796875 127.514625897 75.0966796875 127.514625897 126.255859375 76.255859375 c 0,74,75
 133.58203125 68.9296875 133.58203125 68.9296875 133.58203125 58.57421875 c 128,-1,76
 133.58203125 48.2265625 133.58203125 48.2265625 126.255859375 40.900390625 c 128,-1,77
 118.9296875 33.57421875 118.9296875 33.57421875 108.57421875 33.57421875 c 128,-1,78
 98.2265625 33.57421875 98.2265625 33.57421875 90.900390625 40.900390625 c 1,79,-1
 90.90234375 40.90234375 l 1,80,-1
 90.86328125 40.943359375 l 0,81,82
 86.8084498417 45.3789670661 86.8084498417 45.3789670661 82.984375 50.041015625 c 0,83,84
 75.9905667207 57.4869783499 75.9905667207 57.4869783499 69.712890625 65.517578125 c 0,85,86
 64.6160637971 72.7805563548 64.6160637971 72.7805563548 60.10546875 80.42578125 c 0,87,88
 56.2017750541 86.1656459491 56.2017750541 86.1656459491 52.65625 92.138671875 c 0,89,90
 47.4730668889 102.073229404 47.4730668889 102.073229404 43.3046875 112.46484375 c 0,91,92
 41.3083623689 116.654169007 41.3083623689 116.654169007 39.49609375 120.900390625 c 0,93,94
 35.1504315946 132.927207764 35.1504315946 132.927207764 32.1953125 145.3671875 c 0,95,96
 31.3022585701 148.301932111 31.3022585701 148.301932111 30.49609375 151.234375 c 0,97,98
 27.5393633884 165.026014813 27.5393633884 165.026014813 26.328125 179.078125 c 0,99,100
 26.0738038237 180.786754052 26.0738038237 180.786754052 25.84375 182.51953125 c 0,101,102
 25.23046875 190.842213729 25.23046875 190.842213729 25.23046875 198.873046875 c 0,103,104
 25.23046875 205.564320959 25.23046875 205.564320959 25.623046875 212.255859375 c 0,105,-1
 25.623046875 212.512695312 l 0,106,107
 25.623046875 213.354003906 25.623046875 213.354003906 25.62890625 214.193359375 c 0,108,109
 26.6369975637 229.674450873 26.6369975637 229.674450873 29.7578125 244.861328125 c 2,110,-1
 29.7578125 244.861328125 l 0,111,-1
 29.86328125 245.583984375 l 1,112,113
 43.136095416 309.508091582 43.136095416 309.508091582 88.5625 356.3984375 c 0,114,115
 89.0459694492 356.991315938 89.0459694492 356.991315938 89.546875 357.53515625 c 128,-1,116
 90.1605623753 358.25045635 90.1605623753 358.25045635 90.890625 359.0859375 c 2,117,-1
 90.900390625 359.099609375 l 1,118,-1
 90.90234375 359.099609375 l 1,119,-1
 90.908203125 359.10546875 l 1,120,-1
 90.912109375 359.107421875 l 0,121,122
 94.1638384371 362.246357049 94.1638384371 362.246357049 98.310546875 364.048828125 c 0,123,124
 99.6012714283 364.548463436 99.6012714283 364.548463436 100.9375 364.90234375 c 0,125,126
 103.905369602 365.888626657 103.905369602 365.888626657 107.02734375 366.11328125 c 0,127,128
 107.801340365 366.293384309 107.801340365 366.293384309 108.578125 366.421875 c 0,0,1
EndSplineSet
EndChar

StartChar: j
Encoding: 106 106 18
Width: 500
Flags: W
LayerCount: 2
Fore
SplineSet
250 425 m 0,0,1
 260 425 260 425 267.5 417.5 c 128,-1,2
 275 410 275 410 275 400 c 128,-1,3
 275 390 275 390 267.5 382.5 c 128,-1,4
 260 375 260 375 250 375 c 0,5,6
 178 375 178 375 126.5 323.5 c 128,-1,7
 75 272 75 272 75 200 c 128,-1,8
 75 128 75 128 126.5 76.5 c 128,-1,9
 178 25 178 25 250 25 c 128,-1,10
 322 25 322 25 373.5 76.5 c 128,-1,11
 425 128 425 128 425 200 c 0,12,13
 425 210 425 210 432.5 217.5 c 128,-1,14
 440 225 440 225 450 225 c 128,-1,15
 460 225 460 225 467.5 217.5 c 128,-1,16
 475 210 475 210 475 200 c 0,17,-1
 475 200.000976562 l 0,18,19
 475 199.384277344 475 199.384277344 474.970703125 198.7734375 c 2,20,-1
 474.96875 198.755859375 l 1,21,22
 474.455907295 106.037561462 474.455907295 106.037561462 408.619054958 40.5246384244 c 128,-1,23
 342.782202622 -24.9882846132 342.782202622 -24.9882846132 250 -25 c 0,24,25
 157 -25 157 -25 91 41 c 128,-1,26
 25 107 25 107 25 200 c 0,27,28
 25.092945445 292.076002609 25.092945445 292.076002609 89.8164879247 357.682576554 c 128,-1,29
 154.540030404 423.289150498 154.540030404 423.289150498 246.4375 424.744140625 c 0,30,31
 248.21224711 425 248.21224711 425 250 425 c 0,0,1
104.66796875 366.11328125 m 0,32,33
 106.634460449 366.424804688 106.634460449 366.424804688 108.58203125 366.424804688 c 0,34,35
 118.929082971 366.424804688 118.929082971 366.424804688 126.255859375 359.099609375 c 2,36,-1
 409.099609375 76.255859375 l 1,37,38
 416.42578125 68.9296875 416.42578125 68.9296875 416.42578125 58.57421875 c 128,-1,39
 416.42578125 48.2265625 416.42578125 48.2265625 409.099609375 40.900390625 c 128,-1,40
 401.7734375 33.57421875 401.7734375 33.57421875 391.41796875 33.57421875 c 128,-1,41
 381.0703125 33.57421875 381.0703125 33.57421875 373.744140625 40.900390625 c 2,42,-1
 90.900390625 323.744140625 l 1,43,44
 83.57421875 331.0703125 83.57421875 331.0703125 83.57421875 341.42578125 c 128,-1,45
 83.57421875 351.7734375 83.57421875 351.7734375 90.900390625 359.099609375 c 0,46,47
 96.6460379679 364.843718392 96.6460379679 364.843718392 104.66796875 366.11328125 c 0,32,33
250 325 m 128,-1,49
 302 325 302 325 338.5 288.5 c 128,-1,50
 375 252 375 252 375 200 c 128,-1,51
 375 148 375 148 338.5 111.5 c 128,-1,52
 302 75 302 75 250 75 c 128,-1,53
 198 75 198 75 161.5 111.5 c 128,-1,54
 125 148 125 148 125 200 c 128,-1,55
 125 252 125 252 161.5 288.5 c 128,-1,48
 198 325 198 325 250 325 c 128,-1,49
250 275 m 128,-1,57
 219 275 219 275 197 253 c 128,-1,58
 175 231 175 231 175 200 c 128,-1,59
 175 169 175 169 197 147 c 128,-1,60
 219 125 219 125 250 125 c 128,-1,61
 281 125 281 125 303 147 c 128,-1,62
 325 169 325 169 325 200 c 128,-1,63
 325 231 325 231 303 253 c 128,-1,56
 281 275 281 275 250 275 c 128,-1,57
EndSplineSet
EndChar

StartChar: c
Encoding: 99 99 19
Width: 500
Flags: W
LayerCount: 2
Fore
SplineSet
234.634765625 424.453125 m 0,0,1
 242.778139067 425.010742188 242.778139067 425.010742188 250.05078125 425.010742188 c 0,2,3
 343.170714288 425.010742188 343.170714288 425.010742188 409.099609375 359.09765625 c 128,-1,4
 475.03125 293.166015625 475.03125 293.166015625 475.03125 199.967773438 c 128,-1,5
 475.03125 106.83203125 475.03125 106.83203125 409.099609375 40.900390625 c 128,-1,6
 343.212351353 -24.8525390625 343.212351353 -24.8525390625 250.111328125 -24.8525390625 c 0,7,8
 159.056903282 -24.8525390625 159.056903282 -24.8525390625 93.6015625 38.5625 c 0,9,10
 92.1644860693 39.6362951807 92.1644860693 39.6362951807 90.900390625 40.900390625 c 0,11,12
 83.57421875 48.2265625 83.57421875 48.2265625 83.57421875 58.58203125 c 128,-1,13
 83.57421875 68.9296875 83.57421875 68.9296875 90.900390625 76.255859375 c 128,-1,14
 98.2265625 83.58203125 98.2265625 83.58203125 108.58203125 83.58203125 c 128,-1,15
 118.9296875 83.58203125 118.9296875 83.58203125 126.255859375 76.255859375 c 0,16,17
 177.537109375 24.974609375 177.537109375 24.974609375 250.024414062 24.974609375 c 128,-1,18
 322.462890625 24.974609375 322.462890625 24.974609375 373.744140625 76.255859375 c 128,-1,19
 425.025390625 127.537109375 425.025390625 127.537109375 425.025390625 200.024414062 c 128,-1,20
 425.025390625 272.462890625 425.025390625 272.462890625 373.744140625 323.744140625 c 128,-1,21
 322.462890625 375.025390625 322.462890625 375.025390625 249.975585938 375.025390625 c 128,-1,22
 177.537109375 375.025390625 177.537109375 375.025390625 126.255859375 323.744140625 c 0,23,24
 118.9296875 316.41796875 118.9296875 316.41796875 108.57421875 316.41796875 c 128,-1,25
 98.2265625 316.41796875 98.2265625 316.41796875 90.900390625 323.744140625 c 128,-1,26
 83.57421875 331.0703125 83.57421875 331.0703125 83.57421875 341.42578125 c 128,-1,27
 83.57421875 351.7734375 83.57421875 351.7734375 90.900390625 359.099609375 c 1,28,-1
 90.90234375 359.09765625 l 0,29,30
 91.3375223833 359.534295214 91.3375223833 359.534295214 91.7890625 359.9453125 c 2,31,-1
 91.8046875 359.955078125 l 1,32,33
 151.23963867 418.736280718 151.23963867 418.736280718 234.634765625 424.453125 c 0,0,1
104.66796875 366.11328125 m 0,34,35
 106.634460449 366.424804688 106.634460449 366.424804688 108.58203125 366.424804688 c 0,36,37
 118.929082971 366.424804688 118.929082971 366.424804688 126.255859375 359.099609375 c 2,38,-1
 409.099609375 76.255859375 l 1,39,40
 416.42578125 68.9296875 416.42578125 68.9296875 416.42578125 58.57421875 c 128,-1,41
 416.42578125 48.2265625 416.42578125 48.2265625 409.099609375 40.900390625 c 128,-1,42
 401.7734375 33.57421875 401.7734375 33.57421875 391.41796875 33.57421875 c 128,-1,43
 381.0703125 33.57421875 381.0703125 33.57421875 373.744140625 40.900390625 c 2,44,-1
 90.900390625 323.744140625 l 1,45,46
 83.57421875 331.0703125 83.57421875 331.0703125 83.57421875 341.42578125 c 128,-1,47
 83.57421875 351.7734375 83.57421875 351.7734375 90.900390625 359.099609375 c 0,48,49
 96.6460379679 364.843718392 96.6460379679 364.843718392 104.66796875 366.11328125 c 0,34,35
EndSplineSet
EndChar

StartChar: w
Encoding: 119 119 20
Width: 0
GlyphClass: 4
Flags: W
LayerCount: 2
Fore
SplineSet
-200 25 m 128,-1,1
 -190 25 -190 25 -182.5 17.5 c 128,-1,2
 -175 10 -175 10 -175 0 c 0,3,4
 -175 -72 -175 -72 -123.5 -123.5 c 128,-1,5
 -72 -175 -72 -175 0 -175 c 0,6,7
 13.7715689433 -175 13.7715689433 -175 27.376953125 -172.845703125 c 0,8,9
 90.4779758174 -162.851006399 90.4779758174 -162.851006399 132.738987909 -113.899300889 c 128,-1,10
 175 -64.9475953798 175 -64.9475953798 175 0 c 0,11,12
 175 10 175 10 182.5 17.5 c 128,-1,13
 190 25 190 25 200 25 c 0,14,15
 209.374241769 25 209.374241769 25 216.403149679 18.8485589774 c 128,-1,16
 223.43205759 12.6971179549 223.43205759 12.6971179549 224.74609375 3.55859375 c 0,17,18
 224.883262136 1.83338312777 224.883262136 1.83338312777 225 0 c 0,19,20
 224.729467272 -6.13111069225 224.729467272 -6.13111069225 224.123046875 -12.248046875 c 0,21,22
 223.805224842 -22.5454807336 223.805224842 -22.5454807336 222.548828125 -32.759765625 c 0,23,24
 221.500868424 -38.2173984503 221.500868424 -38.2173984503 220.189453125 -43.603515625 c 0,25,26
 218.390007521 -53.9411619687 218.390007521 -53.9411619687 215.638671875 -64.05859375 c 0,27,28
 213.934342745 -68.9734033331 213.934342745 -68.9734033331 211.9921875 -73.833984375 c 0,29,30
 208.661433774 -84.1172822869 208.661433774 -84.1172822869 204.361328125 -94.03125 c 0,31,32
 201.996196052 -98.6062794717 201.996196052 -98.6062794717 199.421875 -103.07421875 c 0,33,34
 194.640430872 -112.840603862 194.640430872 -112.840603862 188.94140625 -122.09765625 c 0,35,36
 185.983115804 -126.242184643 185.983115804 -126.242184643 182.85546875 -130.228515625 c 0,37,38
 176.705052427 -139.273673563 176.705052427 -139.273673563 169.69140625 -147.6953125 c 0,39,40
 166.183972029 -151.365612654 166.183972029 -151.365612654 162.513671875 -154.873046875 c 0,41,42
 155.136604757 -162.960595294 155.136604757 -162.960595294 147.01953125 -170.28515625 c 0,43,44
 142.775676566 -173.623985604 142.775676566 -173.623985604 138.365234375 -176.763671875 c 0,45,46
 130.156895885 -183.504826487 130.156895885 -183.504826487 121.35546875 -189.439453125 c 0,47,48
 116.765477768 -192.087524845 116.765477768 -192.087524845 112.06640625 -194.51171875 c 0,49,50
 102.895519723 -200.081333186 102.895519723 -200.081333186 93.220703125 -204.759765625 c 0,51,52
 88.6088703749 -206.597419481 88.6088703749 -206.597419481 83.89453125 -208.23828125 c 0,53,54
 73.7566286451 -212.584155021 73.7566286451 -212.584155021 63.216796875 -215.923828125 c 0,55,56
 56.8816085103 -217.495772665 56.8816085103 -217.495772665 50.46875 -218.697265625 c 0,57,58
 41.3054625887 -221.093293397 41.3054625887 -221.093293397 31.943359375 -222.71484375 c 0,59,60
 16.0500805648 -224.997129814 16.0500805648 -224.997129814 0 -225 c 0,61,62
 -92.0760026092 -224.907054555 -92.0760026092 -224.907054555 -157.682576554 -160.183512075 c 128,-1,63
 -223.289150498 -95.4599695955 -223.289150498 -95.4599695955 -224.744140625 -3.5625 c 0,64,65
 -225 -1.78775289017 -225 -1.78775289017 -225 0 c 0,66,67
 -225 10 -225 10 -217.5 17.5 c 128,-1,0
 -210 25 -210 25 -200 25 c 128,-1,1
EndSplineSet
EndChar

StartChar: n
Encoding: 110 110 21
Width: 500
Flags: W
LayerCount: 2
Fore
SplineSet
250 425 m 0,0,1
 342.076002609 424.907054555 342.076002609 424.907054555 407.682576554 360.183512075 c 128,-1,2
 473.289150498 295.459969596 473.289150498 295.459969596 474.744140625 203.5625 c 0,3,4
 475 201.78775289 475 201.78775289 475 200 c 0,5,6
 475 190 475 190 467.5 182.5 c 128,-1,7
 460 175 460 175 450 175 c 128,-1,8
 440 175 440 175 432.5 182.5 c 128,-1,9
 425 190 425 190 425 200 c 0,10,11
 425 272 425 272 373.5 323.5 c 128,-1,12
 322 375 322 375 250 375 c 128,-1,13
 178 375 178 375 126.5 323.5 c 128,-1,14
 75 272 75 272 75 200 c 128,-1,15
 75 128 75 128 126.5 76.5 c 128,-1,16
 178 25 178 25 250 25 c 0,17,18
 260 25 260 25 267.5 17.5 c 128,-1,19
 275 10 275 10 275 0 c 128,-1,20
 275 -10 275 -10 267.5 -17.5 c 128,-1,21
 260 -25 260 -25 250 -25 c 0,22,-1
 250.000976562 -25 l 0,23,24
 249.384277344 -25 249.384277344 -25 248.7734375 -24.970703125 c 2,25,-1
 248.755859375 -24.96875 l 1,26,27
 156.037561462 -24.4559072949 156.037561462 -24.4559072949 90.5246384244 41.3809450415 c 128,-1,28
 25.0117153868 107.217797378 25.0117153868 107.217797378 25 200 c 0,29,30
 25 293 25 293 91 359 c 128,-1,31
 157 425 157 425 250 425 c 0,0,1
104.66796875 366.11328125 m 0,32,33
 106.634460449 366.424804688 106.634460449 366.424804688 108.58203125 366.424804688 c 0,34,35
 118.929082971 366.424804688 118.929082971 366.424804688 126.255859375 359.099609375 c 2,36,-1
 409.099609375 76.255859375 l 1,37,38
 416.42578125 68.9296875 416.42578125 68.9296875 416.42578125 58.57421875 c 128,-1,39
 416.42578125 48.2265625 416.42578125 48.2265625 409.099609375 40.900390625 c 128,-1,40
 401.7734375 33.57421875 401.7734375 33.57421875 391.41796875 33.57421875 c 128,-1,41
 381.0703125 33.57421875 381.0703125 33.57421875 373.744140625 40.900390625 c 2,42,-1
 90.900390625 323.744140625 l 1,43,44
 83.57421875 331.0703125 83.57421875 331.0703125 83.57421875 341.42578125 c 128,-1,45
 83.57421875 351.7734375 83.57421875 351.7734375 90.900390625 359.099609375 c 0,46,47
 96.6460379679 364.843718392 96.6460379679 364.843718392 104.66796875 366.11328125 c 0,32,33
EndSplineSet
EndChar

StartChar: z
Encoding: 122 122 22
Width: 500
Flags: W
LayerCount: 2
Fore
SplineSet
250 425 m 0,0,1
 260 425 260 425 267.5 417.5 c 128,-1,2
 275 410 275 410 275 400 c 128,-1,3
 275 390 275 390 267.5 382.5 c 128,-1,4
 260 375 260 375 250 375 c 0,5,6
 178 375 178 375 126.5 323.5 c 128,-1,7
 75 272 75 272 75 200 c 128,-1,8
 75 128 75 128 126.5 76.5 c 128,-1,9
 178 25 178 25 250 25 c 128,-1,10
 322 25 322 25 373.5 76.5 c 128,-1,11
 425 128 425 128 425 200 c 0,12,13
 425 210 425 210 432.5 217.5 c 128,-1,14
 440 225 440 225 450 225 c 128,-1,15
 460 225 460 225 467.5 217.5 c 128,-1,16
 475 210 475 210 475 200 c 0,17,-1
 475 200.000976562 l 0,18,19
 475 199.384277344 475 199.384277344 474.970703125 198.7734375 c 2,20,-1
 474.96875 198.755859375 l 1,21,22
 474.455907295 106.037561462 474.455907295 106.037561462 408.619054958 40.5246384244 c 128,-1,23
 342.782202622 -24.9882846132 342.782202622 -24.9882846132 250 -25 c 0,24,25
 157 -25 157 -25 91 41 c 128,-1,26
 25 107 25 107 25 200 c 0,27,28
 25.092945445 292.076002609 25.092945445 292.076002609 89.8164879247 357.682576554 c 128,-1,29
 154.540030404 423.289150498 154.540030404 423.289150498 246.4375 424.744140625 c 0,30,31
 248.21224711 425 248.21224711 425 250 425 c 0,0,1
104.66796875 366.11328125 m 0,32,33
 106.634460449 366.424804688 106.634460449 366.424804688 108.58203125 366.424804688 c 0,34,35
 118.929082971 366.424804688 118.929082971 366.424804688 126.255859375 359.099609375 c 2,36,-1
 409.099609375 76.255859375 l 1,37,38
 416.42578125 68.9296875 416.42578125 68.9296875 416.42578125 58.57421875 c 128,-1,39
 416.42578125 48.2265625 416.42578125 48.2265625 409.099609375 40.900390625 c 128,-1,40
 401.7734375 33.57421875 401.7734375 33.57421875 391.41796875 33.57421875 c 128,-1,41
 381.0703125 33.57421875 381.0703125 33.57421875 373.744140625 40.900390625 c 2,42,-1
 90.900390625 323.744140625 l 1,43,44
 83.57421875 331.0703125 83.57421875 331.0703125 83.57421875 341.42578125 c 128,-1,45
 83.57421875 351.7734375 83.57421875 351.7734375 90.900390625 359.099609375 c 0,46,47
 96.6460379679 364.843718392 96.6460379679 364.843718392 104.66796875 366.11328125 c 0,32,33
EndSplineSet
EndChar

StartChar: m
Encoding: 109 109 23
Width: 500
Flags: W
LayerCount: 2
Fore
SplineSet
250 425 m 0,0,1
 342.076002609 424.907054555 342.076002609 424.907054555 407.682576554 360.183512075 c 128,-1,2
 473.289150498 295.459969596 473.289150498 295.459969596 474.744140625 203.5625 c 0,3,4
 475 201.78775289 475 201.78775289 475 200 c 0,5,6
 475 190 475 190 467.5 182.5 c 128,-1,7
 460 175 460 175 450 175 c 128,-1,8
 440 175 440 175 432.5 182.5 c 128,-1,9
 425 190 425 190 425 200 c 0,10,11
 425 272 425 272 373.5 323.5 c 128,-1,12
 322 375 322 375 250 375 c 128,-1,13
 178 375 178 375 126.5 323.5 c 128,-1,14
 75 272 75 272 75 200 c 128,-1,15
 75 128 75 128 126.5 76.5 c 128,-1,16
 178 25 178 25 250 25 c 0,17,18
 260 25 260 25 267.5 17.5 c 128,-1,19
 275 10 275 10 275 0 c 128,-1,20
 275 -10 275 -10 267.5 -17.5 c 128,-1,21
 260 -25 260 -25 250 -25 c 0,22,-1
 250.000976562 -25 l 0,23,24
 249.384277344 -25 249.384277344 -25 248.7734375 -24.970703125 c 2,25,-1
 248.755859375 -24.96875 l 1,26,27
 156.037561462 -24.4559072949 156.037561462 -24.4559072949 90.5246384244 41.3809450415 c 128,-1,28
 25.0117153868 107.217797378 25.0117153868 107.217797378 25 200 c 0,29,30
 25 293 25 293 91 359 c 128,-1,31
 157 425 157 425 250 425 c 0,0,1
EndSplineSet
EndChar

StartChar: v
Encoding: 118 118 24
Width: 500
Flags: W
LayerCount: 2
Fore
SplineSet
233.94921875 424.427734375 m 0,0,1
 242.404418635 425.032226562 242.404418635 425.032226562 250.03125 425.032226562 c 0,2,3
 343.166992188 425.032226562 343.166992188 425.032226562 409.099609375 359.099609375 c 128,-1,4
 474.852539062 293.212351353 474.852539062 293.212351353 474.852539062 200.111328125 c 0,5,6
 474.852539062 109.056903282 474.852539062 109.056903282 411.4375 43.6015625 c 0,7,8
 410.363704819 42.1644860693 410.363704819 42.1644860693 409.099609375 40.900390625 c 0,9,10
 401.7734375 33.57421875 401.7734375 33.57421875 391.41796875 33.57421875 c 128,-1,11
 381.0703125 33.57421875 381.0703125 33.57421875 373.744140625 40.900390625 c 128,-1,12
 366.41796875 48.2265625 366.41796875 48.2265625 366.41796875 58.58203125 c 128,-1,13
 366.41796875 68.9296875 366.41796875 68.9296875 373.744140625 76.255859375 c 0,14,15
 425.025390625 127.537109375 425.025390625 127.537109375 425.025390625 200.024414062 c 128,-1,16
 425.025390625 272.462890625 425.025390625 272.462890625 373.744140625 323.744140625 c 128,-1,17
 322.462890625 375.025390625 322.462890625 375.025390625 249.975585938 375.025390625 c 128,-1,18
 177.537109375 375.025390625 177.537109375 375.025390625 126.255859375 323.744140625 c 128,-1,19
 74.974609375 272.462890625 74.974609375 272.462890625 74.974609375 199.975585938 c 128,-1,20
 74.974609375 127.537109375 74.974609375 127.537109375 126.255859375 76.255859375 c 0,21,22
 133.58203125 68.9296875 133.58203125 68.9296875 133.58203125 58.57421875 c 128,-1,23
 133.58203125 48.2265625 133.58203125 48.2265625 126.255859375 40.900390625 c 128,-1,24
 118.9296875 33.57421875 118.9296875 33.57421875 108.57421875 33.57421875 c 128,-1,25
 98.2265625 33.57421875 98.2265625 33.57421875 90.900390625 40.900390625 c 1,26,-1
 90.90234375 40.90234375 l 0,27,28
 90.4657047857 41.3375223833 90.4657047857 41.3375223833 90.0546875 41.7890625 c 2,29,-1
 90.044921875 41.8046875 l 1,30,31
 24.9912109375 107.582042564 24.9912109375 107.582042564 24.9912109375 200.052734375 c 0,32,33
 24.9912109375 293.171086597 24.9912109375 293.171086597 90.90234375 359.099609375 c 0,34,35
 150.242832829 418.440098454 150.242832829 418.440098454 233.94921875 424.427734375 c 0,0,1
104.66796875 366.11328125 m 0,36,37
 106.634460449 366.424804688 106.634460449 366.424804688 108.58203125 366.424804688 c 0,38,39
 118.929082971 366.424804688 118.929082971 366.424804688 126.255859375 359.099609375 c 2,40,-1
 409.099609375 76.255859375 l 1,41,42
 416.42578125 68.9296875 416.42578125 68.9296875 416.42578125 58.57421875 c 128,-1,43
 416.42578125 48.2265625 416.42578125 48.2265625 409.099609375 40.900390625 c 128,-1,44
 401.7734375 33.57421875 401.7734375 33.57421875 391.41796875 33.57421875 c 128,-1,45
 381.0703125 33.57421875 381.0703125 33.57421875 373.744140625 40.900390625 c 2,46,-1
 90.900390625 323.744140625 l 1,47,48
 83.57421875 331.0703125 83.57421875 331.0703125 83.57421875 341.42578125 c 128,-1,49
 83.57421875 351.7734375 83.57421875 351.7734375 90.900390625 359.099609375 c 0,50,51
 96.6460379679 364.843718392 96.6460379679 364.843718392 104.66796875 366.11328125 c 0,36,37
EndSplineSet
EndChar

StartChar: b
Encoding: 98 98 25
Width: 500
Flags: W
LayerCount: 2
Fore
SplineSet
264.0546875 424.390625 m 0,0,1
 346.8300979 419.149204604 346.8300979 419.149204604 406.3984375 361.4375 c 0,2,3
 407.835513931 360.363704819 407.835513931 360.363704819 409.099609375 359.099609375 c 0,4,5
 416.42578125 351.7734375 416.42578125 351.7734375 416.42578125 341.41796875 c 128,-1,6
 416.42578125 331.0703125 416.42578125 331.0703125 409.099609375 323.744140625 c 128,-1,7
 401.7734375 316.41796875 401.7734375 316.41796875 391.41796875 316.41796875 c 128,-1,8
 381.0703125 316.41796875 381.0703125 316.41796875 373.744140625 323.744140625 c 0,9,10
 322.462890625 375.025390625 322.462890625 375.025390625 249.975585938 375.025390625 c 128,-1,11
 177.537109375 375.025390625 177.537109375 375.025390625 126.255859375 323.744140625 c 128,-1,12
 74.974609375 272.462890625 74.974609375 272.462890625 74.974609375 199.975585938 c 128,-1,13
 74.974609375 127.537109375 74.974609375 127.537109375 126.255859375 76.255859375 c 128,-1,14
 177.537109375 24.974609375 177.537109375 24.974609375 250.024414062 24.974609375 c 128,-1,15
 322.462890625 24.974609375 322.462890625 24.974609375 373.744140625 76.255859375 c 0,16,17
 381.0703125 83.58203125 381.0703125 83.58203125 391.42578125 83.58203125 c 128,-1,18
 401.7734375 83.58203125 401.7734375 83.58203125 409.099609375 76.255859375 c 128,-1,19
 416.42578125 68.9296875 416.42578125 68.9296875 416.42578125 58.57421875 c 128,-1,20
 416.42578125 48.2265625 416.42578125 48.2265625 409.099609375 40.900390625 c 1,21,-1
 409.09765625 40.90234375 l 0,22,23
 408.662477617 40.4657047857 408.662477617 40.4657047857 408.2109375 40.0546875 c 2,24,-1
 408.1953125 40.044921875 l 1,25,26
 342.417957436 -25.0087890625 342.417957436 -25.0087890625 249.947265625 -25.0087890625 c 0,27,28
 156.828913403 -25.0087890625 156.828913403 -25.0087890625 90.900390625 40.90234375 c 128,-1,29
 24.96875 106.833984375 24.96875 106.833984375 24.96875 200.032226562 c 128,-1,30
 24.96875 293.16796875 24.96875 293.16796875 90.900390625 359.099609375 c 128,-1,31
 156.779215385 424.845703125 156.779215385 424.845703125 249.650390625 424.845703125 c 0,32,33
 256.872111398 424.845703125 256.872111398 424.845703125 264.0546875 424.390625 c 0,0,1
104.66796875 366.11328125 m 0,34,35
 106.634460449 366.424804688 106.634460449 366.424804688 108.58203125 366.424804688 c 0,36,37
 118.929082971 366.424804688 118.929082971 366.424804688 126.255859375 359.099609375 c 2,38,-1
 409.099609375 76.255859375 l 1,39,40
 416.42578125 68.9296875 416.42578125 68.9296875 416.42578125 58.57421875 c 128,-1,41
 416.42578125 48.2265625 416.42578125 48.2265625 409.099609375 40.900390625 c 128,-1,42
 401.7734375 33.57421875 401.7734375 33.57421875 391.41796875 33.57421875 c 128,-1,43
 381.0703125 33.57421875 381.0703125 33.57421875 373.744140625 40.900390625 c 2,44,-1
 90.900390625 323.744140625 l 1,45,46
 83.57421875 331.0703125 83.57421875 331.0703125 83.57421875 341.42578125 c 128,-1,47
 83.57421875 351.7734375 83.57421875 351.7734375 90.900390625 359.099609375 c 0,48,49
 96.6460379679 364.843718392 96.6460379679 364.843718392 104.66796875 366.11328125 c 0,34,35
EndSplineSet
EndChar

StartChar: t
Encoding: 116 116 26
Width: 500
Flags: W
LayerCount: 2
Fore
SplineSet
108.578125 366.421875 m 128,-1,1
 118.93359375 366.421875 118.93359375 366.421875 126.255859375 359.099609375 c 128,-1,2
 133.58203125 351.7734375 133.58203125 351.7734375 133.58203125 341.41796875 c 128,-1,3
 133.58203125 331.0703125 133.58203125 331.0703125 126.255859375 323.744140625 c 0,4,5
 74.974609375 272.462890625 74.974609375 272.462890625 74.974609375 199.975585938 c 128,-1,6
 74.974609375 127.537109375 74.974609375 127.537109375 126.255859375 76.255859375 c 128,-1,7
 177.537109375 24.974609375 177.537109375 24.974609375 250.024414062 24.974609375 c 128,-1,8
 322.462890625 24.974609375 322.462890625 24.974609375 373.744140625 76.255859375 c 128,-1,9
 425.025390625 127.537109375 425.025390625 127.537109375 425.025390625 200.024414062 c 128,-1,10
 425.025390625 272.462890625 425.025390625 272.462890625 373.744140625 323.744140625 c 0,11,12
 366.41796875 331.0703125 366.41796875 331.0703125 366.41796875 341.42578125 c 128,-1,13
 366.41796875 351.7734375 366.41796875 351.7734375 373.744140625 359.099609375 c 128,-1,14
 381.0703125 366.42578125 381.0703125 366.42578125 391.42578125 366.42578125 c 128,-1,15
 401.7734375 366.42578125 401.7734375 366.42578125 409.099609375 359.099609375 c 1,16,-1
 409.09765625 359.09765625 l 0,17,18
 409.534295214 358.662477617 409.534295214 358.662477617 409.9453125 358.2109375 c 2,19,-1
 409.955078125 358.1953125 l 1,20,21
 475.008789062 292.417957436 475.008789062 292.417957436 475.008789062 199.947265625 c 0,22,23
 475.008789062 106.828913403 475.008789062 106.828913403 409.09765625 40.900390625 c 128,-1,24
 343.166015625 -25.03125 343.166015625 -25.03125 249.967773438 -25.03125 c 128,-1,25
 156.83203125 -25.03125 156.83203125 -25.03125 90.900390625 40.900390625 c 128,-1,26
 25.1474609375 106.787648647 25.1474609375 106.787648647 25.1474609375 199.888671875 c 0,27,28
 25.1474609375 290.943096718 25.1474609375 290.943096718 88.5625 356.3984375 c 0,29,30
 89.6362951807 357.835513931 89.6362951807 357.835513931 90.900390625 359.099609375 c 0,31,0
 98.22265625 366.421875 98.22265625 366.421875 108.578125 366.421875 c 128,-1,1
EndSplineSet
EndChar

StartChar: grave
Encoding: 96 96 27
Width: 500
Flags: W
LayerCount: 2
Fore
SplineSet
250 425 m 0,0,1
 256.402662434 424.723698932 256.402662434 424.723698932 262.787109375 424.08203125 c 0,2,3
 272.607860542 423.758428976 272.607860542 423.758428976 282.359375 422.580078125 c 0,4,5
 291.343539178 421.015766249 291.343539178 421.015766249 300.1796875 418.7265625 c 0,6,7
 306.745752236 417.469324485 306.745752236 417.469324485 313.259765625 415.814453125 c 0,8,9
 324.149215293 412.404521571 324.149215293 412.404521571 334.640625 407.908203125 c 0,10,11
 338.792285005 406.432613123 338.792285005 406.432613123 342.892578125 404.791015625 c 0,12,13
 354.609406567 399.303646502 354.609406567 399.303646502 365.62109375 392.509765625 c 0,14,15
 368.164679242 391.151540362 368.164679242 391.151540362 370.71875 389.701171875 c 0,16,17
 382.629978152 382.001366821 382.629978152 382.001366821 393.474609375 372.873046875 c 0,18,19
 394.826466277 371.870198781 394.826466277 371.870198781 396.134765625 370.869140625 c 0,20,21
 407.592409082 361.002957875 407.592409082 361.002957875 417.625 349.693359375 c 0,22,23
 418.089829282 349.231105324 418.089829282 349.231105324 418.669921875 348.64453125 c 0,24,25
 428.97875247 336.910415653 428.97875247 336.910415653 437.5703125 323.861328125 c 2,26,-1
 437.884765625 323.439453125 l 1,27,28
 473.708827962 268.849374371 473.708827962 268.849374371 474.744140625 203.5625 c 0,29,30
 475 201.78775289 475 201.78775289 475 200 c 0,31,32
 475 190 475 190 467.5 182.5 c 128,-1,33
 460 175 460 175 450 175 c 128,-1,34
 440 175 440 175 432.5 182.5 c 128,-1,35
 425 190 425 190 425 200 c 0,36,37
 425 204.899181548 425 204.899181548 424.724609375 209.8125 c 0,38,39
 420.980039834 276.506677003 420.980039834 276.506677003 373.744140625 323.744140625 c 0,40,41
 370.275324789 327.212956461 370.275324789 327.212956461 366.611328125 330.48828125 c 0,42,43
 316.802391134 375 316.802391134 375 250 375 c 0,44,45
 240 375 240 375 232.5 382.5 c 128,-1,46
 225 390 225 390 225 400 c 128,-1,47
 225 410 225 410 232.5 417.5 c 128,-1,48
 240 425 240 425 250 425 c 0,0,1
EndSplineSet
EndChar

StartChar: H
Encoding: 72 72 28
Width: 500
Flags: W
LayerCount: 2
Fore
SplineSet
250 425 m 0,0,1
 343 425 343 425 409 359 c 128,-1,2
 475 293 475 293 475 200 c 0,3,4
 474.907054555 107.923997391 474.907054555 107.923997391 410.183512075 42.3174234462 c 128,-1,5
 345.459969596 -23.2891504984 345.459969596 -23.2891504984 253.5625 -24.744140625 c 0,6,7
 251.78775289 -25 251.78775289 -25 250 -25 c 0,8,9
 240 -25 240 -25 232.5 -17.5 c 128,-1,10
 225 -10 225 -10 225 0 c 128,-1,11
 225 10 225 10 232.5 17.5 c 128,-1,12
 240 25 240 25 250 25 c 0,13,14
 322 25 322 25 373.5 76.5 c 128,-1,15
 425 128 425 128 425 200 c 128,-1,16
 425 272 425 272 373.5 323.5 c 128,-1,17
 322 375 322 375 250 375 c 128,-1,18
 178 375 178 375 126.5 323.5 c 128,-1,19
 75 272 75 272 75 200 c 0,20,21
 75 190 75 190 67.5 182.5 c 128,-1,22
 60 175 60 175 50 175 c 128,-1,23
 40 175 40 175 32.5 182.5 c 128,-1,24
 25 190 25 190 25 200 c 0,25,-1
 25 199.999023438 l 0,26,27
 25 200.615722656 25 200.615722656 25.029296875 201.2265625 c 2,28,-1
 25.03125 201.244140625 l 1,29,30
 25.5440927051 293.962438538 25.5440927051 293.962438538 91.3809450415 359.475361576 c 128,-1,31
 157.217797378 424.988284613 157.217797378 424.988284613 250 425 c 0,0,1
EndSplineSet
EndChar

StartChar: braceleft
Encoding: 123 123 29
Width: 500
Flags: W
LayerCount: 2
Fore
SplineSet
350 525 m 0,0,1
 360 525 360 525 367.5 517.5 c 128,-1,2
 375 510 375 510 375 500 c 128,-1,3
 375 490 375 490 367.5 482.5 c 128,-1,4
 360 475 360 475 350 475 c 1,5,-1
 350 474.716796875 l 1,6,-1
 349.703125 474.725585938 l 0,7,8
 318.893008723 474.725585938 318.893008723 474.725585938 296.966796875 453.033203125 c 0,9,10
 275 431.067871094 275 431.067871094 275 400 c 2,11,-1
 275 300 l 2,12,13
 275 248.219726641 275 248.219726641 238.388671875 211.611328125 c 0,14,15
 231.9858793 205.300441663 231.9858793 205.300441663 224.71484375 200.001953125 c 1,16,17
 231.983560396 194.70330331 231.983560396 194.70330331 238.388671875 188.388671875 c 0,18,19
 275 151.775878945 275 151.775878945 275 100 c 2,20,-1
 275 0 l 2,21,22
 275 -31.06640625 275 -31.06640625 296.966796875 -53.033203125 c 0,23,24
 318.88511201 -74.7177734375 318.88511201 -74.7177734375 349.709960938 -74.7177734375 c 0,25,-1
 350 -74.716796875 l 1,26,-1
 350 -75 l 1,27,28
 360.354625616 -75 360.354625616 -75 367.677312808 -82.3236750888 c 128,-1,29
 375 -89.6473501777 375 -89.6473501777 375 -100.001953125 c 128,-1,30
 375 -110.356369808 375 -110.356369808 367.677405918 -117.679161467 c 128,-1,31
 360.354811837 -125.001953125 360.354811837 -125.001953125 350 -125.001953125 c 0,32,33
 298.08038125 -124.395152975 298.08038125 -124.395152975 261.611328125 -88.388671875 c 0,34,35
 225 -51.7758789453 225 -51.7758789453 225 0 c 2,36,-1
 225 100 l 2,37,38
 225 131.06640625 225 131.06640625 203.033203125 153.033203125 c 0,39,40
 181.11488799 174.717773438 181.11488799 174.717773438 150.290039062 174.717773438 c 0,41,-1
 150 174.716796875 l 1,42,-1
 150 175 l 0,43,-1
 149.993164062 175 l 0,44,45
 147.440432551 175 147.440432551 175 144.9609375 175.5078125 c 128,-1,46
 142.540472916 176.005669704 142.540472916 176.005669704 140.26953125 176.96484375 c 0,47,48
 135.772078934 178.868457487 135.772078934 178.868457487 132.322265625 182.32421875 c 0,49,50
 130.618393425 184.025168357 130.618393425 184.025168357 129.26953125 186.021484375 c 2,51,-1
 129.26953125 186.0234375 l 1,52,53
 127.909803377 188.037849164 127.909803377 188.037849164 126.96484375 190.26953125 c 2,54,-1
 126.96484375 190.271484375 l 1,55,56
 126.006072949 192.539977905 126.006072949 192.539977905 125.5078125 194.9609375 c 2,57,-1
 125.5078125 194.962890625 l 2,58,59
 125 197.443874863 125 197.443874863 125 200 c 2,60,-1
 125 200.00390625 l 0,61,-1
 125 200.006835938 l 0,62,63
 125 202.559567449 125 202.559567449 125.5078125 205.0390625 c 128,-1,64
 126.004319848 207.452761936 126.004319848 207.452761936 126.9609375 209.71875 c 2,65,-1
 126.96484375 209.73046875 l 1,66,-1
 126.96484375 209.732421875 l 1,67,-1
 126.97265625 209.748046875 l 0,68,69
 128.869241668 214.222757293 128.869241668 214.222757293 132.3046875 217.658203125 c 2,70,-1
 132.322265625 217.677734375 l 1,71,-1
 132.345703125 217.69921875 l 0,72,73
 134.030677857 219.381263091 134.030677857 219.381263091 135.99609375 220.7109375 c 2,74,-1
 136.052734375 220.748046875 l 1,75,76
 138.037912791 222.08382639 138.037912791 222.08382639 140.23828125 223.01953125 c 2,77,-1
 140.3046875 223.048828125 l 2,78,79
 142.547703971 223.992708482 142.547703971 223.992708482 144.923828125 224.482421875 c 2,80,-1
 144.998046875 224.498046875 l 2,81,82
 147.434705671 224.993688798 147.434705671 224.993688798 149.9609375 224.998046875 c 2,83,-1
 150 225.001953125 l 1,84,-1
 150 225.283203125 l 1,85,-1
 150.296875 225.274414062 l 0,86,87
 181.106991277 225.274414062 181.106991277 225.274414062 203.033203125 246.966796875 c 0,88,89
 225 268.932128906 225 268.932128906 225 300 c 2,90,-1
 225 400 l 2,91,92
 225 451.775878945 225 451.775878945 261.611328125 488.388671875 c 0,93,94
 298.078814947 524.394492054 298.078814947 524.394492054 350 525 c 0,0,1
EndSplineSet
EndChar

StartChar: o
Encoding: 111 111 30
Width: 0
GlyphClass: 4
Flags: W
LayerCount: 2
Fore
SplineSet
-200 25 m 128,-1,1
 -190 25 -190 25 -182.5 17.5 c 128,-1,2
 -175 10 -175 10 -175 0 c 0,3,4
 -175 -72 -175 -72 -123.5 -123.5 c 128,-1,5
 -72 -175 -72 -175 0 -175 c 0,6,7
 13.7715689433 -175 13.7715689433 -175 27.376953125 -172.845703125 c 0,8,9
 70.1293219374 -166.072269821 70.1293219374 -166.072269821 104.794921875 -140.150390625 c 1,10,-1
 -17.677734375 -17.677734375 l 1,11,-1
 -17.6328125 -17.6328125 l 1,12,13
 -24.9633378404 -10.3401955001 -24.9633378404 -10.3401955001 -25 0 c 0,14,15
 -25 10 -25 10 -17.5 17.5 c 128,-1,16
 -10 25 -10 25 0 25 c 0,17,18
 10.35546875 25 10.35546875 25 17.677734375 17.677734375 c 2,19,-1
 140.123046875 -104.767578125 l 1,20,21
 174.976817944 -58.1826138061 174.976817944 -58.1826138061 175 0 c 0,22,23
 175 10 175 10 182.5 17.5 c 128,-1,24
 190 25 190 25 200 25 c 0,25,26
 209.374241769 25 209.374241769 25 216.403149679 18.8485589774 c 128,-1,27
 223.43205759 12.6971179549 223.43205759 12.6971179549 224.74609375 3.55859375 c 0,28,29
 224.883262136 1.83338312777 224.883262136 1.83338312777 225 0 c 0,30,31
 224.729467272 -6.13111069225 224.729467272 -6.13111069225 224.123046875 -12.248046875 c 0,32,33
 223.805224842 -22.5454807336 223.805224842 -22.5454807336 222.548828125 -32.759765625 c 0,34,35
 221.500868424 -38.2173984503 221.500868424 -38.2173984503 220.189453125 -43.603515625 c 0,36,37
 218.390007521 -53.9411619687 218.390007521 -53.9411619687 215.638671875 -64.05859375 c 0,38,39
 213.934342745 -68.9734033331 213.934342745 -68.9734033331 211.9921875 -73.833984375 c 0,40,41
 208.661433774 -84.1172822869 208.661433774 -84.1172822869 204.361328125 -94.03125 c 0,42,43
 201.996196052 -98.6062794717 201.996196052 -98.6062794717 199.421875 -103.07421875 c 0,44,45
 194.640430872 -112.840603862 194.640430872 -112.840603862 188.94140625 -122.09765625 c 0,46,47
 185.983115804 -126.242184643 185.983115804 -126.242184643 182.85546875 -130.228515625 c 0,48,49
 176.705052427 -139.273673563 176.705052427 -139.273673563 169.69140625 -147.6953125 c 0,50,51
 166.183972029 -151.365612654 166.183972029 -151.365612654 162.513671875 -154.873046875 c 0,52,-1
 162.408203125 -154.9765625 l 0,53,54
 160.974678401 -157.211345961 160.974678401 -157.211345961 159.099609375 -159.099609375 c 0,55,56
 157.401027796 -160.670687418 157.401027796 -160.670687418 155.447265625 -161.90234375 c 0,57,58
 151.356915411 -166.192789083 151.356915411 -166.192789083 147.01953125 -170.28515625 c 0,59,60
 142.775676566 -173.623985604 142.775676566 -173.623985604 138.365234375 -176.763671875 c 0,61,62
 130.156895885 -183.504826487 130.156895885 -183.504826487 121.35546875 -189.439453125 c 0,63,64
 116.765477768 -192.087524845 116.765477768 -192.087524845 112.06640625 -194.51171875 c 0,65,66
 102.895519723 -200.081333186 102.895519723 -200.081333186 93.220703125 -204.759765625 c 0,67,68
 88.6088703749 -206.597419481 88.6088703749 -206.597419481 83.89453125 -208.23828125 c 0,69,70
 73.7566286451 -212.584155021 73.7566286451 -212.584155021 63.216796875 -215.923828125 c 0,71,72
 56.8816085103 -217.495772665 56.8816085103 -217.495772665 50.46875 -218.697265625 c 0,73,74
 41.3054625887 -221.093293397 41.3054625887 -221.093293397 31.943359375 -222.71484375 c 0,75,76
 16.0500805648 -224.997129814 16.0500805648 -224.997129814 0 -225 c 0,77,78
 -92.0760026092 -224.907054555 -92.0760026092 -224.907054555 -157.682576554 -160.183512075 c 128,-1,79
 -223.289150498 -95.4599695955 -223.289150498 -95.4599695955 -224.744140625 -3.5625 c 0,80,81
 -225 -1.78775289017 -225 -1.78775289017 -225 0 c 0,82,83
 -225 10 -225 10 -217.5 17.5 c 128,-1,0
 -210 25 -210 25 -200 25 c 128,-1,1
EndSplineSet
EndChar

StartChar: bar
Encoding: 124 124 31
Width: 500
Flags: W
LayerCount: 2
Fore
SplineSet
250 625 m 128,-1,1
 260 625 260 625 267.5 617.5 c 128,-1,2
 275 610 275 610 275 600 c 2,3,-1
 275 -200 l 2,4,5
 275 -210 275 -210 267.5 -217.5 c 128,-1,6
 260 -225 260 -225 250 -225 c 128,-1,7
 240 -225 240 -225 232.5 -217.5 c 128,-1,8
 225 -210 225 -210 225 -200 c 2,9,-1
 225 600 l 2,10,11
 225 610 225 610 232.5 617.5 c 128,-1,0
 240 625 240 625 250 625 c 128,-1,1
EndSplineSet
EndChar

StartChar: I
Encoding: 73 73 32
Width: 0
GlyphClass: 4
Flags: W
LayerCount: 2
Fore
SplineSet
0 625 m 0,0,1
 92.0760026092 624.907054555 92.0760026092 624.907054555 157.682576554 560.183512075 c 128,-1,2
 223.289150498 495.459969596 223.289150498 495.459969596 224.744140625 403.5625 c 0,3,4
 225 401.78775289 225 401.78775289 225 400 c 0,5,6
 225 390 225 390 217.5 382.5 c 128,-1,7
 210 375 210 375 200 375 c 128,-1,8
 190 375 190 375 182.5 382.5 c 128,-1,9
 175 390 175 390 175 400 c 0,10,11
 175 472 175 472 123.5 523.5 c 128,-1,12
 72 575 72 575 0 575 c 0,13,14
 -64.9475953798 575 -64.9475953798 575 -113.899300889 532.738987909 c 128,-1,15
 -162.851006399 490.477975817 -162.851006399 490.477975817 -172.845703125 427.376953125 c 0,16,17
 -175 413.771568943 -175 413.771568943 -175 400 c 0,18,19
 -175 390 -175 390 -182.5 382.5 c 128,-1,20
 -190 375 -190 375 -200 375 c 128,-1,21
 -210 375 -210 375 -217.5 382.5 c 128,-1,22
 -225 390 -225 390 -225 400 c 0,23,24
 -224.729467272 406.131110692 -224.729467272 406.131110692 -224.123046875 412.248046875 c 0,25,26
 -223.805224842 422.545480734 -223.805224842 422.545480734 -222.548828125 432.759765625 c 0,27,28
 -221.500868424 438.21739845 -221.500868424 438.21739845 -220.189453125 443.603515625 c 0,29,30
 -218.390007521 453.941161969 -218.390007521 453.941161969 -215.638671875 464.05859375 c 0,31,32
 -213.934342745 468.973403333 -213.934342745 468.973403333 -211.9921875 473.833984375 c 0,33,34
 -208.661433774 484.117282287 -208.661433774 484.117282287 -204.361328125 494.03125 c 0,35,36
 -201.996196052 498.606279472 -201.996196052 498.606279472 -199.421875 503.07421875 c 0,37,38
 -194.640430872 512.840603862 -194.640430872 512.840603862 -188.94140625 522.09765625 c 0,39,40
 -185.983115804 526.242184643 -185.983115804 526.242184643 -182.85546875 530.228515625 c 0,41,42
 -176.705052427 539.273673563 -176.705052427 539.273673563 -169.69140625 547.6953125 c 0,43,44
 -166.183972029 551.365612654 -166.183972029 551.365612654 -162.513671875 554.873046875 c 0,45,46
 -155.136604757 562.960595294 -155.136604757 562.960595294 -147.01953125 570.28515625 c 0,47,48
 -142.775676566 573.623985604 -142.775676566 573.623985604 -138.365234375 576.763671875 c 0,49,50
 -130.156895885 583.504826487 -130.156895885 583.504826487 -121.35546875 589.439453125 c 0,51,52
 -116.765477768 592.087524845 -116.765477768 592.087524845 -112.06640625 594.51171875 c 0,53,54
 -102.895519723 600.081333186 -102.895519723 600.081333186 -93.220703125 604.759765625 c 0,55,56
 -88.6088703749 606.597419481 -88.6088703749 606.597419481 -83.89453125 608.23828125 c 0,57,58
 -73.7566286451 612.584155021 -73.7566286451 612.584155021 -63.216796875 615.923828125 c 0,59,60
 -56.8816085103 617.495772665 -56.8816085103 617.495772665 -50.46875 618.697265625 c 0,61,62
 -41.3054625887 621.093293397 -41.3054625887 621.093293397 -31.943359375 622.71484375 c 0,63,64
 -16.0500805648 624.997129814 -16.0500805648 624.997129814 0 625 c 0,0,1
EndSplineSet
EndChar

StartChar: a
Encoding: 97 97 33
Width: 0
GlyphClass: 4
Flags: W
LayerCount: 2
Fore
SplineSet
0 625 m 0,0,1
 92.0760026092 624.907054555 92.0760026092 624.907054555 157.682576554 560.183512075 c 128,-1,2
 223.289150498 495.459969596 223.289150498 495.459969596 224.744140625 403.5625 c 0,3,4
 225 401.78775289 225 401.78775289 225 400 c 0,5,6
 225 390 225 390 217.5 382.5 c 128,-1,7
 210 375 210 375 200 375 c 128,-1,8
 190 375 190 375 182.5 382.5 c 128,-1,9
 175 390 175 390 175 400 c 0,10,11
 175 472 175 472 123.5 523.5 c 128,-1,12
 72 575 72 575 0 575 c 0,13,14
 -58.0781066056 574.759378898 -58.0781066056 574.759378898 -104.486328125 539.841796875 c 1,15,-1
 17.677734375 417.677734375 l 1,16,17
 25 410.35546875 25 410.35546875 25 400 c 0,18,19
 25 390 25 390 17.5 382.5 c 128,-1,20
 10 375 10 375 0 375 c 0,21,22
 -10.3401955001 375.03666216 -10.3401955001 375.03666216 -17.6328125 382.3671875 c 1,23,-1
 -17.677734375 382.322265625 l 1,24,-1
 -139.84765625 504.4921875 l 1,25,26
 -165.864425122 470.006719746 -165.864425122 470.006719746 -172.845703125 427.376953125 c 0,27,28
 -175 413.771568943 -175 413.771568943 -175 400 c 0,29,30
 -175 390 -175 390 -182.5 382.5 c 128,-1,31
 -190 375 -190 375 -200 375 c 128,-1,32
 -210 375 -210 375 -217.5 382.5 c 128,-1,33
 -225 390 -225 390 -225 400 c 0,34,35
 -224.729467272 406.131110692 -224.729467272 406.131110692 -224.123046875 412.248046875 c 0,36,37
 -223.805224842 422.545480734 -223.805224842 422.545480734 -222.548828125 432.759765625 c 0,38,39
 -221.500868424 438.21739845 -221.500868424 438.21739845 -220.189453125 443.603515625 c 0,40,41
 -218.390007521 453.941161969 -218.390007521 453.941161969 -215.638671875 464.05859375 c 0,42,43
 -213.934342745 468.973403333 -213.934342745 468.973403333 -211.9921875 473.833984375 c 0,44,45
 -208.661433774 484.117282287 -208.661433774 484.117282287 -204.361328125 494.03125 c 0,46,47
 -201.996196052 498.606279472 -201.996196052 498.606279472 -199.421875 503.07421875 c 0,48,49
 -194.640430872 512.840603862 -194.640430872 512.840603862 -188.94140625 522.09765625 c 0,50,51
 -185.983115804 526.242184643 -185.983115804 526.242184643 -182.85546875 530.228515625 c 0,52,53
 -176.705052427 539.273673563 -176.705052427 539.273673563 -169.69140625 547.6953125 c 0,54,55
 -166.183972029 551.365612654 -166.183972029 551.365612654 -162.513671875 554.873046875 c 0,56,57
 -162.27734375 555.109375 -162.27734375 555.109375 -161.791015625 555.591796875 c 0,58,59
 -160.602492281 557.463429837 -160.602492281 557.463429837 -159.099609375 559.099609375 c 0,60,61
 -157.268105487 560.869722071 -157.268105487 560.869722071 -155.109375 562.23828125 c 0,62,63
 -151.160472857 566.37071776 -151.160472857 566.37071776 -147.01953125 570.28515625 c 0,64,65
 -142.775676566 573.623985604 -142.775676566 573.623985604 -138.365234375 576.763671875 c 0,66,67
 -130.156895885 583.504826487 -130.156895885 583.504826487 -121.35546875 589.439453125 c 0,68,69
 -116.765477768 592.087524845 -116.765477768 592.087524845 -112.06640625 594.51171875 c 0,70,71
 -102.895519723 600.081333186 -102.895519723 600.081333186 -93.220703125 604.759765625 c 0,72,73
 -88.6088703749 606.597419481 -88.6088703749 606.597419481 -83.89453125 608.23828125 c 0,74,75
 -73.7566286451 612.584155021 -73.7566286451 612.584155021 -63.216796875 615.923828125 c 0,76,77
 -56.8816085103 617.495772665 -56.8816085103 617.495772665 -50.46875 618.697265625 c 0,78,79
 -41.3054625887 621.093293397 -41.3054625887 621.093293397 -31.943359375 622.71484375 c 0,80,81
 -16.0500805648 624.997129814 -16.0500805648 624.997129814 0 625 c 0,0,1
EndSplineSet
EndChar

StartChar: u
Encoding: 117 117 34
Width: 0
GlyphClass: 4
Flags: W
LayerCount: 2
Fore
SplineSet
0 25 m 0,0,1
 10.35546875 25 10.35546875 25 17.677734375 17.677734375 c 2,2,-1
 159.099609375 -123.744140625 l 1,3,4
 166.42578125 -131.0703125 166.42578125 -131.0703125 166.42578125 -141.42578125 c 128,-1,5
 166.42578125 -151.7734375 166.42578125 -151.7734375 159.099609375 -159.099609375 c 128,-1,6
 151.7734375 -166.42578125 151.7734375 -166.42578125 141.41796875 -166.42578125 c 128,-1,7
 131.0703125 -166.42578125 131.0703125 -166.42578125 123.744140625 -159.099609375 c 2,8,-1
 -17.677734375 -17.677734375 l 1,9,-1
 -17.6328125 -17.6328125 l 1,10,11
 -24.9633378404 -10.3401955001 -24.9633378404 -10.3401955001 -25 0 c 0,12,13
 -25 10 -25 10 -17.5 17.5 c 128,-1,14
 -10 25 -10 25 0 25 c 0,0,1
EndSplineSet
EndChar

StartChar: underscore
Encoding: 95 95 35
Width: 500
Flags: W
LayerCount: 2
Fore
SplineSet
108.578125 83.578125 m 128,-1,1
 118.93359375 83.578125 118.93359375 83.578125 126.255859375 76.255859375 c 0,2,3
 177.517578125 24.994140625 177.517578125 24.994140625 249.831054688 24.994140625 c 0,4,5
 263.742450421 24.994140625 263.742450421 24.994140625 277.376953125 27.154296875 c 0,6,7
 333.53771536 36.04943411 333.53771536 36.04943411 373.744140625 76.255859375 c 0,8,9
 381.0703125 83.58203125 381.0703125 83.58203125 391.42578125 83.58203125 c 128,-1,10
 401.775018461 83.58203125 401.775018461 83.58203125 409.099609375 76.255859375 c 128,-1,11
 416.42578125 68.9296875 416.42578125 68.9296875 416.42578125 58.57421875 c 128,-1,12
 416.42578125 48.2249815393 416.42578125 48.2249815393 409.099609375 40.900390625 c 1,13,-1
 409.096679688 40.9033203125 l 1,14,-1
 409.056640625 40.86328125 l 0,15,16
 404.621032934 36.8084498417 404.621032934 36.8084498417 399.958984375 32.984375 c 0,17,18
 392.529486323 26.0045762427 392.529486323 26.0045762427 384.482421875 19.712890625 c 0,19,20
 377.215069097 14.6144594265 377.215069097 14.6144594265 369.57421875 10.1064453125 c 0,21,22
 363.839974675 6.20511139718 363.839974675 6.20511139718 357.861328125 2.65625 c 0,23,24
 347.939017121 -2.52202067293 347.939017121 -2.52202067293 337.53515625 -6.6953125 c 0,25,26
 333.355746285 -8.68691273062 333.355746285 -8.68691273062 329.099609375 -10.5048828125 c 0,27,28
 317.073164784 -14.850947968 317.073164784 -14.850947968 304.6328125 -17.8046875 c 0,29,30
 301.698067889 -18.6977414299 301.698067889 -18.6977414299 298.765625 -19.50390625 c 0,31,32
 284.973985187 -22.4606366116 284.973985187 -22.4606366116 270.921875 -23.671875 c 0,33,34
 269.245957843 -23.9213271688 269.245957843 -23.9213271688 267.48046875 -24.1572265625 c 0,35,36
 259.172507307 -24.76953125 259.172507307 -24.76953125 251.131835938 -24.76953125 c 0,37,38
 244.41355776 -24.76953125 244.41355776 -24.76953125 237.744140625 -24.376953125 c 0,39,-1
 237.385742188 -24.376953125 l 0,40,41
 236.464599609 -24.376953125 236.464599609 -24.376953125 235.806640625 -24.3720703125 c 0,42,43
 220.334680356 -23.3645736024 220.334680356 -23.3645736024 205.138671875 -20.2421875 c 2,44,-1
 205.138671875 -20.2421875 l 0,45,-1
 204.416015625 -20.13671875 l 1,46,47
 140.492566294 -6.86404118149 140.492566294 -6.86404118149 93.6015625 38.5615234375 c 0,48,49
 93.0179325765 39.0374510808 93.0179325765 39.0374510808 92.46484375 39.546875 c 128,-1,50
 91.7123668058 40.1920543058 91.7123668058 40.1920543058 90.900390625 40.90234375 c 2,51,-1
 90.8935546875 40.908203125 l 1,52,53
 83.5751953125 48.2328864226 83.5751953125 48.2328864226 83.5751953125 58.58203125 c 128,-1,54
 83.5751953125 68.9306640625 83.5751953125 68.9306640625 90.900390625 76.255859375 c 128,-1,0
 98.2210761323 83.578125 98.2210761323 83.578125 108.578125 83.578125 c 128,-1,1
EndSplineSet
EndChar

StartChar: K
Encoding: 75 75 36
Width: 500
Flags: W
LayerCount: 2
Fore
SplineSet
250 425 m 0,0,-1
 249.999023438 425 l 0,1,2
 250.615722656 425 250.615722656 425 251.2265625 424.970703125 c 2,3,-1
 251.244140625 424.96875 l 1,4,5
 343.962438538 424.455907295 343.962438538 424.455907295 409.475361576 358.619054958 c 128,-1,6
 474.988284613 292.782202622 474.988284613 292.782202622 475 200 c 0,7,8
 475 107 475 107 409 41 c 128,-1,9
 343 -25 343 -25 250 -25 c 0,10,11
 157.923997391 -24.907054555 157.923997391 -24.907054555 92.3174234462 39.8164879247 c 128,-1,12
 26.7108495016 104.540030404 26.7108495016 104.540030404 25.255859375 196.4375 c 0,13,14
 25 198.21224711 25 198.21224711 25 200 c 0,15,16
 25 210 25 210 32.5 217.5 c 128,-1,17
 40 225 40 225 50 225 c 128,-1,18
 60 225 60 225 67.5 217.5 c 128,-1,19
 75 210 75 210 75 200 c 0,20,21
 75 128 75 128 126.5 76.5 c 128,-1,22
 178 25 178 25 250 25 c 128,-1,23
 322 25 322 25 373.5 76.5 c 128,-1,24
 425 128 425 128 425 200 c 128,-1,25
 425 272 425 272 373.5 323.5 c 128,-1,26
 322 375 322 375 250 375 c 0,27,28
 240 375 240 375 232.5 382.5 c 128,-1,29
 225 390 225 390 225 400 c 128,-1,30
 225 410 225 410 232.5 417.5 c 128,-1,31
 240 425 240 425 250 425 c 0,0,-1
EndSplineSet
EndChar

StartChar: x
Encoding: 120 120 37
Width: 500
Flags: W
LayerCount: 2
Fore
SplineSet
250 425 m 0,0,1
 343 425 343 425 409 359 c 128,-1,2
 475 293 475 293 475 200 c 0,3,4
 474.907054555 107.923997391 474.907054555 107.923997391 410.183512075 42.3174234462 c 128,-1,5
 345.459969596 -23.2891504984 345.459969596 -23.2891504984 253.5625 -24.744140625 c 0,6,7
 251.78775289 -25 251.78775289 -25 250 -25 c 0,8,9
 240 -25 240 -25 232.5 -17.5 c 128,-1,10
 225 -10 225 -10 225 0 c 128,-1,11
 225 10 225 10 232.5 17.5 c 128,-1,12
 240 25 240 25 250 25 c 0,13,14
 322 25 322 25 373.5 76.5 c 128,-1,15
 425 128 425 128 425 200 c 128,-1,16
 425 272 425 272 373.5 323.5 c 128,-1,17
 322 375 322 375 250 375 c 128,-1,18
 178 375 178 375 126.5 323.5 c 128,-1,19
 75 272 75 272 75 200 c 0,20,21
 75 190 75 190 67.5 182.5 c 128,-1,22
 60 175 60 175 50 175 c 128,-1,23
 40 175 40 175 32.5 182.5 c 128,-1,24
 25 190 25 190 25 200 c 0,25,-1
 25 199.999023438 l 0,26,27
 25 200.615722656 25 200.615722656 25.029296875 201.2265625 c 2,28,-1
 25.03125 201.244140625 l 1,29,30
 25.5440927051 293.962438538 25.5440927051 293.962438538 91.3809450415 359.475361576 c 128,-1,31
 157.217797378 424.988284613 157.217797378 424.988284613 250 425 c 0,0,1
104.66796875 366.11328125 m 0,32,33
 106.634460449 366.424804688 106.634460449 366.424804688 108.58203125 366.424804688 c 0,34,35
 118.929082971 366.424804688 118.929082971 366.424804688 126.255859375 359.099609375 c 2,36,-1
 409.099609375 76.255859375 l 1,37,38
 416.42578125 68.9296875 416.42578125 68.9296875 416.42578125 58.57421875 c 128,-1,39
 416.42578125 48.2265625 416.42578125 48.2265625 409.099609375 40.900390625 c 128,-1,40
 401.7734375 33.57421875 401.7734375 33.57421875 391.41796875 33.57421875 c 128,-1,41
 381.0703125 33.57421875 381.0703125 33.57421875 373.744140625 40.900390625 c 2,42,-1
 90.900390625 323.744140625 l 1,43,44
 83.57421875 331.0703125 83.57421875 331.0703125 83.57421875 341.42578125 c 128,-1,45
 83.57421875 351.7734375 83.57421875 351.7734375 90.900390625 359.099609375 c 0,46,47
 96.6460379679 364.843718392 96.6460379679 364.843718392 104.66796875 366.11328125 c 0,32,33
EndSplineSet
EndChar

StartChar: P
Encoding: 80 80 38
Width: 500
Flags: W
LayerCount: 2
Fore
SplineSet
264.0546875 424.390625 m 0,0,1
 346.8300979 419.149204604 346.8300979 419.149204604 406.3984375 361.4375 c 0,2,3
 407.835513931 360.363704819 407.835513931 360.363704819 409.099609375 359.099609375 c 0,4,5
 416.42578125 351.7734375 416.42578125 351.7734375 416.42578125 341.41796875 c 128,-1,6
 416.42578125 331.0703125 416.42578125 331.0703125 409.099609375 323.744140625 c 128,-1,7
 401.7734375 316.41796875 401.7734375 316.41796875 391.41796875 316.41796875 c 128,-1,8
 381.0703125 316.41796875 381.0703125 316.41796875 373.744140625 323.744140625 c 0,9,10
 322.462890625 375.025390625 322.462890625 375.025390625 249.975585938 375.025390625 c 128,-1,11
 177.537109375 375.025390625 177.537109375 375.025390625 126.255859375 323.744140625 c 128,-1,12
 74.974609375 272.462890625 74.974609375 272.462890625 74.974609375 199.975585938 c 128,-1,13
 74.974609375 127.537109375 74.974609375 127.537109375 126.255859375 76.255859375 c 128,-1,14
 177.537109375 24.974609375 177.537109375 24.974609375 250.024414062 24.974609375 c 128,-1,15
 322.462890625 24.974609375 322.462890625 24.974609375 373.744140625 76.255859375 c 0,16,17
 381.0703125 83.58203125 381.0703125 83.58203125 391.42578125 83.58203125 c 128,-1,18
 401.7734375 83.58203125 401.7734375 83.58203125 409.099609375 76.255859375 c 128,-1,19
 416.42578125 68.9296875 416.42578125 68.9296875 416.42578125 58.57421875 c 128,-1,20
 416.42578125 48.2265625 416.42578125 48.2265625 409.099609375 40.900390625 c 1,21,-1
 409.09765625 40.90234375 l 0,22,23
 408.662477617 40.4657047857 408.662477617 40.4657047857 408.2109375 40.0546875 c 2,24,-1
 408.1953125 40.044921875 l 1,25,26
 342.417957436 -25.0087890625 342.417957436 -25.0087890625 249.947265625 -25.0087890625 c 0,27,28
 156.828913403 -25.0087890625 156.828913403 -25.0087890625 90.900390625 40.90234375 c 128,-1,29
 24.96875 106.833984375 24.96875 106.833984375 24.96875 200.032226562 c 128,-1,30
 24.96875 293.16796875 24.96875 293.16796875 90.900390625 359.099609375 c 128,-1,31
 156.779215385 424.845703125 156.779215385 424.845703125 249.650390625 424.845703125 c 0,32,33
 256.872111398 424.845703125 256.872111398 424.845703125 264.0546875 424.390625 c 0,0,1
EndSplineSet
EndChar

StartChar: D
Encoding: 68 68 39
Width: 500
Flags: W
LayerCount: 2
Fore
SplineSet
108.578125 366.421875 m 128,-1,1
 118.93359375 366.421875 118.93359375 366.421875 126.255859375 359.099609375 c 128,-1,2
 133.58203125 351.7734375 133.58203125 351.7734375 133.58203125 341.41796875 c 128,-1,3
 133.58203125 331.0703125 133.58203125 331.0703125 126.255859375 323.744140625 c 0,4,5
 74.974609375 272.462890625 74.974609375 272.462890625 74.974609375 199.975585938 c 128,-1,6
 74.974609375 127.537109375 74.974609375 127.537109375 126.255859375 76.255859375 c 128,-1,7
 177.537109375 24.974609375 177.537109375 24.974609375 250.024414062 24.974609375 c 128,-1,8
 322.462890625 24.974609375 322.462890625 24.974609375 373.744140625 76.255859375 c 128,-1,9
 425.025390625 127.537109375 425.025390625 127.537109375 425.025390625 200.024414062 c 128,-1,10
 425.025390625 272.462890625 425.025390625 272.462890625 373.744140625 323.744140625 c 0,11,12
 366.41796875 331.0703125 366.41796875 331.0703125 366.41796875 341.42578125 c 128,-1,13
 366.41796875 351.7734375 366.41796875 351.7734375 373.744140625 359.099609375 c 128,-1,14
 381.0703125 366.42578125 381.0703125 366.42578125 391.42578125 366.42578125 c 128,-1,15
 401.7734375 366.42578125 401.7734375 366.42578125 409.099609375 359.099609375 c 1,16,-1
 409.09765625 359.09765625 l 0,17,18
 409.534295214 358.662477617 409.534295214 358.662477617 409.9453125 358.2109375 c 2,19,-1
 409.955078125 358.1953125 l 1,20,21
 475.008789062 292.417957436 475.008789062 292.417957436 475.008789062 199.947265625 c 0,22,23
 475.008789062 106.828913403 475.008789062 106.828913403 409.09765625 40.900390625 c 128,-1,24
 343.166015625 -25.03125 343.166015625 -25.03125 249.967773438 -25.03125 c 128,-1,25
 156.83203125 -25.03125 156.83203125 -25.03125 90.900390625 40.900390625 c 128,-1,26
 25.1474609375 106.787648647 25.1474609375 106.787648647 25.1474609375 199.888671875 c 0,27,28
 25.1474609375 290.943096718 25.1474609375 290.943096718 88.5625 356.3984375 c 0,29,30
 89.6362951807 357.835513931 89.6362951807 357.835513931 90.900390625 359.099609375 c 0,31,0
 98.22265625 366.421875 98.22265625 366.421875 108.578125 366.421875 c 128,-1,1
104.66796875 366.11328125 m 0,32,33
 106.634460449 366.424804688 106.634460449 366.424804688 108.58203125 366.424804688 c 0,34,35
 118.929082971 366.424804688 118.929082971 366.424804688 126.255859375 359.099609375 c 2,36,-1
 409.099609375 76.255859375 l 1,37,38
 416.42578125 68.9296875 416.42578125 68.9296875 416.42578125 58.57421875 c 128,-1,39
 416.42578125 48.2265625 416.42578125 48.2265625 409.099609375 40.900390625 c 128,-1,40
 401.7734375 33.57421875 401.7734375 33.57421875 391.41796875 33.57421875 c 128,-1,41
 381.0703125 33.57421875 381.0703125 33.57421875 373.744140625 40.900390625 c 2,42,-1
 90.900390625 323.744140625 l 1,43,44
 83.57421875 331.0703125 83.57421875 331.0703125 83.57421875 341.42578125 c 128,-1,45
 83.57421875 351.7734375 83.57421875 351.7734375 90.900390625 359.099609375 c 0,46,47
 96.6460379679 364.843718392 96.6460379679 364.843718392 104.66796875 366.11328125 c 0,32,33
EndSplineSet
EndChar

StartChar: E
Encoding: 69 69 40
Width: 0
GlyphClass: 4
Flags: W
LayerCount: 2
Fore
SplineSet
-143.205078125 566.357421875 m 0,0,1
 -142.269375888 566.424804688 -142.269375888 566.424804688 -141.41796875 566.424804688 c 0,2,3
 -131.070917029 566.424804688 -131.070917029 566.424804688 -123.744140625 559.099609375 c 2,4,-1
 17.677734375 417.677734375 l 1,5,6
 25 410.35546875 25 410.35546875 25 400 c 0,7,8
 25 390 25 390 17.5 382.5 c 128,-1,9
 10 375 10 375 0 375 c 0,10,11
 -10.3401955001 375.03666216 -10.3401955001 375.03666216 -17.6328125 382.3671875 c 1,12,-1
 -17.677734375 382.322265625 l 1,13,-1
 -159.099609375 523.744140625 l 1,14,15
 -166.42578125 531.0703125 -166.42578125 531.0703125 -166.42578125 541.42578125 c 128,-1,16
 -166.42578125 551.7734375 -166.42578125 551.7734375 -159.099609375 559.099609375 c 0,17,18
 -152.506159856 565.693058894 -152.506159856 565.693058894 -143.205078125 566.357421875 c 0,0,1
EndSplineSet
EndChar

StartChar: Q
Encoding: 81 81 41
Width: 500
Flags: W
LayerCount: 2
Fore
SplineSet
234.634765625 424.453125 m 0,0,1
 242.778139067 425.010742188 242.778139067 425.010742188 250.05078125 425.010742188 c 0,2,3
 343.170714288 425.010742188 343.170714288 425.010742188 409.099609375 359.09765625 c 128,-1,4
 475.03125 293.166015625 475.03125 293.166015625 475.03125 199.967773438 c 128,-1,5
 475.03125 106.83203125 475.03125 106.83203125 409.099609375 40.900390625 c 128,-1,6
 343.212351353 -24.8525390625 343.212351353 -24.8525390625 250.111328125 -24.8525390625 c 0,7,8
 159.056903282 -24.8525390625 159.056903282 -24.8525390625 93.6015625 38.5625 c 0,9,10
 92.1644860693 39.6362951807 92.1644860693 39.6362951807 90.900390625 40.900390625 c 0,11,12
 83.57421875 48.2265625 83.57421875 48.2265625 83.57421875 58.58203125 c 128,-1,13
 83.57421875 68.9296875 83.57421875 68.9296875 90.900390625 76.255859375 c 128,-1,14
 98.2265625 83.58203125 98.2265625 83.58203125 108.58203125 83.58203125 c 128,-1,15
 118.9296875 83.58203125 118.9296875 83.58203125 126.255859375 76.255859375 c 0,16,17
 177.537109375 24.974609375 177.537109375 24.974609375 250.024414062 24.974609375 c 128,-1,18
 322.462890625 24.974609375 322.462890625 24.974609375 373.744140625 76.255859375 c 128,-1,19
 425.025390625 127.537109375 425.025390625 127.537109375 425.025390625 200.024414062 c 128,-1,20
 425.025390625 272.462890625 425.025390625 272.462890625 373.744140625 323.744140625 c 128,-1,21
 322.462890625 375.025390625 322.462890625 375.025390625 249.975585938 375.025390625 c 128,-1,22
 177.537109375 375.025390625 177.537109375 375.025390625 126.255859375 323.744140625 c 0,23,24
 118.9296875 316.41796875 118.9296875 316.41796875 108.57421875 316.41796875 c 128,-1,25
 98.2265625 316.41796875 98.2265625 316.41796875 90.900390625 323.744140625 c 128,-1,26
 83.57421875 331.0703125 83.57421875 331.0703125 83.57421875 341.42578125 c 128,-1,27
 83.57421875 351.7734375 83.57421875 351.7734375 90.900390625 359.099609375 c 1,28,-1
 90.90234375 359.09765625 l 0,29,30
 91.3375223833 359.534295214 91.3375223833 359.534295214 91.7890625 359.9453125 c 2,31,-1
 91.8046875 359.955078125 l 1,32,33
 151.23963867 418.736280718 151.23963867 418.736280718 234.634765625 424.453125 c 0,0,1
EndSplineSet
EndChar

StartChar: y
Encoding: 121 121 42
Width: 500
Flags: W
LayerCount: 2
Fore
SplineSet
234.634765625 424.453125 m 0,0,1
 242.778139067 425.010742188 242.778139067 425.010742188 250.05078125 425.010742188 c 0,2,3
 343.170714288 425.010742188 343.170714288 425.010742188 409.099609375 359.09765625 c 128,-1,4
 475.03125 293.166015625 475.03125 293.166015625 475.03125 199.967773438 c 128,-1,5
 475.03125 106.83203125 475.03125 106.83203125 409.099609375 40.900390625 c 128,-1,6
 343.212351353 -24.8525390625 343.212351353 -24.8525390625 250.111328125 -24.8525390625 c 0,7,8
 159.056903282 -24.8525390625 159.056903282 -24.8525390625 93.6015625 38.5625 c 0,9,10
 92.1644860693 39.6362951807 92.1644860693 39.6362951807 90.900390625 40.900390625 c 0,11,12
 83.57421875 48.2265625 83.57421875 48.2265625 83.57421875 58.58203125 c 128,-1,13
 83.57421875 68.9296875 83.57421875 68.9296875 90.900390625 76.255859375 c 128,-1,14
 98.2265625 83.58203125 98.2265625 83.58203125 108.58203125 83.58203125 c 128,-1,15
 118.9296875 83.58203125 118.9296875 83.58203125 126.255859375 76.255859375 c 0,16,17
 177.537109375 24.974609375 177.537109375 24.974609375 250.024414062 24.974609375 c 128,-1,18
 322.462890625 24.974609375 322.462890625 24.974609375 373.744140625 76.255859375 c 128,-1,19
 425.025390625 127.537109375 425.025390625 127.537109375 425.025390625 200.024414062 c 128,-1,20
 425.025390625 272.462890625 425.025390625 272.462890625 373.744140625 323.744140625 c 128,-1,21
 322.462890625 375.025390625 322.462890625 375.025390625 249.975585938 375.025390625 c 128,-1,22
 177.537109375 375.025390625 177.537109375 375.025390625 126.255859375 323.744140625 c 0,23,24
 118.9296875 316.41796875 118.9296875 316.41796875 108.57421875 316.41796875 c 128,-1,25
 98.2265625 316.41796875 98.2265625 316.41796875 90.900390625 323.744140625 c 128,-1,26
 83.57421875 331.0703125 83.57421875 331.0703125 83.57421875 341.42578125 c 128,-1,27
 83.57421875 351.7734375 83.57421875 351.7734375 90.900390625 359.099609375 c 1,28,-1
 90.90234375 359.09765625 l 0,29,30
 91.3375223833 359.534295214 91.3375223833 359.534295214 91.7890625 359.9453125 c 2,31,-1
 91.8046875 359.955078125 l 1,32,33
 151.23963867 418.736280718 151.23963867 418.736280718 234.634765625 424.453125 c 0,0,1
104.66796875 366.11328125 m 0,34,35
 106.634460449 366.424804688 106.634460449 366.424804688 108.58203125 366.424804688 c 0,36,37
 118.929082971 366.424804688 118.929082971 366.424804688 126.255859375 359.099609375 c 2,38,-1
 409.099609375 76.255859375 l 1,39,40
 416.42578125 68.9296875 416.42578125 68.9296875 416.42578125 58.57421875 c 128,-1,41
 416.42578125 48.2265625 416.42578125 48.2265625 409.099609375 40.900390625 c 128,-1,42
 401.7734375 33.57421875 401.7734375 33.57421875 391.41796875 33.57421875 c 128,-1,43
 381.0703125 33.57421875 381.0703125 33.57421875 373.744140625 40.900390625 c 2,44,-1
 90.900390625 323.744140625 l 1,45,46
 83.57421875 331.0703125 83.57421875 331.0703125 83.57421875 341.42578125 c 128,-1,47
 83.57421875 351.7734375 83.57421875 351.7734375 90.900390625 359.099609375 c 0,48,49
 96.6460379679 364.843718392 96.6460379679 364.843718392 104.66796875 366.11328125 c 0,34,35
250 325 m 128,-1,51
 302 325 302 325 338.5 288.5 c 128,-1,52
 375 252 375 252 375 200 c 128,-1,53
 375 148 375 148 338.5 111.5 c 128,-1,54
 302 75 302 75 250 75 c 128,-1,55
 198 75 198 75 161.5 111.5 c 128,-1,56
 125 148 125 148 125 200 c 128,-1,57
 125 252 125 252 161.5 288.5 c 128,-1,50
 198 325 198 325 250 325 c 128,-1,51
250 275 m 128,-1,59
 219 275 219 275 197 253 c 128,-1,60
 175 231 175 231 175 200 c 128,-1,61
 175 169 175 169 197 147 c 128,-1,62
 219 125 219 125 250 125 c 128,-1,63
 281 125 281 125 303 147 c 128,-1,64
 325 169 325 169 325 200 c 128,-1,65
 325 231 325 231 303 253 c 128,-1,58
 281 275 281 275 250 275 c 128,-1,59
EndSplineSet
EndChar

StartChar: L
Encoding: 76 76 43
Width: 500
Flags: W
LayerCount: 2
Fore
SplineSet
234.634765625 424.453125 m 0,0,1
 241.321876469 424.845703125 241.321876469 424.845703125 247.635742188 424.845703125 c 0,2,3
 254.959279186 424.845703125 254.959279186 424.845703125 262.255859375 424.376953125 c 0,4,-1
 262.512695312 424.376953125 l 0,5,6
 263.354003906 424.376953125 263.354003906 424.376953125 264.193359375 424.37109375 c 0,7,8
 279.674450873 423.363002436 279.674450873 423.363002436 294.861328125 420.2421875 c 2,9,-1
 294.861328125 420.2421875 l 0,10,-1
 295.583984375 420.13671875 l 1,11,12
 359.508091582 406.863904584 359.508091582 406.863904584 406.3984375 361.4375 c 0,13,14
 406.991315938 360.954030551 406.991315938 360.954030551 407.53515625 360.453125 c 0,15,16
 408.345196719 359.808873783 408.345196719 359.808873783 409.099609375 359.099609375 c 2,17,-1
 409.099609375 359.09765625 l 1,18,-1
 409.1171875 359.078125 l 1,19,20
 475.030273438 293.149229913 475.030273438 293.149229913 475.030273438 199.966796875 c 128,-1,21
 475.030273438 106.832635607 475.030273438 106.832635607 409.099609375 40.900390625 c 1,22,-1
 409.056640625 40.86328125 l 0,23,24
 408.651150414 40.4563632563 408.651150414 40.4563632563 408.2109375 40.0546875 c 2,25,-1
 408.1953125 40.044921875 l 0,26,27
 404.161201789 36.4142222351 404.161201789 36.4142222351 399.958984375 32.984375 c 0,28,29
 392.51302165 25.9905667207 392.51302165 25.9905667207 384.482421875 19.712890625 c 0,30,31
 377.219443645 14.6160637971 377.219443645 14.6160637971 369.57421875 10.10546875 c 0,32,33
 363.834354051 6.20177505412 363.834354051 6.20177505412 357.861328125 2.65625 c 0,34,35
 347.926770596 -2.52693311111 347.926770596 -2.52693311111 337.53515625 -6.6953125 c 0,36,37
 333.345830993 -8.69163763106 333.345830993 -8.69163763106 329.099609375 -10.50390625 c 0,38,39
 317.072792236 -14.8495684054 317.072792236 -14.8495684054 304.6328125 -17.8046875 c 0,40,41
 301.698067889 -18.6977414299 301.698067889 -18.6977414299 298.765625 -19.50390625 c 0,42,43
 284.973985187 -22.4606366116 284.973985187 -22.4606366116 270.921875 -23.671875 c 0,44,45
 269.213245948 -23.9261961763 269.213245948 -23.9261961763 267.48046875 -24.15625 c 0,46,47
 259.157786271 -24.76953125 259.157786271 -24.76953125 251.126953125 -24.76953125 c 0,48,49
 244.435679041 -24.76953125 244.435679041 -24.76953125 237.744140625 -24.376953125 c 0,50,-1
 237.487304688 -24.376953125 l 0,51,52
 236.645996094 -24.376953125 236.645996094 -24.376953125 235.806640625 -24.37109375 c 0,53,54
 220.325549127 -23.3630024363 220.325549127 -23.3630024363 205.138671875 -20.2421875 c 2,55,-1
 205.138671875 -20.2421875 l 0,56,-1
 204.416015625 -20.13671875 l 1,57,58
 140.491908418 -6.86390458402 140.491908418 -6.86390458402 93.6015625 38.5625 c 0,59,60
 93.0086840623 39.0459694492 93.0086840623 39.0459694492 92.46484375 39.546875 c 0,61,62
 91.6548032806 40.1911262172 91.6548032806 40.1911262172 90.900390625 40.900390625 c 2,63,-1
 90.900390625 40.90234375 l 1,64,-1
 90.89453125 40.908203125 l 1,65,66
 24.96875 106.838727123 24.96875 106.838727123 24.96875 200.032226562 c 128,-1,67
 24.96875 293.16796875 24.96875 293.16796875 90.900390625 359.099609375 c 1,68,-1
 90.943359375 359.13671875 l 0,69,70
 91.3488495862 359.543636744 91.3488495862 359.543636744 91.7890625 359.9453125 c 2,71,-1
 91.8046875 359.955078125 l 0,72,73
 95.838798211 363.585777765 95.838798211 363.585777765 100.041015625 367.015625 c 0,74,75
 107.48697835 374.009433279 107.48697835 374.009433279 115.517578125 380.287109375 c 0,76,77
 122.780556355 385.383936203 122.780556355 385.383936203 130.42578125 389.89453125 c 0,78,79
 136.165645949 393.798224946 136.165645949 393.798224946 142.138671875 397.34375 c 0,80,81
 152.073229404 402.526933111 152.073229404 402.526933111 162.46484375 406.6953125 c 0,82,83
 166.654169007 408.691637631 166.654169007 408.691637631 170.900390625 410.50390625 c 0,84,85
 182.927207764 414.849568405 182.927207764 414.849568405 195.3671875 417.8046875 c 0,86,87
 198.301932111 418.69774143 198.301932111 418.69774143 201.234375 419.50390625 c 0,88,89
 215.026014813 422.460636612 215.026014813 422.460636612 229.078125 423.671875 c 0,90,91
 230.786754052 423.926196176 230.786754052 423.926196176 232.51953125 424.15625 c 0,92,93
 233.615404946 424.314763024 233.615404946 424.314763024 234.634765625 424.453125 c 0,0,1
250 375 m 0,94,95
 193.138895157 375 193.138895157 375 147.13671875 341.578125 c 0,96,97
 135.993487094 333.481768344 135.993487094 333.481768344 126.255859375 323.744140625 c 0,98,99
 74.974609375 272.462890625 74.974609375 272.462890625 74.974609375 199.975585938 c 128,-1,100
 74.974609375 127.537109375 74.974609375 127.537109375 126.255859375 76.255859375 c 128,-1,101
 177.517578125 24.994140625 177.517578125 24.994140625 249.830078125 24.994140625 c 0,102,103
 263.742450421 24.994140625 263.742450421 24.994140625 277.376953125 27.154296875 c 0,104,105
 333.53771536 36.04943411 333.53771536 36.04943411 373.744140625 76.255859375 c 0,106,107
 425.025390625 127.537109375 425.025390625 127.537109375 425.025390625 200.024414062 c 128,-1,108
 425.025390625 272.462890625 425.025390625 272.462890625 373.744140625 323.744140625 c 128,-1,109
 322.48828125 375 322.48828125 375 250 375 c 0,94,95
104.66796875 366.11328125 m 0,110,111
 106.634460449 366.424804688 106.634460449 366.424804688 108.58203125 366.424804688 c 0,112,113
 118.929082971 366.424804688 118.929082971 366.424804688 126.255859375 359.099609375 c 2,114,-1
 409.099609375 76.255859375 l 1,115,116
 416.42578125 68.9296875 416.42578125 68.9296875 416.42578125 58.57421875 c 128,-1,117
 416.42578125 48.2265625 416.42578125 48.2265625 409.099609375 40.900390625 c 128,-1,118
 401.7734375 33.57421875 401.7734375 33.57421875 391.41796875 33.57421875 c 128,-1,119
 381.0703125 33.57421875 381.0703125 33.57421875 373.744140625 40.900390625 c 2,120,-1
 90.900390625 323.744140625 l 1,121,122
 83.57421875 331.0703125 83.57421875 331.0703125 83.57421875 341.42578125 c 128,-1,123
 83.57421875 351.7734375 83.57421875 351.7734375 90.900390625 359.099609375 c 0,124,125
 96.6460379679 364.843718392 96.6460379679 364.843718392 104.66796875 366.11328125 c 0,110,111
EndSplineSet
EndChar

StartChar: J
Encoding: 74 74 44
Width: 500
Flags: W
LayerCount: 2
Fore
SplineSet
250 425 m 0,0,1
 260 425 260 425 267.5 417.5 c 128,-1,2
 275 410 275 410 275 400 c 128,-1,3
 275 390 275 390 267.5 382.5 c 128,-1,4
 260 375 260 375 250 375 c 0,5,6
 178 375 178 375 126.5 323.5 c 128,-1,7
 75 272 75 272 75 200 c 128,-1,8
 75 128 75 128 126.5 76.5 c 128,-1,9
 178 25 178 25 250 25 c 128,-1,10
 322 25 322 25 373.5 76.5 c 128,-1,11
 425 128 425 128 425 200 c 0,12,13
 425 210 425 210 432.5 217.5 c 128,-1,14
 440 225 440 225 450 225 c 128,-1,15
 460 225 460 225 467.5 217.5 c 128,-1,16
 475 210 475 210 475 200 c 0,17,-1
 475 200.000976562 l 0,18,19
 475 199.384277344 475 199.384277344 474.970703125 198.7734375 c 2,20,-1
 474.96875 198.755859375 l 1,21,22
 474.455907295 106.037561462 474.455907295 106.037561462 408.619054958 40.5246384244 c 128,-1,23
 342.782202622 -24.9882846132 342.782202622 -24.9882846132 250 -25 c 0,24,25
 157 -25 157 -25 91 41 c 128,-1,26
 25 107 25 107 25 200 c 0,27,28
 25.092945445 292.076002609 25.092945445 292.076002609 89.8164879247 357.682576554 c 128,-1,29
 154.540030404 423.289150498 154.540030404 423.289150498 246.4375 424.744140625 c 0,30,31
 248.21224711 425 248.21224711 425 250 425 c 0,0,1
104.66796875 366.11328125 m 0,32,33
 106.634460449 366.424804688 106.634460449 366.424804688 108.58203125 366.424804688 c 0,34,35
 118.929082971 366.424804688 118.929082971 366.424804688 126.255859375 359.099609375 c 2,36,-1
 409.099609375 76.255859375 l 1,37,38
 416.42578125 68.9296875 416.42578125 68.9296875 416.42578125 58.57421875 c 128,-1,39
 416.42578125 48.2265625 416.42578125 48.2265625 409.099609375 40.900390625 c 128,-1,40
 401.7734375 33.57421875 401.7734375 33.57421875 391.41796875 33.57421875 c 128,-1,41
 381.0703125 33.57421875 381.0703125 33.57421875 373.744140625 40.900390625 c 2,42,-1
 90.900390625 323.744140625 l 1,43,44
 83.57421875 331.0703125 83.57421875 331.0703125 83.57421875 341.42578125 c 128,-1,45
 83.57421875 351.7734375 83.57421875 351.7734375 90.900390625 359.099609375 c 0,46,47
 96.6460379679 364.843718392 96.6460379679 364.843718392 104.66796875 366.11328125 c 0,32,33
250 325 m 128,-1,49
 302 325 302 325 338.5 288.5 c 128,-1,50
 375 252 375 252 375 200 c 128,-1,51
 375 148 375 148 338.5 111.5 c 128,-1,52
 302 75 302 75 250 75 c 128,-1,53
 198 75 198 75 161.5 111.5 c 128,-1,54
 125 148 125 148 125 200 c 128,-1,55
 125 252 125 252 161.5 288.5 c 128,-1,48
 198 325 198 325 250 325 c 128,-1,49
250 275 m 128,-1,57
 219 275 219 275 197 253 c 128,-1,58
 175 231 175 231 175 200 c 128,-1,59
 175 169 175 169 197 147 c 128,-1,60
 219 125 219 125 250 125 c 128,-1,61
 281 125 281 125 303 147 c 128,-1,62
 325 169 325 169 325 200 c 128,-1,63
 325 231 325 231 303 253 c 128,-1,56
 281 275 281 275 250 275 c 128,-1,57
EndSplineSet
EndChar

StartChar: asciicircum
Encoding: 94 94 45
Width: 500
Flags: W
LayerCount: 2
Fore
SplineSet
262.255859375 424.376953125 m 0,0,-1
 262.614257812 424.376953125 l 0,1,2
 263.535400391 424.376953125 263.535400391 424.376953125 264.193359375 424.372070312 c 0,3,4
 279.665319644 423.364573602 279.665319644 423.364573602 294.861328125 420.2421875 c 2,5,-1
 294.861328125 420.2421875 l 0,6,-1
 295.583984375 420.13671875 l 1,7,8
 359.506871114 406.864157995 359.506871114 406.864157995 406.3984375 361.436523438 c 0,9,10
 406.997945099 360.947924744 406.997945099 360.947924744 407.53515625 360.453125 c 0,11,12
 408.287633194 359.807945694 408.287633194 359.807945694 409.099609375 359.09765625 c 2,13,-1
 409.1171875 359.078125 l 1,14,15
 416.423828125 351.755675979 416.423828125 351.755675979 416.423828125 341.416015625 c 128,-1,16
 416.423828125 331.069940255 416.423828125 331.069940255 409.099609375 323.744140625 c 128,-1,17
 401.775018461 316.41796875 401.775018461 316.41796875 391.418945312 316.41796875 c 128,-1,18
 381.0703125 316.41796875 381.0703125 316.41796875 373.744140625 323.744140625 c 0,19,20
 322.578125 374.91015625 322.578125 374.91015625 249.842773438 374.91015625 c 0,21,22
 193.012119665 374.91015625 193.012119665 374.91015625 147.135742188 341.578125 c 0,23,24
 135.992211319 333.480492569 135.992211319 333.480492569 126.255859375 323.744140625 c 0,25,26
 118.9296875 316.41796875 118.9296875 316.41796875 108.57421875 316.41796875 c 128,-1,27
 98.2249815393 316.41796875 98.2249815393 316.41796875 90.900390625 323.744140625 c 128,-1,28
 83.57421875 331.0703125 83.57421875 331.0703125 83.57421875 341.42578125 c 128,-1,29
 83.57421875 351.775018461 83.57421875 351.775018461 90.900390625 359.099609375 c 1,30,-1
 90.9033203125 359.09765625 l 1,31,-1
 90.943359375 359.135742188 l 0,32,33
 95.3893672785 363.200080998 95.3893672785 363.200080998 100.041015625 367.015625 c 0,34,35
 107.470513677 373.995423757 107.470513677 373.995423757 115.517578125 380.287109375 c 0,36,37
 122.784930903 385.385540573 122.784930903 385.385540573 130.42578125 389.893554688 c 0,38,39
 136.160025325 393.794888603 136.160025325 393.794888603 142.138671875 397.34375 c 0,40,41
 152.060982879 402.522020673 152.060982879 402.522020673 162.46484375 406.6953125 c 0,42,43
 166.654169007 408.691637631 166.654169007 408.691637631 170.900390625 410.50390625 c 0,44,45
 182.926835216 414.849971405 182.926835216 414.849971405 195.3671875 417.803710938 c 0,46,47
 198.284894575 418.6930576 198.284894575 418.6930576 201.234375 419.50390625 c 0,48,49
 215.026014813 422.460636612 215.026014813 422.460636612 229.078125 423.671875 c 0,50,51
 230.754042157 423.921327169 230.754042157 423.921327169 232.51953125 424.157226562 c 0,52,53
 240.827492693 424.76953125 240.827492693 424.76953125 248.868164062 424.76953125 c 0,54,55
 255.58644224 424.76953125 255.58644224 424.76953125 262.255859375 424.376953125 c 0,0,-1
EndSplineSet
EndChar

StartChar: G
Encoding: 71 71 46
Width: 500
Flags: W
LayerCount: 2
Fore
SplineSet
250 425 m 0,0,-1
 249.999023438 425 l 0,1,2
 250.615722656 425 250.615722656 425 251.2265625 424.970703125 c 2,3,-1
 251.244140625 424.96875 l 1,4,5
 343.962438538 424.455907295 343.962438538 424.455907295 409.475361576 358.619054958 c 128,-1,6
 474.988284613 292.782202622 474.988284613 292.782202622 475 200 c 0,7,8
 475 107 475 107 409 41 c 128,-1,9
 343 -25 343 -25 250 -25 c 0,10,11
 157.923997391 -24.907054555 157.923997391 -24.907054555 92.3174234462 39.8164879247 c 128,-1,12
 26.7108495016 104.540030404 26.7108495016 104.540030404 25.255859375 196.4375 c 0,13,14
 25 198.21224711 25 198.21224711 25 200 c 0,15,16
 25 210 25 210 32.5 217.5 c 128,-1,17
 40 225 40 225 50 225 c 128,-1,18
 60 225 60 225 67.5 217.5 c 128,-1,19
 75 210 75 210 75 200 c 0,20,21
 75 128 75 128 126.5 76.5 c 128,-1,22
 178 25 178 25 250 25 c 128,-1,23
 322 25 322 25 373.5 76.5 c 128,-1,24
 425 128 425 128 425 200 c 128,-1,25
 425 272 425 272 373.5 323.5 c 128,-1,26
 322 375 322 375 250 375 c 0,27,28
 240 375 240 375 232.5 382.5 c 128,-1,29
 225 390 225 390 225 400 c 128,-1,30
 225 410 225 410 232.5 417.5 c 128,-1,31
 240 425 240 425 250 425 c 0,0,-1
104.66796875 366.11328125 m 0,32,33
 106.634460449 366.424804688 106.634460449 366.424804688 108.58203125 366.424804688 c 0,34,35
 118.929082971 366.424804688 118.929082971 366.424804688 126.255859375 359.099609375 c 2,36,-1
 409.099609375 76.255859375 l 1,37,38
 416.42578125 68.9296875 416.42578125 68.9296875 416.42578125 58.57421875 c 128,-1,39
 416.42578125 48.2265625 416.42578125 48.2265625 409.099609375 40.900390625 c 128,-1,40
 401.7734375 33.57421875 401.7734375 33.57421875 391.41796875 33.57421875 c 128,-1,41
 381.0703125 33.57421875 381.0703125 33.57421875 373.744140625 40.900390625 c 2,42,-1
 90.900390625 323.744140625 l 1,43,44
 83.57421875 331.0703125 83.57421875 331.0703125 83.57421875 341.42578125 c 128,-1,45
 83.57421875 351.7734375 83.57421875 351.7734375 90.900390625 359.099609375 c 0,46,47
 96.6460379679 364.843718392 96.6460379679 364.843718392 104.66796875 366.11328125 c 0,32,33
EndSplineSet
EndChar

StartChar: S
Encoding: 83 83 47
Width: 500
Flags: W
LayerCount: 2
Fore
SplineSet
250 425 m 0,0,1
 260 425 260 425 267.5 417.5 c 128,-1,2
 275 410 275 410 275 400 c 128,-1,3
 275 390 275 390 267.5 382.5 c 128,-1,4
 260 375 260 375 250 375 c 0,5,6
 178 375 178 375 126.5 323.5 c 128,-1,7
 75 272 75 272 75 200 c 128,-1,8
 75 128 75 128 126.5 76.5 c 128,-1,9
 178 25 178 25 250 25 c 128,-1,10
 322 25 322 25 373.5 76.5 c 128,-1,11
 425 128 425 128 425 200 c 0,12,13
 425 210 425 210 432.5 217.5 c 128,-1,14
 440 225 440 225 450 225 c 128,-1,15
 460 225 460 225 467.5 217.5 c 128,-1,16
 475 210 475 210 475 200 c 0,17,-1
 475 200.000976562 l 0,18,19
 475 199.384277344 475 199.384277344 474.970703125 198.7734375 c 2,20,-1
 474.96875 198.755859375 l 1,21,22
 474.455907295 106.037561462 474.455907295 106.037561462 408.619054958 40.5246384244 c 128,-1,23
 342.782202622 -24.9882846132 342.782202622 -24.9882846132 250 -25 c 0,24,25
 157 -25 157 -25 91 41 c 128,-1,26
 25 107 25 107 25 200 c 0,27,28
 25.092945445 292.076002609 25.092945445 292.076002609 89.8164879247 357.682576554 c 128,-1,29
 154.540030404 423.289150498 154.540030404 423.289150498 246.4375 424.744140625 c 0,30,31
 248.21224711 425 248.21224711 425 250 425 c 0,0,1
EndSplineSet
EndChar

StartChar: R
Encoding: 82 82 48
Width: 500
Flags: W
LayerCount: 2
Fore
SplineSet
234.634765625 424.453125 m 0,0,1
 241.321876469 424.845703125 241.321876469 424.845703125 247.635742188 424.845703125 c 0,2,3
 254.959279186 424.845703125 254.959279186 424.845703125 262.255859375 424.376953125 c 0,4,-1
 262.512695312 424.376953125 l 0,5,6
 263.354003906 424.376953125 263.354003906 424.376953125 264.193359375 424.37109375 c 0,7,8
 279.674450873 423.363002436 279.674450873 423.363002436 294.861328125 420.2421875 c 2,9,-1
 294.861328125 420.2421875 l 0,10,-1
 295.583984375 420.13671875 l 1,11,12
 359.508091582 406.863904584 359.508091582 406.863904584 406.3984375 361.4375 c 0,13,14
 406.991315938 360.954030551 406.991315938 360.954030551 407.53515625 360.453125 c 0,15,16
 408.345196719 359.808873783 408.345196719 359.808873783 409.099609375 359.099609375 c 2,17,-1
 409.099609375 359.09765625 l 1,18,-1
 409.1171875 359.078125 l 1,19,20
 475.030273438 293.149229913 475.030273438 293.149229913 475.030273438 199.966796875 c 128,-1,21
 475.030273438 106.832635607 475.030273438 106.832635607 409.099609375 40.900390625 c 1,22,-1
 409.056640625 40.86328125 l 0,23,24
 408.651150414 40.4563632563 408.651150414 40.4563632563 408.2109375 40.0546875 c 2,25,-1
 408.1953125 40.044921875 l 0,26,27
 404.161201789 36.4142222351 404.161201789 36.4142222351 399.958984375 32.984375 c 0,28,29
 392.51302165 25.9905667207 392.51302165 25.9905667207 384.482421875 19.712890625 c 0,30,31
 377.219443645 14.6160637971 377.219443645 14.6160637971 369.57421875 10.10546875 c 0,32,33
 363.834354051 6.20177505412 363.834354051 6.20177505412 357.861328125 2.65625 c 0,34,35
 347.926770596 -2.52693311111 347.926770596 -2.52693311111 337.53515625 -6.6953125 c 0,36,37
 333.345830993 -8.69163763106 333.345830993 -8.69163763106 329.099609375 -10.50390625 c 0,38,39
 317.072792236 -14.8495684054 317.072792236 -14.8495684054 304.6328125 -17.8046875 c 0,40,41
 301.698067889 -18.6977414299 301.698067889 -18.6977414299 298.765625 -19.50390625 c 0,42,43
 284.973985187 -22.4606366116 284.973985187 -22.4606366116 270.921875 -23.671875 c 0,44,45
 269.213245948 -23.9261961763 269.213245948 -23.9261961763 267.48046875 -24.15625 c 0,46,47
 259.157786271 -24.76953125 259.157786271 -24.76953125 251.126953125 -24.76953125 c 0,48,49
 244.435679041 -24.76953125 244.435679041 -24.76953125 237.744140625 -24.376953125 c 0,50,-1
 237.487304688 -24.376953125 l 0,51,52
 236.645996094 -24.376953125 236.645996094 -24.376953125 235.806640625 -24.37109375 c 0,53,54
 220.325549127 -23.3630024363 220.325549127 -23.3630024363 205.138671875 -20.2421875 c 2,55,-1
 205.138671875 -20.2421875 l 0,56,-1
 204.416015625 -20.13671875 l 1,57,58
 140.491908418 -6.86390458402 140.491908418 -6.86390458402 93.6015625 38.5625 c 0,59,60
 93.0086840623 39.0459694492 93.0086840623 39.0459694492 92.46484375 39.546875 c 0,61,62
 91.6548032806 40.1911262172 91.6548032806 40.1911262172 90.900390625 40.900390625 c 2,63,-1
 90.900390625 40.90234375 l 1,64,-1
 90.89453125 40.908203125 l 1,65,66
 24.96875 106.838727123 24.96875 106.838727123 24.96875 200.032226562 c 128,-1,67
 24.96875 293.16796875 24.96875 293.16796875 90.900390625 359.099609375 c 1,68,-1
 90.943359375 359.13671875 l 0,69,70
 91.3488495862 359.543636744 91.3488495862 359.543636744 91.7890625 359.9453125 c 2,71,-1
 91.8046875 359.955078125 l 0,72,73
 95.838798211 363.585777765 95.838798211 363.585777765 100.041015625 367.015625 c 0,74,75
 107.48697835 374.009433279 107.48697835 374.009433279 115.517578125 380.287109375 c 0,76,77
 122.780556355 385.383936203 122.780556355 385.383936203 130.42578125 389.89453125 c 0,78,79
 136.165645949 393.798224946 136.165645949 393.798224946 142.138671875 397.34375 c 0,80,81
 152.073229404 402.526933111 152.073229404 402.526933111 162.46484375 406.6953125 c 0,82,83
 166.654169007 408.691637631 166.654169007 408.691637631 170.900390625 410.50390625 c 0,84,85
 182.927207764 414.849568405 182.927207764 414.849568405 195.3671875 417.8046875 c 0,86,87
 198.301932111 418.69774143 198.301932111 418.69774143 201.234375 419.50390625 c 0,88,89
 215.026014813 422.460636612 215.026014813 422.460636612 229.078125 423.671875 c 0,90,91
 230.786754052 423.926196176 230.786754052 423.926196176 232.51953125 424.15625 c 0,92,93
 233.615404946 424.314763024 233.615404946 424.314763024 234.634765625 424.453125 c 0,0,1
250 375 m 0,94,95
 193.138895157 375 193.138895157 375 147.13671875 341.578125 c 0,96,97
 135.993487094 333.481768344 135.993487094 333.481768344 126.255859375 323.744140625 c 0,98,99
 74.974609375 272.462890625 74.974609375 272.462890625 74.974609375 199.975585938 c 128,-1,100
 74.974609375 127.537109375 74.974609375 127.537109375 126.255859375 76.255859375 c 128,-1,101
 177.517578125 24.994140625 177.517578125 24.994140625 249.830078125 24.994140625 c 0,102,103
 263.742450421 24.994140625 263.742450421 24.994140625 277.376953125 27.154296875 c 0,104,105
 333.53771536 36.04943411 333.53771536 36.04943411 373.744140625 76.255859375 c 0,106,107
 425.025390625 127.537109375 425.025390625 127.537109375 425.025390625 200.024414062 c 128,-1,108
 425.025390625 272.462890625 425.025390625 272.462890625 373.744140625 323.744140625 c 128,-1,109
 322.48828125 375 322.48828125 375 250 375 c 0,94,95
EndSplineSet
EndChar

StartChar: F
Encoding: 70 70 49
Width: 500
Flags: W
LayerCount: 2
Fore
SplineSet
233.94921875 424.427734375 m 0,0,1
 242.404418635 425.032226562 242.404418635 425.032226562 250.03125 425.032226562 c 0,2,3
 343.166992188 425.032226562 343.166992188 425.032226562 409.099609375 359.099609375 c 128,-1,4
 474.852539062 293.212351353 474.852539062 293.212351353 474.852539062 200.111328125 c 0,5,6
 474.852539062 109.056903282 474.852539062 109.056903282 411.4375 43.6015625 c 0,7,8
 410.363704819 42.1644860693 410.363704819 42.1644860693 409.099609375 40.900390625 c 0,9,10
 401.7734375 33.57421875 401.7734375 33.57421875 391.41796875 33.57421875 c 128,-1,11
 381.0703125 33.57421875 381.0703125 33.57421875 373.744140625 40.900390625 c 128,-1,12
 366.41796875 48.2265625 366.41796875 48.2265625 366.41796875 58.58203125 c 128,-1,13
 366.41796875 68.9296875 366.41796875 68.9296875 373.744140625 76.255859375 c 0,14,15
 425.025390625 127.537109375 425.025390625 127.537109375 425.025390625 200.024414062 c 128,-1,16
 425.025390625 272.462890625 425.025390625 272.462890625 373.744140625 323.744140625 c 128,-1,17
 322.462890625 375.025390625 322.462890625 375.025390625 249.975585938 375.025390625 c 128,-1,18
 177.537109375 375.025390625 177.537109375 375.025390625 126.255859375 323.744140625 c 128,-1,19
 74.974609375 272.462890625 74.974609375 272.462890625 74.974609375 199.975585938 c 128,-1,20
 74.974609375 127.537109375 74.974609375 127.537109375 126.255859375 76.255859375 c 0,21,22
 133.58203125 68.9296875 133.58203125 68.9296875 133.58203125 58.57421875 c 128,-1,23
 133.58203125 48.2265625 133.58203125 48.2265625 126.255859375 40.900390625 c 128,-1,24
 118.9296875 33.57421875 118.9296875 33.57421875 108.57421875 33.57421875 c 128,-1,25
 98.2265625 33.57421875 98.2265625 33.57421875 90.900390625 40.900390625 c 1,26,-1
 90.90234375 40.90234375 l 0,27,28
 90.4657047857 41.3375223833 90.4657047857 41.3375223833 90.0546875 41.7890625 c 2,29,-1
 90.044921875 41.8046875 l 1,30,31
 24.9912109375 107.582042564 24.9912109375 107.582042564 24.9912109375 200.052734375 c 0,32,33
 24.9912109375 293.171086597 24.9912109375 293.171086597 90.90234375 359.099609375 c 0,34,35
 150.242832829 418.440098454 150.242832829 418.440098454 233.94921875 424.427734375 c 0,0,1
EndSplineSet
EndChar

StartChar: bracketright
Encoding: 93 93 50
Width: 500
Flags: W
LayerCount: 2
Fore
SplineSet
250 525 m 0,0,1
 301.06740658 525 301.06740658 525 337.452992959 489.25055354 c 128,-1,2
 373.838579337 453.50110708 373.838579337 453.50110708 374.87109375 402.556640625 c 0,3,4
 374.878976988 402.17123786 374.878976988 402.17123786 374.939488494 401.31718929 c 128,-1,5
 375 400.46314072 375 400.46314072 375 400 c 2,6,-1
 375 0 l 2,7,8
 375 -0.463009717988 375 -0.463009717988 374.93949115 -1.31677483742 c 128,-1,9
 374.878982299 -2.17053995686 374.878982299 -2.17053995686 374.87109375 -2.556640625 c 0,10,11
 373.838579337 -53.5011070799 373.838579337 -53.5011070799 337.452992959 -89.25055354 c 128,-1,12
 301.06740658 -125 301.06740658 -125 250 -125 c 0,13,14
 198.75689324 -124.673098557 198.75689324 -124.673098557 161.611328125 -88.388671875 c 0,15,16
 154.289306641 -81.0666503906 154.289306641 -81.0666503906 154.289306641 -70.7109375 c 128,-1,17
 154.289306641 -60.3552246094 154.289306641 -60.3552246094 161.611328125 -53.033203125 c 128,-1,18
 168.933349609 -45.7111816406 168.933349609 -45.7111816406 179.2890625 -45.7111816406 c 128,-1,19
 189.644775391 -45.7111816406 189.644775391 -45.7111816406 196.966796875 -53.033203125 c 1,20,-1
 197.16796875 -52.83203125 l 1,21,22
 219.002791354 -74.8342552133 219.002791354 -74.8342552133 250 -75 c 128,-1,23
 281 -75 281 -75 303 -53 c 128,-1,24
 325 -31 325 -31 325 0 c 2,25,-1
 325 400 l 2,26,27
 325 431 325 431 303 453 c 128,-1,28
 281 475 281 475 250 475 c 128,-1,29
 219.002791354 474.834255213 219.002791354 474.834255213 197.16796875 452.83203125 c 1,30,-1
 196.966796875 453.033203125 l 1,31,32
 189.644775391 445.711181641 189.644775391 445.711181641 179.2890625 445.711181641 c 128,-1,33
 168.933349609 445.711181641 168.933349609 445.711181641 161.611328125 453.033203125 c 128,-1,34
 154.289306641 460.355224609 154.289306641 460.355224609 154.289306641 470.7109375 c 128,-1,35
 154.289306641 481.066650391 154.289306641 481.066650391 161.611328125 488.388671875 c 0,36,37
 198.754404448 524.673182595 198.754404448 524.673182595 250 525 c 0,0,1
EndSplineSet
EndChar

StartChar: B
Encoding: 66 66 51
Width: 500
Flags: W
LayerCount: 2
Fore
SplineSet
264.0546875 424.390625 m 0,0,1
 346.8300979 419.149204604 346.8300979 419.149204604 406.3984375 361.4375 c 0,2,3
 407.835513931 360.363704819 407.835513931 360.363704819 409.099609375 359.099609375 c 0,4,5
 416.42578125 351.7734375 416.42578125 351.7734375 416.42578125 341.41796875 c 128,-1,6
 416.42578125 331.0703125 416.42578125 331.0703125 409.099609375 323.744140625 c 128,-1,7
 401.7734375 316.41796875 401.7734375 316.41796875 391.41796875 316.41796875 c 128,-1,8
 381.0703125 316.41796875 381.0703125 316.41796875 373.744140625 323.744140625 c 0,9,10
 322.462890625 375.025390625 322.462890625 375.025390625 249.975585938 375.025390625 c 128,-1,11
 177.537109375 375.025390625 177.537109375 375.025390625 126.255859375 323.744140625 c 128,-1,12
 74.974609375 272.462890625 74.974609375 272.462890625 74.974609375 199.975585938 c 128,-1,13
 74.974609375 127.537109375 74.974609375 127.537109375 126.255859375 76.255859375 c 128,-1,14
 177.537109375 24.974609375 177.537109375 24.974609375 250.024414062 24.974609375 c 128,-1,15
 322.462890625 24.974609375 322.462890625 24.974609375 373.744140625 76.255859375 c 0,16,17
 381.0703125 83.58203125 381.0703125 83.58203125 391.42578125 83.58203125 c 128,-1,18
 401.7734375 83.58203125 401.7734375 83.58203125 409.099609375 76.255859375 c 128,-1,19
 416.42578125 68.9296875 416.42578125 68.9296875 416.42578125 58.57421875 c 128,-1,20
 416.42578125 48.2265625 416.42578125 48.2265625 409.099609375 40.900390625 c 1,21,-1
 409.09765625 40.90234375 l 0,22,23
 408.662477617 40.4657047857 408.662477617 40.4657047857 408.2109375 40.0546875 c 2,24,-1
 408.1953125 40.044921875 l 1,25,26
 342.417957436 -25.0087890625 342.417957436 -25.0087890625 249.947265625 -25.0087890625 c 0,27,28
 156.828913403 -25.0087890625 156.828913403 -25.0087890625 90.900390625 40.90234375 c 128,-1,29
 24.96875 106.833984375 24.96875 106.833984375 24.96875 200.032226562 c 128,-1,30
 24.96875 293.16796875 24.96875 293.16796875 90.900390625 359.099609375 c 128,-1,31
 156.779215385 424.845703125 156.779215385 424.845703125 249.650390625 424.845703125 c 0,32,33
 256.872111398 424.845703125 256.872111398 424.845703125 264.0546875 424.390625 c 0,0,1
104.66796875 366.11328125 m 0,34,35
 106.634460449 366.424804688 106.634460449 366.424804688 108.58203125 366.424804688 c 0,36,37
 118.929082971 366.424804688 118.929082971 366.424804688 126.255859375 359.099609375 c 2,38,-1
 409.099609375 76.255859375 l 1,39,40
 416.42578125 68.9296875 416.42578125 68.9296875 416.42578125 58.57421875 c 128,-1,41
 416.42578125 48.2265625 416.42578125 48.2265625 409.099609375 40.900390625 c 128,-1,42
 401.7734375 33.57421875 401.7734375 33.57421875 391.41796875 33.57421875 c 128,-1,43
 381.0703125 33.57421875 381.0703125 33.57421875 373.744140625 40.900390625 c 2,44,-1
 90.900390625 323.744140625 l 1,45,46
 83.57421875 331.0703125 83.57421875 331.0703125 83.57421875 341.42578125 c 128,-1,47
 83.57421875 351.7734375 83.57421875 351.7734375 90.900390625 359.099609375 c 0,48,49
 96.6460379679 364.843718392 96.6460379679 364.843718392 104.66796875 366.11328125 c 0,34,35
EndSplineSet
EndChar

StartChar: V
Encoding: 86 86 52
Width: 500
Flags: W
LayerCount: 2
Fore
SplineSet
233.94921875 424.427734375 m 0,0,1
 242.404418635 425.032226562 242.404418635 425.032226562 250.03125 425.032226562 c 0,2,3
 343.166992188 425.032226562 343.166992188 425.032226562 409.099609375 359.099609375 c 128,-1,4
 474.852539062 293.212351353 474.852539062 293.212351353 474.852539062 200.111328125 c 0,5,6
 474.852539062 109.056903282 474.852539062 109.056903282 411.4375 43.6015625 c 0,7,8
 410.363704819 42.1644860693 410.363704819 42.1644860693 409.099609375 40.900390625 c 0,9,10
 401.7734375 33.57421875 401.7734375 33.57421875 391.41796875 33.57421875 c 128,-1,11
 381.0703125 33.57421875 381.0703125 33.57421875 373.744140625 40.900390625 c 128,-1,12
 366.41796875 48.2265625 366.41796875 48.2265625 366.41796875 58.58203125 c 128,-1,13
 366.41796875 68.9296875 366.41796875 68.9296875 373.744140625 76.255859375 c 0,14,15
 425.025390625 127.537109375 425.025390625 127.537109375 425.025390625 200.024414062 c 128,-1,16
 425.025390625 272.462890625 425.025390625 272.462890625 373.744140625 323.744140625 c 128,-1,17
 322.462890625 375.025390625 322.462890625 375.025390625 249.975585938 375.025390625 c 128,-1,18
 177.537109375 375.025390625 177.537109375 375.025390625 126.255859375 323.744140625 c 128,-1,19
 74.974609375 272.462890625 74.974609375 272.462890625 74.974609375 199.975585938 c 128,-1,20
 74.974609375 127.537109375 74.974609375 127.537109375 126.255859375 76.255859375 c 0,21,22
 133.58203125 68.9296875 133.58203125 68.9296875 133.58203125 58.57421875 c 128,-1,23
 133.58203125 48.2265625 133.58203125 48.2265625 126.255859375 40.900390625 c 128,-1,24
 118.9296875 33.57421875 118.9296875 33.57421875 108.57421875 33.57421875 c 128,-1,25
 98.2265625 33.57421875 98.2265625 33.57421875 90.900390625 40.900390625 c 1,26,-1
 90.90234375 40.90234375 l 0,27,28
 90.4657047857 41.3375223833 90.4657047857 41.3375223833 90.0546875 41.7890625 c 2,29,-1
 90.044921875 41.8046875 l 1,30,31
 24.9912109375 107.582042564 24.9912109375 107.582042564 24.9912109375 200.052734375 c 0,32,33
 24.9912109375 293.171086597 24.9912109375 293.171086597 90.90234375 359.099609375 c 0,34,35
 150.242832829 418.440098454 150.242832829 418.440098454 233.94921875 424.427734375 c 0,0,1
104.66796875 366.11328125 m 0,36,37
 106.634460449 366.424804688 106.634460449 366.424804688 108.58203125 366.424804688 c 0,38,39
 118.929082971 366.424804688 118.929082971 366.424804688 126.255859375 359.099609375 c 2,40,-1
 409.099609375 76.255859375 l 1,41,42
 416.42578125 68.9296875 416.42578125 68.9296875 416.42578125 58.57421875 c 128,-1,43
 416.42578125 48.2265625 416.42578125 48.2265625 409.099609375 40.900390625 c 128,-1,44
 401.7734375 33.57421875 401.7734375 33.57421875 391.41796875 33.57421875 c 128,-1,45
 381.0703125 33.57421875 381.0703125 33.57421875 373.744140625 40.900390625 c 2,46,-1
 90.900390625 323.744140625 l 1,47,48
 83.57421875 331.0703125 83.57421875 331.0703125 83.57421875 341.42578125 c 128,-1,49
 83.57421875 351.7734375 83.57421875 351.7734375 90.900390625 359.099609375 c 0,50,51
 96.6460379679 364.843718392 96.6460379679 364.843718392 104.66796875 366.11328125 c 0,36,37
EndSplineSet
EndChar

StartChar: M
Encoding: 77 77 53
Width: 500
Flags: W
LayerCount: 2
Fore
SplineSet
250 425 m 0,0,1
 342.076002609 424.907054555 342.076002609 424.907054555 407.682576554 360.183512075 c 128,-1,2
 473.289150498 295.459969596 473.289150498 295.459969596 474.744140625 203.5625 c 0,3,4
 475 201.78775289 475 201.78775289 475 200 c 0,5,6
 475 190 475 190 467.5 182.5 c 128,-1,7
 460 175 460 175 450 175 c 128,-1,8
 440 175 440 175 432.5 182.5 c 128,-1,9
 425 190 425 190 425 200 c 0,10,11
 425 272 425 272 373.5 323.5 c 128,-1,12
 322 375 322 375 250 375 c 128,-1,13
 178 375 178 375 126.5 323.5 c 128,-1,14
 75 272 75 272 75 200 c 128,-1,15
 75 128 75 128 126.5 76.5 c 128,-1,16
 178 25 178 25 250 25 c 0,17,18
 260 25 260 25 267.5 17.5 c 128,-1,19
 275 10 275 10 275 0 c 128,-1,20
 275 -10 275 -10 267.5 -17.5 c 128,-1,21
 260 -25 260 -25 250 -25 c 0,22,-1
 250.000976562 -25 l 0,23,24
 249.384277344 -25 249.384277344 -25 248.7734375 -24.970703125 c 2,25,-1
 248.755859375 -24.96875 l 1,26,27
 156.037561462 -24.4559072949 156.037561462 -24.4559072949 90.5246384244 41.3809450415 c 128,-1,28
 25.0117153868 107.217797378 25.0117153868 107.217797378 25 200 c 0,29,30
 25 293 25 293 91 359 c 128,-1,31
 157 425 157 425 250 425 c 0,0,1
EndSplineSet
EndChar

StartChar: Z
Encoding: 90 90 54
Width: 500
Flags: W
LayerCount: 2
Fore
SplineSet
250 425 m 0,0,1
 260 425 260 425 267.5 417.5 c 128,-1,2
 275 410 275 410 275 400 c 128,-1,3
 275 390 275 390 267.5 382.5 c 128,-1,4
 260 375 260 375 250 375 c 0,5,6
 178 375 178 375 126.5 323.5 c 128,-1,7
 75 272 75 272 75 200 c 128,-1,8
 75 128 75 128 126.5 76.5 c 128,-1,9
 178 25 178 25 250 25 c 128,-1,10
 322 25 322 25 373.5 76.5 c 128,-1,11
 425 128 425 128 425 200 c 0,12,13
 425 210 425 210 432.5 217.5 c 128,-1,14
 440 225 440 225 450 225 c 128,-1,15
 460 225 460 225 467.5 217.5 c 128,-1,16
 475 210 475 210 475 200 c 0,17,-1
 475 200.000976562 l 0,18,19
 475 199.384277344 475 199.384277344 474.970703125 198.7734375 c 2,20,-1
 474.96875 198.755859375 l 1,21,22
 474.455907295 106.037561462 474.455907295 106.037561462 408.619054958 40.5246384244 c 128,-1,23
 342.782202622 -24.9882846132 342.782202622 -24.9882846132 250 -25 c 0,24,25
 157 -25 157 -25 91 41 c 128,-1,26
 25 107 25 107 25 200 c 0,27,28
 25.092945445 292.076002609 25.092945445 292.076002609 89.8164879247 357.682576554 c 128,-1,29
 154.540030404 423.289150498 154.540030404 423.289150498 246.4375 424.744140625 c 0,30,31
 248.21224711 425 248.21224711 425 250 425 c 0,0,1
104.66796875 366.11328125 m 0,32,33
 106.634460449 366.424804688 106.634460449 366.424804688 108.58203125 366.424804688 c 0,34,35
 118.929082971 366.424804688 118.929082971 366.424804688 126.255859375 359.099609375 c 2,36,-1
 409.099609375 76.255859375 l 1,37,38
 416.42578125 68.9296875 416.42578125 68.9296875 416.42578125 58.57421875 c 128,-1,39
 416.42578125 48.2265625 416.42578125 48.2265625 409.099609375 40.900390625 c 128,-1,40
 401.7734375 33.57421875 401.7734375 33.57421875 391.41796875 33.57421875 c 128,-1,41
 381.0703125 33.57421875 381.0703125 33.57421875 373.744140625 40.900390625 c 2,42,-1
 90.900390625 323.744140625 l 1,43,44
 83.57421875 331.0703125 83.57421875 331.0703125 83.57421875 341.42578125 c 128,-1,45
 83.57421875 351.7734375 83.57421875 351.7734375 90.900390625 359.099609375 c 0,46,47
 96.6460379679 364.843718392 96.6460379679 364.843718392 104.66796875 366.11328125 c 0,32,33
EndSplineSet
EndChar

StartChar: N
Encoding: 78 78 55
Width: 500
Flags: W
LayerCount: 2
Fore
SplineSet
250 425 m 0,0,1
 342.076002609 424.907054555 342.076002609 424.907054555 407.682576554 360.183512075 c 128,-1,2
 473.289150498 295.459969596 473.289150498 295.459969596 474.744140625 203.5625 c 0,3,4
 475 201.78775289 475 201.78775289 475 200 c 0,5,6
 475 190 475 190 467.5 182.5 c 128,-1,7
 460 175 460 175 450 175 c 128,-1,8
 440 175 440 175 432.5 182.5 c 128,-1,9
 425 190 425 190 425 200 c 0,10,11
 425 272 425 272 373.5 323.5 c 128,-1,12
 322 375 322 375 250 375 c 128,-1,13
 178 375 178 375 126.5 323.5 c 128,-1,14
 75 272 75 272 75 200 c 128,-1,15
 75 128 75 128 126.5 76.5 c 128,-1,16
 178 25 178 25 250 25 c 0,17,18
 260 25 260 25 267.5 17.5 c 128,-1,19
 275 10 275 10 275 0 c 128,-1,20
 275 -10 275 -10 267.5 -17.5 c 128,-1,21
 260 -25 260 -25 250 -25 c 0,22,-1
 250.000976562 -25 l 0,23,24
 249.384277344 -25 249.384277344 -25 248.7734375 -24.970703125 c 2,25,-1
 248.755859375 -24.96875 l 1,26,27
 156.037561462 -24.4559072949 156.037561462 -24.4559072949 90.5246384244 41.3809450415 c 128,-1,28
 25.0117153868 107.217797378 25.0117153868 107.217797378 25 200 c 0,29,30
 25 293 25 293 91 359 c 128,-1,31
 157 425 157 425 250 425 c 0,0,1
104.66796875 366.11328125 m 0,32,33
 106.634460449 366.424804688 106.634460449 366.424804688 108.58203125 366.424804688 c 0,34,35
 118.929082971 366.424804688 118.929082971 366.424804688 126.255859375 359.099609375 c 2,36,-1
 409.099609375 76.255859375 l 1,37,38
 416.42578125 68.9296875 416.42578125 68.9296875 416.42578125 58.57421875 c 128,-1,39
 416.42578125 48.2265625 416.42578125 48.2265625 409.099609375 40.900390625 c 128,-1,40
 401.7734375 33.57421875 401.7734375 33.57421875 391.41796875 33.57421875 c 128,-1,41
 381.0703125 33.57421875 381.0703125 33.57421875 373.744140625 40.900390625 c 2,42,-1
 90.900390625 323.744140625 l 1,43,44
 83.57421875 331.0703125 83.57421875 331.0703125 83.57421875 341.42578125 c 128,-1,45
 83.57421875 351.7734375 83.57421875 351.7734375 90.900390625 359.099609375 c 0,46,47
 96.6460379679 364.843718392 96.6460379679 364.843718392 104.66796875 366.11328125 c 0,32,33
EndSplineSet
EndChar

StartChar: W
Encoding: 87 87 56
Width: 0
GlyphClass: 4
Flags: W
LayerCount: 2
Fore
SplineSet
-200 25 m 128,-1,1
 -190 25 -190 25 -182.5 17.5 c 128,-1,2
 -175 10 -175 10 -175 0 c 0,3,4
 -175 -72 -175 -72 -123.5 -123.5 c 128,-1,5
 -72 -175 -72 -175 0 -175 c 0,6,7
 13.7715689433 -175 13.7715689433 -175 27.376953125 -172.845703125 c 0,8,9
 90.4779758174 -162.851006399 90.4779758174 -162.851006399 132.738987909 -113.899300889 c 128,-1,10
 175 -64.9475953798 175 -64.9475953798 175 0 c 0,11,12
 175 10 175 10 182.5 17.5 c 128,-1,13
 190 25 190 25 200 25 c 0,14,15
 209.374241769 25 209.374241769 25 216.403149679 18.8485589774 c 128,-1,16
 223.43205759 12.6971179549 223.43205759 12.6971179549 224.74609375 3.55859375 c 0,17,18
 224.883262136 1.83338312777 224.883262136 1.83338312777 225 0 c 0,19,20
 224.729467272 -6.13111069225 224.729467272 -6.13111069225 224.123046875 -12.248046875 c 0,21,22
 223.805224842 -22.5454807336 223.805224842 -22.5454807336 222.548828125 -32.759765625 c 0,23,24
 221.500868424 -38.2173984503 221.500868424 -38.2173984503 220.189453125 -43.603515625 c 0,25,26
 218.390007521 -53.9411619687 218.390007521 -53.9411619687 215.638671875 -64.05859375 c 0,27,28
 213.934342745 -68.9734033331 213.934342745 -68.9734033331 211.9921875 -73.833984375 c 0,29,30
 208.661433774 -84.1172822869 208.661433774 -84.1172822869 204.361328125 -94.03125 c 0,31,32
 201.996196052 -98.6062794717 201.996196052 -98.6062794717 199.421875 -103.07421875 c 0,33,34
 194.640430872 -112.840603862 194.640430872 -112.840603862 188.94140625 -122.09765625 c 0,35,36
 185.983115804 -126.242184643 185.983115804 -126.242184643 182.85546875 -130.228515625 c 0,37,38
 176.705052427 -139.273673563 176.705052427 -139.273673563 169.69140625 -147.6953125 c 0,39,40
 166.183972029 -151.365612654 166.183972029 -151.365612654 162.513671875 -154.873046875 c 0,41,42
 155.136604757 -162.960595294 155.136604757 -162.960595294 147.01953125 -170.28515625 c 0,43,44
 142.775676566 -173.623985604 142.775676566 -173.623985604 138.365234375 -176.763671875 c 0,45,46
 130.156895885 -183.504826487 130.156895885 -183.504826487 121.35546875 -189.439453125 c 0,47,48
 116.765477768 -192.087524845 116.765477768 -192.087524845 112.06640625 -194.51171875 c 0,49,50
 102.895519723 -200.081333186 102.895519723 -200.081333186 93.220703125 -204.759765625 c 0,51,52
 88.6088703749 -206.597419481 88.6088703749 -206.597419481 83.89453125 -208.23828125 c 0,53,54
 73.7566286451 -212.584155021 73.7566286451 -212.584155021 63.216796875 -215.923828125 c 0,55,56
 56.8816085103 -217.495772665 56.8816085103 -217.495772665 50.46875 -218.697265625 c 0,57,58
 41.3054625887 -221.093293397 41.3054625887 -221.093293397 31.943359375 -222.71484375 c 0,59,60
 16.0500805648 -224.997129814 16.0500805648 -224.997129814 0 -225 c 0,61,62
 -92.0760026092 -224.907054555 -92.0760026092 -224.907054555 -157.682576554 -160.183512075 c 128,-1,63
 -223.289150498 -95.4599695955 -223.289150498 -95.4599695955 -224.744140625 -3.5625 c 0,64,65
 -225 -1.78775289017 -225 -1.78775289017 -225 0 c 0,66,67
 -225 10 -225 10 -217.5 17.5 c 128,-1,0
 -210 25 -210 25 -200 25 c 128,-1,1
EndSplineSet
EndChar

StartChar: C
Encoding: 67 67 57
Width: 500
Flags: W
LayerCount: 2
Fore
SplineSet
234.634765625 424.453125 m 0,0,1
 242.778139067 425.010742188 242.778139067 425.010742188 250.05078125 425.010742188 c 0,2,3
 343.170714288 425.010742188 343.170714288 425.010742188 409.099609375 359.09765625 c 128,-1,4
 475.03125 293.166015625 475.03125 293.166015625 475.03125 199.967773438 c 128,-1,5
 475.03125 106.83203125 475.03125 106.83203125 409.099609375 40.900390625 c 128,-1,6
 343.212351353 -24.8525390625 343.212351353 -24.8525390625 250.111328125 -24.8525390625 c 0,7,8
 159.056903282 -24.8525390625 159.056903282 -24.8525390625 93.6015625 38.5625 c 0,9,10
 92.1644860693 39.6362951807 92.1644860693 39.6362951807 90.900390625 40.900390625 c 0,11,12
 83.57421875 48.2265625 83.57421875 48.2265625 83.57421875 58.58203125 c 128,-1,13
 83.57421875 68.9296875 83.57421875 68.9296875 90.900390625 76.255859375 c 128,-1,14
 98.2265625 83.58203125 98.2265625 83.58203125 108.58203125 83.58203125 c 128,-1,15
 118.9296875 83.58203125 118.9296875 83.58203125 126.255859375 76.255859375 c 0,16,17
 177.537109375 24.974609375 177.537109375 24.974609375 250.024414062 24.974609375 c 128,-1,18
 322.462890625 24.974609375 322.462890625 24.974609375 373.744140625 76.255859375 c 128,-1,19
 425.025390625 127.537109375 425.025390625 127.537109375 425.025390625 200.024414062 c 128,-1,20
 425.025390625 272.462890625 425.025390625 272.462890625 373.744140625 323.744140625 c 128,-1,21
 322.462890625 375.025390625 322.462890625 375.025390625 249.975585938 375.025390625 c 128,-1,22
 177.537109375 375.025390625 177.537109375 375.025390625 126.255859375 323.744140625 c 0,23,24
 118.9296875 316.41796875 118.9296875 316.41796875 108.57421875 316.41796875 c 128,-1,25
 98.2265625 316.41796875 98.2265625 316.41796875 90.900390625 323.744140625 c 128,-1,26
 83.57421875 331.0703125 83.57421875 331.0703125 83.57421875 341.42578125 c 128,-1,27
 83.57421875 351.7734375 83.57421875 351.7734375 90.900390625 359.099609375 c 1,28,-1
 90.90234375 359.09765625 l 0,29,30
 91.3375223833 359.534295214 91.3375223833 359.534295214 91.7890625 359.9453125 c 2,31,-1
 91.8046875 359.955078125 l 1,32,33
 151.23963867 418.736280718 151.23963867 418.736280718 234.634765625 424.453125 c 0,0,1
104.66796875 366.11328125 m 0,34,35
 106.634460449 366.424804688 106.634460449 366.424804688 108.58203125 366.424804688 c 0,36,37
 118.929082971 366.424804688 118.929082971 366.424804688 126.255859375 359.099609375 c 2,38,-1
 409.099609375 76.255859375 l 1,39,40
 416.42578125 68.9296875 416.42578125 68.9296875 416.42578125 58.57421875 c 128,-1,41
 416.42578125 48.2265625 416.42578125 48.2265625 409.099609375 40.900390625 c 128,-1,42
 401.7734375 33.57421875 401.7734375 33.57421875 391.41796875 33.57421875 c 128,-1,43
 381.0703125 33.57421875 381.0703125 33.57421875 373.744140625 40.900390625 c 2,44,-1
 90.900390625 323.744140625 l 1,45,46
 83.57421875 331.0703125 83.57421875 331.0703125 83.57421875 341.42578125 c 128,-1,47
 83.57421875 351.7734375 83.57421875 351.7734375 90.900390625 359.099609375 c 0,48,49
 96.6460379679 364.843718392 96.6460379679 364.843718392 104.66796875 366.11328125 c 0,34,35
EndSplineSet
EndChar

StartChar: U
Encoding: 85 85 58
Width: 0
GlyphClass: 4
Flags: W
LayerCount: 2
Fore
SplineSet
0 25 m 0,0,1
 10.35546875 25 10.35546875 25 17.677734375 17.677734375 c 2,2,-1
 159.099609375 -123.744140625 l 1,3,4
 166.42578125 -131.0703125 166.42578125 -131.0703125 166.42578125 -141.42578125 c 128,-1,5
 166.42578125 -151.7734375 166.42578125 -151.7734375 159.099609375 -159.099609375 c 128,-1,6
 151.7734375 -166.42578125 151.7734375 -166.42578125 141.41796875 -166.42578125 c 128,-1,7
 131.0703125 -166.42578125 131.0703125 -166.42578125 123.744140625 -159.099609375 c 2,8,-1
 -17.677734375 -17.677734375 l 1,9,-1
 -17.6328125 -17.6328125 l 1,10,11
 -24.9633378404 -10.3401955001 -24.9633378404 -10.3401955001 -25 0 c 0,12,13
 -25 10 -25 10 -17.5 17.5 c 128,-1,14
 -10 25 -10 25 0 25 c 0,0,1
EndSplineSet
EndChar

StartChar: A
Encoding: 65 65 59
Width: 0
GlyphClass: 4
Flags: W
LayerCount: 2
Fore
SplineSet
0 625 m 0,0,1
 92.0760026092 624.907054555 92.0760026092 624.907054555 157.682576554 560.183512075 c 128,-1,2
 223.289150498 495.459969596 223.289150498 495.459969596 224.744140625 403.5625 c 0,3,4
 225 401.78775289 225 401.78775289 225 400 c 0,5,6
 225 390 225 390 217.5 382.5 c 128,-1,7
 210 375 210 375 200 375 c 128,-1,8
 190 375 190 375 182.5 382.5 c 128,-1,9
 175 390 175 390 175 400 c 0,10,11
 175 472 175 472 123.5 523.5 c 128,-1,12
 72 575 72 575 0 575 c 0,13,14
 -58.0781066056 574.759378898 -58.0781066056 574.759378898 -104.486328125 539.841796875 c 1,15,-1
 17.677734375 417.677734375 l 1,16,17
 25 410.35546875 25 410.35546875 25 400 c 0,18,19
 25 390 25 390 17.5 382.5 c 128,-1,20
 10 375 10 375 0 375 c 0,21,22
 -10.3401955001 375.03666216 -10.3401955001 375.03666216 -17.6328125 382.3671875 c 1,23,-1
 -17.677734375 382.322265625 l 1,24,-1
 -139.84765625 504.4921875 l 1,25,26
 -165.864425122 470.006719746 -165.864425122 470.006719746 -172.845703125 427.376953125 c 0,27,28
 -175 413.771568943 -175 413.771568943 -175 400 c 0,29,30
 -175 390 -175 390 -182.5 382.5 c 128,-1,31
 -190 375 -190 375 -200 375 c 128,-1,32
 -210 375 -210 375 -217.5 382.5 c 128,-1,33
 -225 390 -225 390 -225 400 c 0,34,35
 -224.729467272 406.131110692 -224.729467272 406.131110692 -224.123046875 412.248046875 c 0,36,37
 -223.805224842 422.545480734 -223.805224842 422.545480734 -222.548828125 432.759765625 c 0,38,39
 -221.500868424 438.21739845 -221.500868424 438.21739845 -220.189453125 443.603515625 c 0,40,41
 -218.390007521 453.941161969 -218.390007521 453.941161969 -215.638671875 464.05859375 c 0,42,43
 -213.934342745 468.973403333 -213.934342745 468.973403333 -211.9921875 473.833984375 c 0,44,45
 -208.661433774 484.117282287 -208.661433774 484.117282287 -204.361328125 494.03125 c 0,46,47
 -201.996196052 498.606279472 -201.996196052 498.606279472 -199.421875 503.07421875 c 0,48,49
 -194.640430872 512.840603862 -194.640430872 512.840603862 -188.94140625 522.09765625 c 0,50,51
 -185.983115804 526.242184643 -185.983115804 526.242184643 -182.85546875 530.228515625 c 0,52,53
 -176.705052427 539.273673563 -176.705052427 539.273673563 -169.69140625 547.6953125 c 0,54,55
 -166.183972029 551.365612654 -166.183972029 551.365612654 -162.513671875 554.873046875 c 0,56,57
 -162.27734375 555.109375 -162.27734375 555.109375 -161.791015625 555.591796875 c 0,58,59
 -160.602492281 557.463429837 -160.602492281 557.463429837 -159.099609375 559.099609375 c 0,60,61
 -157.268105487 560.869722071 -157.268105487 560.869722071 -155.109375 562.23828125 c 0,62,63
 -151.160472857 566.37071776 -151.160472857 566.37071776 -147.01953125 570.28515625 c 0,64,65
 -142.775676566 573.623985604 -142.775676566 573.623985604 -138.365234375 576.763671875 c 0,66,67
 -130.156895885 583.504826487 -130.156895885 583.504826487 -121.35546875 589.439453125 c 0,68,69
 -116.765477768 592.087524845 -116.765477768 592.087524845 -112.06640625 594.51171875 c 0,70,71
 -102.895519723 600.081333186 -102.895519723 600.081333186 -93.220703125 604.759765625 c 0,72,73
 -88.6088703749 606.597419481 -88.6088703749 606.597419481 -83.89453125 608.23828125 c 0,74,75
 -73.7566286451 612.584155021 -73.7566286451 612.584155021 -63.216796875 615.923828125 c 0,76,77
 -56.8816085103 617.495772665 -56.8816085103 617.495772665 -50.46875 618.697265625 c 0,78,79
 -41.3054625887 621.093293397 -41.3054625887 621.093293397 -31.943359375 622.71484375 c 0,80,81
 -16.0500805648 624.997129814 -16.0500805648 624.997129814 0 625 c 0,0,1
EndSplineSet
EndChar

StartChar: i
Encoding: 105 105 60
Width: 0
GlyphClass: 4
Flags: W
LayerCount: 2
Fore
SplineSet
0 625 m 0,0,1
 92.0760026092 624.907054555 92.0760026092 624.907054555 157.682576554 560.183512075 c 128,-1,2
 223.289150498 495.459969596 223.289150498 495.459969596 224.744140625 403.5625 c 0,3,4
 225 401.78775289 225 401.78775289 225 400 c 0,5,6
 225 390 225 390 217.5 382.5 c 128,-1,7
 210 375 210 375 200 375 c 128,-1,8
 190 375 190 375 182.5 382.5 c 128,-1,9
 175 390 175 390 175 400 c 0,10,11
 175 472 175 472 123.5 523.5 c 128,-1,12
 72 575 72 575 0 575 c 0,13,14
 -64.9475953798 575 -64.9475953798 575 -113.899300889 532.738987909 c 128,-1,15
 -162.851006399 490.477975817 -162.851006399 490.477975817 -172.845703125 427.376953125 c 0,16,17
 -175 413.771568943 -175 413.771568943 -175 400 c 0,18,19
 -175 390 -175 390 -182.5 382.5 c 128,-1,20
 -190 375 -190 375 -200 375 c 128,-1,21
 -210 375 -210 375 -217.5 382.5 c 128,-1,22
 -225 390 -225 390 -225 400 c 0,23,24
 -224.729467272 406.131110692 -224.729467272 406.131110692 -224.123046875 412.248046875 c 0,25,26
 -223.805224842 422.545480734 -223.805224842 422.545480734 -222.548828125 432.759765625 c 0,27,28
 -221.500868424 438.21739845 -221.500868424 438.21739845 -220.189453125 443.603515625 c 0,29,30
 -218.390007521 453.941161969 -218.390007521 453.941161969 -215.638671875 464.05859375 c 0,31,32
 -213.934342745 468.973403333 -213.934342745 468.973403333 -211.9921875 473.833984375 c 0,33,34
 -208.661433774 484.117282287 -208.661433774 484.117282287 -204.361328125 494.03125 c 0,35,36
 -201.996196052 498.606279472 -201.996196052 498.606279472 -199.421875 503.07421875 c 0,37,38
 -194.640430872 512.840603862 -194.640430872 512.840603862 -188.94140625 522.09765625 c 0,39,40
 -185.983115804 526.242184643 -185.983115804 526.242184643 -182.85546875 530.228515625 c 0,41,42
 -176.705052427 539.273673563 -176.705052427 539.273673563 -169.69140625 547.6953125 c 0,43,44
 -166.183972029 551.365612654 -166.183972029 551.365612654 -162.513671875 554.873046875 c 0,45,46
 -155.136604757 562.960595294 -155.136604757 562.960595294 -147.01953125 570.28515625 c 0,47,48
 -142.775676566 573.623985604 -142.775676566 573.623985604 -138.365234375 576.763671875 c 0,49,50
 -130.156895885 583.504826487 -130.156895885 583.504826487 -121.35546875 589.439453125 c 0,51,52
 -116.765477768 592.087524845 -116.765477768 592.087524845 -112.06640625 594.51171875 c 0,53,54
 -102.895519723 600.081333186 -102.895519723 600.081333186 -93.220703125 604.759765625 c 0,55,56
 -88.6088703749 606.597419481 -88.6088703749 606.597419481 -83.89453125 608.23828125 c 0,57,58
 -73.7566286451 612.584155021 -73.7566286451 612.584155021 -63.216796875 615.923828125 c 0,59,60
 -56.8816085103 617.495772665 -56.8816085103 617.495772665 -50.46875 618.697265625 c 0,61,62
 -41.3054625887 621.093293397 -41.3054625887 621.093293397 -31.943359375 622.71484375 c 0,63,64
 -16.0500805648 624.997129814 -16.0500805648 624.997129814 0 625 c 0,0,1
EndSplineSet
EndChar

StartChar: backslash
Encoding: 92 92 61
Width: 500
Flags: W
LayerCount: 2
Fore
SplineSet
104.66796875 366.11328125 m 0,0,1
 106.634460449 366.424804688 106.634460449 366.424804688 108.58203125 366.424804688 c 0,2,3
 118.929082971 366.424804688 118.929082971 366.424804688 126.255859375 359.099609375 c 2,4,-1
 409.099609375 76.255859375 l 1,5,6
 416.42578125 68.9296875 416.42578125 68.9296875 416.42578125 58.57421875 c 128,-1,7
 416.42578125 48.2265625 416.42578125 48.2265625 409.099609375 40.900390625 c 128,-1,8
 401.7734375 33.57421875 401.7734375 33.57421875 391.41796875 33.57421875 c 128,-1,9
 381.0703125 33.57421875 381.0703125 33.57421875 373.744140625 40.900390625 c 2,10,-1
 90.900390625 323.744140625 l 1,11,12
 83.57421875 331.0703125 83.57421875 331.0703125 83.57421875 341.42578125 c 128,-1,13
 83.57421875 351.7734375 83.57421875 351.7734375 90.900390625 359.099609375 c 0,14,15
 96.6460379679 364.843718392 96.6460379679 364.843718392 104.66796875 366.11328125 c 0,0,1
EndSplineSet
EndChar

StartChar: O
Encoding: 79 79 62
Width: 0
GlyphClass: 4
Flags: W
LayerCount: 2
Fore
SplineSet
-200 25 m 128,-1,1
 -190 25 -190 25 -182.5 17.5 c 128,-1,2
 -175 10 -175 10 -175 0 c 0,3,4
 -175 -72 -175 -72 -123.5 -123.5 c 128,-1,5
 -72 -175 -72 -175 0 -175 c 0,6,7
 13.7715689433 -175 13.7715689433 -175 27.376953125 -172.845703125 c 0,8,9
 70.1293219374 -166.072269821 70.1293219374 -166.072269821 104.794921875 -140.150390625 c 1,10,-1
 -17.677734375 -17.677734375 l 1,11,-1
 -17.6328125 -17.6328125 l 1,12,13
 -24.9633378404 -10.3401955001 -24.9633378404 -10.3401955001 -25 0 c 0,14,15
 -25 10 -25 10 -17.5 17.5 c 128,-1,16
 -10 25 -10 25 0 25 c 0,17,18
 10.35546875 25 10.35546875 25 17.677734375 17.677734375 c 2,19,-1
 140.123046875 -104.767578125 l 1,20,21
 174.976817944 -58.1826138061 174.976817944 -58.1826138061 175 0 c 0,22,23
 175 10 175 10 182.5 17.5 c 128,-1,24
 190 25 190 25 200 25 c 0,25,26
 209.374241769 25 209.374241769 25 216.403149679 18.8485589774 c 128,-1,27
 223.43205759 12.6971179549 223.43205759 12.6971179549 224.74609375 3.55859375 c 0,28,29
 224.883262136 1.83338312777 224.883262136 1.83338312777 225 0 c 0,30,31
 224.729467272 -6.13111069225 224.729467272 -6.13111069225 224.123046875 -12.248046875 c 0,32,33
 223.805224842 -22.5454807336 223.805224842 -22.5454807336 222.548828125 -32.759765625 c 0,34,35
 221.500868424 -38.2173984503 221.500868424 -38.2173984503 220.189453125 -43.603515625 c 0,36,37
 218.390007521 -53.9411619687 218.390007521 -53.9411619687 215.638671875 -64.05859375 c 0,38,39
 213.934342745 -68.9734033331 213.934342745 -68.9734033331 211.9921875 -73.833984375 c 0,40,41
 208.661433774 -84.1172822869 208.661433774 -84.1172822869 204.361328125 -94.03125 c 0,42,43
 201.996196052 -98.6062794717 201.996196052 -98.6062794717 199.421875 -103.07421875 c 0,44,45
 194.640430872 -112.840603862 194.640430872 -112.840603862 188.94140625 -122.09765625 c 0,46,47
 185.983115804 -126.242184643 185.983115804 -126.242184643 182.85546875 -130.228515625 c 0,48,49
 176.705052427 -139.273673563 176.705052427 -139.273673563 169.69140625 -147.6953125 c 0,50,51
 166.183972029 -151.365612654 166.183972029 -151.365612654 162.513671875 -154.873046875 c 0,52,-1
 162.408203125 -154.9765625 l 0,53,54
 160.974678401 -157.211345961 160.974678401 -157.211345961 159.099609375 -159.099609375 c 0,55,56
 157.401027796 -160.670687418 157.401027796 -160.670687418 155.447265625 -161.90234375 c 0,57,58
 151.356915411 -166.192789083 151.356915411 -166.192789083 147.01953125 -170.28515625 c 0,59,60
 142.775676566 -173.623985604 142.775676566 -173.623985604 138.365234375 -176.763671875 c 0,61,62
 130.156895885 -183.504826487 130.156895885 -183.504826487 121.35546875 -189.439453125 c 0,63,64
 116.765477768 -192.087524845 116.765477768 -192.087524845 112.06640625 -194.51171875 c 0,65,66
 102.895519723 -200.081333186 102.895519723 -200.081333186 93.220703125 -204.759765625 c 0,67,68
 88.6088703749 -206.597419481 88.6088703749 -206.597419481 83.89453125 -208.23828125 c 0,69,70
 73.7566286451 -212.584155021 73.7566286451 -212.584155021 63.216796875 -215.923828125 c 0,71,72
 56.8816085103 -217.495772665 56.8816085103 -217.495772665 50.46875 -218.697265625 c 0,73,74
 41.3054625887 -221.093293397 41.3054625887 -221.093293397 31.943359375 -222.71484375 c 0,75,76
 16.0500805648 -224.997129814 16.0500805648 -224.997129814 0 -225 c 0,77,78
 -92.0760026092 -224.907054555 -92.0760026092 -224.907054555 -157.682576554 -160.183512075 c 128,-1,79
 -223.289150498 -95.4599695955 -223.289150498 -95.4599695955 -224.744140625 -3.5625 c 0,80,81
 -225 -1.78775289017 -225 -1.78775289017 -225 0 c 0,82,83
 -225 10 -225 10 -217.5 17.5 c 128,-1,0
 -210 25 -210 25 -200 25 c 128,-1,1
EndSplineSet
EndChar

StartChar: bracketleft
Encoding: 91 91 63
Width: 500
Flags: W
LayerCount: 2
Fore
SplineSet
250 525 m 0,0,1
 301.238592177 524.673127357 301.238592177 524.673127357 338.388671875 488.388671875 c 0,2,3
 345.710693359 481.066650391 345.710693359 481.066650391 345.710693359 470.7109375 c 128,-1,4
 345.710693359 460.355224609 345.710693359 460.355224609 338.388671875 453.033203125 c 128,-1,5
 331.066650391 445.711181641 331.066650391 445.711181641 320.7109375 445.711181641 c 128,-1,6
 310.355224609 445.711181641 310.355224609 445.711181641 303.033203125 453.033203125 c 1,7,-1
 302.83203125 452.83203125 l 1,8,9
 280.997208646 474.834255213 280.997208646 474.834255213 250 475 c 128,-1,10
 219 475 219 475 197 453 c 128,-1,11
 175 431 175 431 175 400 c 2,12,-1
 175 0 l 2,13,14
 175 -31 175 -31 197 -53 c 128,-1,15
 219 -75 219 -75 250 -75 c 128,-1,16
 280.997208646 -74.8342552133 280.997208646 -74.8342552133 302.83203125 -52.83203125 c 1,17,-1
 303.033203125 -53.033203125 l 1,18,19
 310.355224609 -45.7111816406 310.355224609 -45.7111816406 320.7109375 -45.7111816406 c 128,-1,20
 331.066650391 -45.7111816406 331.066650391 -45.7111816406 338.388671875 -53.033203125 c 128,-1,21
 345.710693359 -60.3552246094 345.710693359 -60.3552246094 345.710693359 -70.7109375 c 128,-1,22
 345.710693359 -81.0666503906 345.710693359 -81.0666503906 338.388671875 -88.388671875 c 0,23,24
 301.245595552 -124.673182595 301.245595552 -124.673182595 250 -125 c 0,25,26
 198.93259342 -125 198.93259342 -125 162.547007041 -89.25055354 c 128,-1,27
 126.161420663 -53.5011070799 126.161420663 -53.5011070799 125.12890625 -2.556640625 c 0,28,29
 125 -1.2939453125 125 -1.2939453125 125 0 c 2,30,-1
 125 400 l 2,31,32
 125 401.295410156 125 401.295410156 125.12890625 402.556640625 c 0,33,34
 126.161420663 453.50110708 126.161420663 453.50110708 162.547007041 489.25055354 c 128,-1,35
 198.93259342 525 198.93259342 525 250 525 c 0,0,1
EndSplineSet
EndChar

StartChar: h
Encoding: 104 104 64
Width: 500
Flags: W
LayerCount: 2
Fore
SplineSet
250 425 m 0,0,1
 343 425 343 425 409 359 c 128,-1,2
 475 293 475 293 475 200 c 0,3,4
 474.907054555 107.923997391 474.907054555 107.923997391 410.183512075 42.3174234462 c 128,-1,5
 345.459969596 -23.2891504984 345.459969596 -23.2891504984 253.5625 -24.744140625 c 0,6,7
 251.78775289 -25 251.78775289 -25 250 -25 c 0,8,9
 240 -25 240 -25 232.5 -17.5 c 128,-1,10
 225 -10 225 -10 225 0 c 128,-1,11
 225 10 225 10 232.5 17.5 c 128,-1,12
 240 25 240 25 250 25 c 0,13,14
 322 25 322 25 373.5 76.5 c 128,-1,15
 425 128 425 128 425 200 c 128,-1,16
 425 272 425 272 373.5 323.5 c 128,-1,17
 322 375 322 375 250 375 c 128,-1,18
 178 375 178 375 126.5 323.5 c 128,-1,19
 75 272 75 272 75 200 c 0,20,21
 75 190 75 190 67.5 182.5 c 128,-1,22
 60 175 60 175 50 175 c 128,-1,23
 40 175 40 175 32.5 182.5 c 128,-1,24
 25 190 25 190 25 200 c 0,25,-1
 25 199.999023438 l 0,26,27
 25 200.615722656 25 200.615722656 25.029296875 201.2265625 c 2,28,-1
 25.03125 201.244140625 l 1,29,30
 25.5440927051 293.962438538 25.5440927051 293.962438538 91.3809450415 359.475361576 c 128,-1,31
 157.217797378 424.988284613 157.217797378 424.988284613 250 425 c 0,0,1
EndSplineSet
EndChar

StartChar: at
Encoding: 64 64 65
Width: 500
Flags: W
LayerCount: 2
Fore
SplineSet
234.634765625 424.453125 m 0,0,1
 241.321876469 424.845703125 241.321876469 424.845703125 247.635742188 424.845703125 c 0,2,3
 254.959279186 424.845703125 254.959279186 424.845703125 262.255859375 424.376953125 c 0,4,-1
 262.512695312 424.376953125 l 0,5,6
 263.354003906 424.376953125 263.354003906 424.376953125 264.193359375 424.37109375 c 0,7,8
 279.674450873 423.363002436 279.674450873 423.363002436 294.861328125 420.2421875 c 2,9,-1
 294.861328125 420.2421875 l 0,10,-1
 295.583984375 420.13671875 l 1,11,12
 359.508091582 406.863904584 359.508091582 406.863904584 406.3984375 361.4375 c 0,13,14
 406.991315938 360.954030551 406.991315938 360.954030551 407.53515625 360.453125 c 0,15,16
 408.345196719 359.808873783 408.345196719 359.808873783 409.099609375 359.099609375 c 2,17,-1
 409.099609375 359.09765625 l 1,18,-1
 409.1171875 359.078125 l 1,19,20
 475.030273438 293.149229913 475.030273438 293.149229913 475.030273438 199.966796875 c 128,-1,21
 475.030273438 106.832635607 475.030273438 106.832635607 409.099609375 40.900390625 c 1,22,-1
 409.056640625 40.86328125 l 0,23,24
 408.651150414 40.4563632563 408.651150414 40.4563632563 408.2109375 40.0546875 c 2,25,-1
 408.1953125 40.044921875 l 0,26,27
 404.161201789 36.4142222351 404.161201789 36.4142222351 399.958984375 32.984375 c 0,28,29
 392.51302165 25.9905667207 392.51302165 25.9905667207 384.482421875 19.712890625 c 0,30,31
 377.219443645 14.6160637971 377.219443645 14.6160637971 369.57421875 10.10546875 c 0,32,33
 363.834354051 6.20177505412 363.834354051 6.20177505412 357.861328125 2.65625 c 0,34,35
 347.926770596 -2.52693311111 347.926770596 -2.52693311111 337.53515625 -6.6953125 c 0,36,37
 333.345830993 -8.69163763106 333.345830993 -8.69163763106 329.099609375 -10.50390625 c 0,38,39
 317.072792236 -14.8495684054 317.072792236 -14.8495684054 304.6328125 -17.8046875 c 0,40,41
 301.698067889 -18.6977414299 301.698067889 -18.6977414299 298.765625 -19.50390625 c 0,42,43
 284.973985187 -22.4606366116 284.973985187 -22.4606366116 270.921875 -23.671875 c 0,44,45
 269.213245948 -23.9261961763 269.213245948 -23.9261961763 267.48046875 -24.15625 c 0,46,47
 259.157786271 -24.76953125 259.157786271 -24.76953125 251.126953125 -24.76953125 c 0,48,49
 244.435679041 -24.76953125 244.435679041 -24.76953125 237.744140625 -24.376953125 c 0,50,-1
 237.487304688 -24.376953125 l 0,51,52
 236.645996094 -24.376953125 236.645996094 -24.376953125 235.806640625 -24.37109375 c 0,53,54
 220.325549127 -23.3630024363 220.325549127 -23.3630024363 205.138671875 -20.2421875 c 2,55,-1
 205.138671875 -20.2421875 l 0,56,-1
 204.416015625 -20.13671875 l 1,57,58
 140.491908418 -6.86390458402 140.491908418 -6.86390458402 93.6015625 38.5625 c 0,59,60
 93.0086840623 39.0459694492 93.0086840623 39.0459694492 92.46484375 39.546875 c 0,61,62
 91.6548032806 40.1911262172 91.6548032806 40.1911262172 90.900390625 40.900390625 c 2,63,-1
 90.900390625 40.90234375 l 1,64,-1
 90.89453125 40.908203125 l 1,65,66
 24.96875 106.838727123 24.96875 106.838727123 24.96875 200.032226562 c 128,-1,67
 24.96875 293.16796875 24.96875 293.16796875 90.900390625 359.099609375 c 1,68,-1
 90.943359375 359.13671875 l 0,69,70
 91.3488495862 359.543636744 91.3488495862 359.543636744 91.7890625 359.9453125 c 2,71,-1
 91.8046875 359.955078125 l 0,72,73
 95.838798211 363.585777765 95.838798211 363.585777765 100.041015625 367.015625 c 0,74,75
 107.48697835 374.009433279 107.48697835 374.009433279 115.517578125 380.287109375 c 0,76,77
 122.780556355 385.383936203 122.780556355 385.383936203 130.42578125 389.89453125 c 0,78,79
 136.165645949 393.798224946 136.165645949 393.798224946 142.138671875 397.34375 c 0,80,81
 152.073229404 402.526933111 152.073229404 402.526933111 162.46484375 406.6953125 c 0,82,83
 166.654169007 408.691637631 166.654169007 408.691637631 170.900390625 410.50390625 c 0,84,85
 182.927207764 414.849568405 182.927207764 414.849568405 195.3671875 417.8046875 c 0,86,87
 198.301932111 418.69774143 198.301932111 418.69774143 201.234375 419.50390625 c 0,88,89
 215.026014813 422.460636612 215.026014813 422.460636612 229.078125 423.671875 c 0,90,91
 230.786754052 423.926196176 230.786754052 423.926196176 232.51953125 424.15625 c 0,92,93
 233.615404946 424.314763024 233.615404946 424.314763024 234.634765625 424.453125 c 0,0,1
250 375 m 0,94,95
 193.138895157 375 193.138895157 375 147.13671875 341.578125 c 0,96,97
 146.197727143 340.787632066 146.197727143 340.787632066 145.32421875 340.03125 c 1,98,-1
 154.30984158 331.091417101 l 0,99,100
 163.29546441 322.151584201 163.29546441 322.151584201 172.252007378 313.195041233 c 128,-1,101
 181.208550347 304.238498264 181.208550347 304.238498264 181.150390625 304.205078125 c 1,102,103
 212.45289919 324.943668516 212.45289919 324.943668516 250 325 c 0,104,105
 302 325 302 325 338.5 288.5 c 128,-1,106
 375 252 375 252 375 200 c 0,107,108
 374.943668516 162.45289919 374.943668516 162.45289919 354.205078125 131.150390625 c 1,109,-1
 390.103515625 95.251953125 l 1,110,111
 424.975585938 141.888959886 424.975585938 141.888959886 424.975585938 200.07421875 c 0,112,113
 424.975585938 272.473174634 424.975585938 272.473174634 373.744140625 323.744140625 c 128,-1,114
 322.48828125 375 322.48828125 375 250 375 c 0,94,95
109.96875 304.67578125 m 1,115,116
 75.0966796875 258.038774489 75.0966796875 258.038774489 75.0966796875 199.853515625 c 0,117,118
 75.0966796875 127.514625897 75.0966796875 127.514625897 126.255859375 76.255859375 c 128,-1,119
 177.517578125 24.994140625 177.517578125 24.994140625 249.830078125 24.994140625 c 0,120,121
 263.742450421 24.994140625 263.742450421 24.994140625 277.376953125 27.154296875 c 0,122,123
 320.079983684 34.0085728998 320.079983684 34.0085728998 354.67578125 59.96875 c 1,124,-1
 345.69015842 68.9085828993 l 0,125,126
 336.70453559 77.8484157986 336.70453559 77.8484157986 327.747992622 86.8049587674 c 128,-1,127
 318.791449653 95.7615017361 318.791449653 95.7615017361 318.849609375 95.794921875 c 1,128,129
 287.54710081 75.0563314842 287.54710081 75.0563314842 250 75 c 0,130,131
 198 75 198 75 161.5 111.5 c 128,-1,132
 125 148 125 148 125 200 c 0,133,134
 125.056331484 237.54710081 125.056331484 237.54710081 145.794921875 268.849609375 c 1,135,-1
 109.96875 304.67578125 l 1,115,116
250 275 m 0,136,137
 233.093405964 274.850320441 233.093405964 274.850320441 217.890625 267.46484375 c 1,138,-1
 317.46484375 167.890625 l 1,139,140
 324.850320441 183.093405964 324.850320441 183.093405964 325 200 c 0,141,142
 325 231 325 231 303 253 c 128,-1,143
 281 275 281 275 250 275 c 0,136,137
182.53515625 232.109375 m 1,144,145
 175.149679559 216.906594036 175.149679559 216.906594036 175 200 c 0,146,147
 175 169 175 169 197 147 c 128,-1,148
 219 125 219 125 250 125 c 0,149,150
 266.906594036 125.149679559 266.906594036 125.149679559 282.109375 132.53515625 c 1,151,-1
 182.53515625 232.109375 l 1,144,145
EndSplineSet
EndChar

StartChar: T
Encoding: 84 84 66
Width: 500
Flags: W
LayerCount: 2
Fore
SplineSet
108.578125 366.421875 m 128,-1,1
 118.93359375 366.421875 118.93359375 366.421875 126.255859375 359.099609375 c 128,-1,2
 133.58203125 351.7734375 133.58203125 351.7734375 133.58203125 341.41796875 c 128,-1,3
 133.58203125 331.0703125 133.58203125 331.0703125 126.255859375 323.744140625 c 0,4,5
 74.974609375 272.462890625 74.974609375 272.462890625 74.974609375 199.975585938 c 128,-1,6
 74.974609375 127.537109375 74.974609375 127.537109375 126.255859375 76.255859375 c 128,-1,7
 177.537109375 24.974609375 177.537109375 24.974609375 250.024414062 24.974609375 c 128,-1,8
 322.462890625 24.974609375 322.462890625 24.974609375 373.744140625 76.255859375 c 128,-1,9
 425.025390625 127.537109375 425.025390625 127.537109375 425.025390625 200.024414062 c 128,-1,10
 425.025390625 272.462890625 425.025390625 272.462890625 373.744140625 323.744140625 c 0,11,12
 366.41796875 331.0703125 366.41796875 331.0703125 366.41796875 341.42578125 c 128,-1,13
 366.41796875 351.7734375 366.41796875 351.7734375 373.744140625 359.099609375 c 128,-1,14
 381.0703125 366.42578125 381.0703125 366.42578125 391.42578125 366.42578125 c 128,-1,15
 401.7734375 366.42578125 401.7734375 366.42578125 409.099609375 359.099609375 c 1,16,-1
 409.09765625 359.09765625 l 0,17,18
 409.534295214 358.662477617 409.534295214 358.662477617 409.9453125 358.2109375 c 2,19,-1
 409.955078125 358.1953125 l 1,20,21
 475.008789062 292.417957436 475.008789062 292.417957436 475.008789062 199.947265625 c 0,22,23
 475.008789062 106.828913403 475.008789062 106.828913403 409.09765625 40.900390625 c 128,-1,24
 343.166015625 -25.03125 343.166015625 -25.03125 249.967773438 -25.03125 c 128,-1,25
 156.83203125 -25.03125 156.83203125 -25.03125 90.900390625 40.900390625 c 128,-1,26
 25.1474609375 106.787648647 25.1474609375 106.787648647 25.1474609375 199.888671875 c 0,27,28
 25.1474609375 290.943096718 25.1474609375 290.943096718 88.5625 356.3984375 c 0,29,30
 89.6362951807 357.835513931 89.6362951807 357.835513931 90.900390625 359.099609375 c 0,31,0
 98.22265625 366.421875 98.22265625 366.421875 108.578125 366.421875 c 128,-1,1
EndSplineSet
EndChar

StartChar: greater
Encoding: 62 62 67
Width: 500
Flags: W
LayerCount: 2
Fore
SplineSet
250 325 m 0,0,1
 302 325 302 325 338.5 288.5 c 128,-1,2
 375 252 375 252 375 200 c 128,-1,3
 375 148 375 148 338.5 111.5 c 128,-1,4
 302 75 302 75 250 75 c 0,5,6
 198.75689324 75.3269014433 198.75689324 75.3269014433 161.611328125 111.611328125 c 0,7,8
 154.289306641 118.933349609 154.289306641 118.933349609 154.289306641 129.2890625 c 128,-1,9
 154.289306641 139.644775391 154.289306641 139.644775391 161.611328125 146.966796875 c 128,-1,10
 168.933349609 154.288818359 168.933349609 154.288818359 179.2890625 154.288818359 c 128,-1,11
 189.644775391 154.288818359 189.644775391 154.288818359 196.966796875 146.966796875 c 1,12,-1
 197.16796875 147.16796875 l 1,13,14
 219.002791354 125.165744787 219.002791354 125.165744787 250 125 c 128,-1,15
 281 125 281 125 303 147 c 128,-1,16
 325 169 325 169 325 200 c 128,-1,17
 325 231 325 231 303 253 c 128,-1,18
 281 275 281 275 250 275 c 128,-1,19
 219.002791354 274.834255213 219.002791354 274.834255213 197.16796875 252.83203125 c 1,20,-1
 196.966796875 253.033203125 l 1,21,22
 189.644775391 245.711181641 189.644775391 245.711181641 179.2890625 245.711181641 c 128,-1,23
 168.933349609 245.711181641 168.933349609 245.711181641 161.611328125 253.033203125 c 128,-1,24
 154.289306641 260.355224609 154.289306641 260.355224609 154.289306641 270.7109375 c 128,-1,25
 154.289306641 281.066650391 154.289306641 281.066650391 161.611328125 288.388671875 c 0,26,27
 198.754404448 324.673182595 198.754404448 324.673182595 250 325 c 0,0,1
EndSplineSet
EndChar

StartChar: asterisk
Encoding: 42 42 68
Width: 500
Flags: W
LayerCount: 2
Fore
SplineSet
250 425 m 128,-1,1
 260 425 260 425 267.5 417.5 c 128,-1,2
 275 410 275 410 275 400 c 2,3,-1
 275 260.35546875 l 1,4,-1
 299.687554253 285.041503906 l 0,5,6
 324.375108507 309.727539062 324.375108507 309.727539062 349.061143663 334.413574219 c 128,-1,7
 373.747178819 359.099609375 373.747178819 359.099609375 373.744140625 359.099609375 c 1,8,9
 381.0703125 366.42578125 381.0703125 366.42578125 391.42578125 366.42578125 c 128,-1,10
 401.7734375 366.42578125 401.7734375 366.42578125 409.099609375 359.099609375 c 128,-1,11
 416.42578125 351.7734375 416.42578125 351.7734375 416.42578125 341.41796875 c 128,-1,12
 416.42578125 331.0703125 416.42578125 331.0703125 409.099609375 323.744140625 c 2,13,-1
 285.35546875 200 l 1,14,-1
 409.099609375 76.255859375 l 1,15,16
 416.42578125 68.9296875 416.42578125 68.9296875 416.42578125 58.57421875 c 128,-1,17
 416.42578125 48.2265625 416.42578125 48.2265625 409.099609375 40.900390625 c 128,-1,18
 401.7734375 33.57421875 401.7734375 33.57421875 391.41796875 33.57421875 c 128,-1,19
 381.0703125 33.57421875 381.0703125 33.57421875 373.744140625 40.900390625 c 2,20,-1
 275 139.64453125 l 1,21,-1
 275 0 l 2,22,23
 275 -10 275 -10 267.5 -17.5 c 128,-1,24
 260 -25 260 -25 250 -25 c 128,-1,25
 240 -25 240 -25 232.5 -17.5 c 128,-1,26
 225 -10 225 -10 225 0 c 2,27,-1
 225 139.64453125 l 1,28,-1
 200.312445747 114.958496094 l 0,29,30
 175.624891493 90.2724609375 175.624891493 90.2724609375 150.938856337 65.5864257812 c 128,-1,31
 126.252821181 40.900390625 126.252821181 40.900390625 126.255859375 40.900390625 c 1,32,33
 118.9296875 33.57421875 118.9296875 33.57421875 108.57421875 33.57421875 c 128,-1,34
 98.2265625 33.57421875 98.2265625 33.57421875 90.900390625 40.900390625 c 128,-1,35
 83.57421875 48.2265625 83.57421875 48.2265625 83.57421875 58.58203125 c 128,-1,36
 83.57421875 68.9296875 83.57421875 68.9296875 90.900390625 76.255859375 c 2,37,-1
 214.64453125 200 l 1,38,-1
 90.900390625 323.744140625 l 1,39,40
 83.57421875 331.0703125 83.57421875 331.0703125 83.57421875 341.42578125 c 128,-1,41
 83.57421875 351.7734375 83.57421875 351.7734375 90.900390625 359.099609375 c 128,-1,42
 98.2265625 366.42578125 98.2265625 366.42578125 108.58203125 366.42578125 c 128,-1,43
 118.9296875 366.42578125 118.9296875 366.42578125 126.255859375 359.099609375 c 2,44,-1
 225 260.35546875 l 1,45,-1
 225 400 l 2,46,47
 225 410 225 410 232.5 417.5 c 128,-1,0
 240 425 240 425 250 425 c 128,-1,1
EndSplineSet
EndChar

StartChar: three
Encoding: 51 51 69
Width: 500
Flags: W
LayerCount: 2
Fore
SplineSet
250 425 m 0,0,1
 260 425 260 425 267.5 417.5 c 128,-1,2
 275 410 275 410 275 400 c 128,-1,3
 275 390 275 390 267.5 382.5 c 128,-1,4
 260 375 260 375 250 375 c 0,5,6
 178 375 178 375 126.5 323.5 c 128,-1,7
 75 272 75 272 75 200 c 128,-1,8
 75 128 75 128 126.5 76.5 c 128,-1,9
 178 25 178 25 250 25 c 128,-1,10
 322 25 322 25 373.5 76.5 c 128,-1,11
 425 128 425 128 425 200 c 0,12,13
 425 210 425 210 432.5 217.5 c 128,-1,14
 440 225 440 225 450 225 c 128,-1,15
 460 225 460 225 467.5 217.5 c 128,-1,16
 475 210 475 210 475 200 c 0,17,-1
 475 200.000976562 l 0,18,19
 475 199.384277344 475 199.384277344 474.970703125 198.7734375 c 2,20,-1
 474.96875 198.755859375 l 1,21,22
 474.455907295 106.037561462 474.455907295 106.037561462 408.619054958 40.5246384244 c 128,-1,23
 342.782202622 -24.9882846132 342.782202622 -24.9882846132 250 -25 c 0,24,25
 157 -25 157 -25 91 41 c 128,-1,26
 25 107 25 107 25 200 c 0,27,28
 25.092945445 292.076002609 25.092945445 292.076002609 89.8164879247 357.682576554 c 128,-1,29
 154.540030404 423.289150498 154.540030404 423.289150498 246.4375 424.744140625 c 0,30,31
 248.21224711 425 248.21224711 425 250 425 c 0,0,1
250 325 m 128,-1,33
 302 325 302 325 338.5 288.5 c 128,-1,34
 375 252 375 252 375 200 c 128,-1,35
 375 148 375 148 338.5 111.5 c 128,-1,36
 302 75 302 75 250 75 c 128,-1,37
 198 75 198 75 161.5 111.5 c 128,-1,38
 125 148 125 148 125 200 c 128,-1,39
 125 252 125 252 161.5 288.5 c 128,-1,32
 198 325 198 325 250 325 c 128,-1,33
250 275 m 128,-1,41
 219 275 219 275 197 253 c 128,-1,42
 175 231 175 231 175 200 c 128,-1,43
 175 169 175 169 197 147 c 128,-1,44
 219 125 219 125 250 125 c 128,-1,45
 281 125 281 125 303 147 c 128,-1,46
 325 169 325 169 325 200 c 128,-1,47
 325 231 325 231 303 253 c 128,-1,40
 281 275 281 275 250 275 c 128,-1,41
EndSplineSet
EndChar

StartChar: quotesingle
Encoding: 39 39 70
Width: 500
Flags: W
LayerCount: 2
Fore
SplineSet
250 425 m 128,-1,1
 260 425 260 425 267.5 417.5 c 128,-1,2
 275 410 275 410 275 400 c 128,-1,3
 275 390 275 390 267.5 382.5 c 128,-1,4
 260 375 260 375 250 375 c 128,-1,5
 240 375 240 375 232.5 382.5 c 128,-1,6
 225 390 225 390 225 400 c 128,-1,7
 225 410 225 410 232.5 417.5 c 128,-1,0
 240 425 240 425 250 425 c 128,-1,1
EndSplineSet
EndChar

StartChar: ampersand
Encoding: 38 38 71
Width: 500
Flags: W
LayerCount: 2
Fore
SplineSet
234.634765625 424.453125 m 0,0,1
 242.778139067 425.010742188 242.778139067 425.010742188 250.05078125 425.010742188 c 0,2,3
 343.170714288 425.010742188 343.170714288 425.010742188 409.099609375 359.09765625 c 128,-1,4
 475.03125 293.166015625 475.03125 293.166015625 475.03125 199.967773438 c 128,-1,5
 475.03125 106.83203125 475.03125 106.83203125 409.099609375 40.900390625 c 128,-1,6
 343.212351353 -24.8525390625 343.212351353 -24.8525390625 250.111328125 -24.8525390625 c 0,7,8
 159.056903282 -24.8525390625 159.056903282 -24.8525390625 93.6015625 38.5625 c 0,9,10
 92.1644860693 39.6362951807 92.1644860693 39.6362951807 90.900390625 40.900390625 c 0,11,12
 83.57421875 48.2265625 83.57421875 48.2265625 83.57421875 58.58203125 c 128,-1,13
 83.57421875 68.9296875 83.57421875 68.9296875 90.900390625 76.255859375 c 128,-1,14
 98.2265625 83.58203125 98.2265625 83.58203125 108.58203125 83.58203125 c 128,-1,15
 118.9296875 83.58203125 118.9296875 83.58203125 126.255859375 76.255859375 c 0,16,17
 177.537109375 24.974609375 177.537109375 24.974609375 250.024414062 24.974609375 c 128,-1,18
 322.462890625 24.974609375 322.462890625 24.974609375 373.744140625 76.255859375 c 128,-1,19
 425.025390625 127.537109375 425.025390625 127.537109375 425.025390625 200.024414062 c 128,-1,20
 425.025390625 272.462890625 425.025390625 272.462890625 373.744140625 323.744140625 c 128,-1,21
 322.462890625 375.025390625 322.462890625 375.025390625 249.975585938 375.025390625 c 128,-1,22
 177.537109375 375.025390625 177.537109375 375.025390625 126.255859375 323.744140625 c 0,23,24
 118.9296875 316.41796875 118.9296875 316.41796875 108.57421875 316.41796875 c 128,-1,25
 98.2265625 316.41796875 98.2265625 316.41796875 90.900390625 323.744140625 c 128,-1,26
 83.57421875 331.0703125 83.57421875 331.0703125 83.57421875 341.42578125 c 128,-1,27
 83.57421875 351.7734375 83.57421875 351.7734375 90.900390625 359.099609375 c 1,28,-1
 90.90234375 359.09765625 l 0,29,30
 91.3375223833 359.534295214 91.3375223833 359.534295214 91.7890625 359.9453125 c 2,31,-1
 91.8046875 359.955078125 l 1,32,33
 151.23963867 418.736280718 151.23963867 418.736280718 234.634765625 424.453125 c 0,0,1
250 325 m 0,34,35
 302 325 302 325 338.5 288.5 c 128,-1,36
 375 252 375 252 375 200 c 128,-1,37
 375 148 375 148 338.5 111.5 c 128,-1,38
 302 75 302 75 250 75 c 0,39,40
 198.75689324 75.3269014433 198.75689324 75.3269014433 161.611328125 111.611328125 c 0,41,42
 154.289306641 118.933349609 154.289306641 118.933349609 154.289306641 129.2890625 c 128,-1,43
 154.289306641 139.644775391 154.289306641 139.644775391 161.611328125 146.966796875 c 128,-1,44
 168.933349609 154.288818359 168.933349609 154.288818359 179.2890625 154.288818359 c 128,-1,45
 189.644775391 154.288818359 189.644775391 154.288818359 196.966796875 146.966796875 c 1,46,-1
 197.16796875 147.16796875 l 1,47,48
 219.002791354 125.165744787 219.002791354 125.165744787 250 125 c 128,-1,49
 281 125 281 125 303 147 c 128,-1,50
 325 169 325 169 325 200 c 128,-1,51
 325 231 325 231 303 253 c 128,-1,52
 281 275 281 275 250 275 c 128,-1,53
 219.002791354 274.834255213 219.002791354 274.834255213 197.16796875 252.83203125 c 1,54,-1
 196.966796875 253.033203125 l 1,55,56
 189.644775391 245.711181641 189.644775391 245.711181641 179.2890625 245.711181641 c 128,-1,57
 168.933349609 245.711181641 168.933349609 245.711181641 161.611328125 253.033203125 c 128,-1,58
 154.289306641 260.355224609 154.289306641 260.355224609 154.289306641 270.7109375 c 128,-1,59
 154.289306641 281.066650391 154.289306641 281.066650391 161.611328125 288.388671875 c 0,60,61
 198.754404448 324.673182595 198.754404448 324.673182595 250 325 c 0,34,35
250 225 m 128,-1,63
 260 225 260 225 267.5 217.5 c 128,-1,64
 275 210 275 210 275 200 c 128,-1,65
 275 190 275 190 267.5 182.5 c 128,-1,66
 260 175 260 175 250 175 c 128,-1,67
 240 175 240 175 232.5 182.5 c 128,-1,68
 225 190 225 190 225 200 c 128,-1,69
 225 210 225 210 232.5 217.5 c 128,-1,62
 240 225 240 225 250 225 c 128,-1,63
EndSplineSet
EndChar

StartChar: two
Encoding: 50 50 72
Width: 500
Flags: W
LayerCount: 2
Fore
SplineSet
108.578125 366.421875 m 128,-1,1
 118.93359375 366.421875 118.93359375 366.421875 126.255859375 359.099609375 c 128,-1,2
 133.58203125 351.7734375 133.58203125 351.7734375 133.58203125 341.41796875 c 128,-1,3
 133.58203125 331.0703125 133.58203125 331.0703125 126.255859375 323.744140625 c 0,4,5
 74.974609375 272.462890625 74.974609375 272.462890625 74.974609375 199.975585938 c 128,-1,6
 74.974609375 127.537109375 74.974609375 127.537109375 126.255859375 76.255859375 c 128,-1,7
 177.537109375 24.974609375 177.537109375 24.974609375 250.024414062 24.974609375 c 128,-1,8
 322.462890625 24.974609375 322.462890625 24.974609375 373.744140625 76.255859375 c 128,-1,9
 425.025390625 127.537109375 425.025390625 127.537109375 425.025390625 200.024414062 c 128,-1,10
 425.025390625 272.462890625 425.025390625 272.462890625 373.744140625 323.744140625 c 0,11,12
 366.41796875 331.0703125 366.41796875 331.0703125 366.41796875 341.42578125 c 128,-1,13
 366.41796875 351.7734375 366.41796875 351.7734375 373.744140625 359.099609375 c 128,-1,14
 381.0703125 366.42578125 381.0703125 366.42578125 391.42578125 366.42578125 c 128,-1,15
 401.7734375 366.42578125 401.7734375 366.42578125 409.099609375 359.099609375 c 1,16,-1
 409.09765625 359.09765625 l 0,17,18
 409.534295214 358.662477617 409.534295214 358.662477617 409.9453125 358.2109375 c 2,19,-1
 409.955078125 358.1953125 l 1,20,21
 475.008789062 292.417957436 475.008789062 292.417957436 475.008789062 199.947265625 c 0,22,23
 475.008789062 106.828913403 475.008789062 106.828913403 409.09765625 40.900390625 c 128,-1,24
 343.166015625 -25.03125 343.166015625 -25.03125 249.967773438 -25.03125 c 128,-1,25
 156.83203125 -25.03125 156.83203125 -25.03125 90.900390625 40.900390625 c 128,-1,26
 25.1474609375 106.787648647 25.1474609375 106.787648647 25.1474609375 199.888671875 c 0,27,28
 25.1474609375 290.943096718 25.1474609375 290.943096718 88.5625 356.3984375 c 0,29,30
 89.6362951807 357.835513931 89.6362951807 357.835513931 90.900390625 359.099609375 c 0,31,0
 98.22265625 366.421875 98.22265625 366.421875 108.578125 366.421875 c 128,-1,1
250 325 m 128,-1,33
 302 325 302 325 338.5 288.5 c 128,-1,34
 375 252 375 252 375 200 c 128,-1,35
 375 148 375 148 338.5 111.5 c 128,-1,36
 302 75 302 75 250 75 c 128,-1,37
 198 75 198 75 161.5 111.5 c 128,-1,38
 125 148 125 148 125 200 c 128,-1,39
 125 252 125 252 161.5 288.5 c 128,-1,32
 198 325 198 325 250 325 c 128,-1,33
250 275 m 128,-1,41
 219 275 219 275 197 253 c 128,-1,42
 175 231 175 231 175 200 c 128,-1,43
 175 169 175 169 197 147 c 128,-1,44
 219 125 219 125 250 125 c 128,-1,45
 281 125 281 125 303 147 c 128,-1,46
 325 169 325 169 325 200 c 128,-1,47
 325 231 325 231 303 253 c 128,-1,40
 281 275 281 275 250 275 c 128,-1,41
EndSplineSet
EndChar

StartChar: equal
Encoding: 61 61 73
Width: 500
Flags: W
LayerCount: 2
Fore
SplineSet
250 325 m 0,0,1
 301.238592177 324.673127357 301.238592177 324.673127357 338.388671875 288.388671875 c 0,2,3
 345.710693359 281.066650391 345.710693359 281.066650391 345.710693359 270.7109375 c 128,-1,4
 345.710693359 260.355224609 345.710693359 260.355224609 338.388671875 253.033203125 c 128,-1,5
 331.066650391 245.711181641 331.066650391 245.711181641 320.7109375 245.711181641 c 128,-1,6
 310.355224609 245.711181641 310.355224609 245.711181641 303.033203125 253.033203125 c 0,7,8
 281.06640625 275 281.06640625 275 250 275 c 128,-1,9
 218.932013291 275 218.932013291 275 196.966796875 253.033203125 c 0,10,11
 189.644775391 245.711181641 189.644775391 245.711181641 179.2890625 245.711181641 c 128,-1,12
 168.933349609 245.711181641 168.933349609 245.711181641 161.611328125 253.033203125 c 128,-1,13
 154.289306641 260.355224609 154.289306641 260.355224609 154.289306641 270.7109375 c 128,-1,14
 154.289306641 281.066650391 154.289306641 281.066650391 161.611328125 288.388671875 c 0,15,16
 198.754404448 324.673182595 198.754404448 324.673182595 250 325 c 0,0,1
179.2890625 154.2890625 m 0,17,-1
 179.325195312 154.29296875 l 0,18,19
 189.659600623 154.29296875 189.659600623 154.29296875 196.966796875 146.966796875 c 0,20,21
 218.93359375 125 218.93359375 125 250 125 c 128,-1,22
 281.067986709 125 281.067986709 125 303.033203125 146.966796875 c 0,23,24
 310.355224609 154.288818359 310.355224609 154.288818359 320.7109375 154.288818359 c 128,-1,25
 331.066650391 154.288818359 331.066650391 154.288818359 338.388671875 146.966796875 c 128,-1,26
 345.710693359 139.644775391 345.710693359 139.644775391 345.710693359 129.2890625 c 128,-1,27
 345.710693359 118.933349609 345.710693359 118.933349609 338.388671875 111.611328125 c 0,28,29
 301.245595552 75.3268174047 301.245595552 75.3268174047 250 75 c 0,30,31
 198.75689324 75.3269014433 198.75689324 75.3269014433 161.611328125 111.611328125 c 0,32,33
 154.289306641 118.933349609 154.289306641 118.933349609 154.289306641 129.2890625 c 128,-1,34
 154.289306641 139.644775391 154.289306641 139.644775391 161.611328125 146.966796875 c 128,-1,35
 168.914628244 154.2890625 168.914628244 154.2890625 179.254882812 154.2890625 c 0,36,-1
 179.2890625 154.2890625 l 0,17,-1
EndSplineSet
EndChar

StartChar: plus
Encoding: 43 43 74
Width: 500
Flags: W
LayerCount: 2
Fore
SplineSet
250 425 m 128,-1,1
 260 425 260 425 267.5 417.5 c 128,-1,2
 275 410 275 410 275 400 c 2,3,-1
 275 225 l 1,4,-1
 450 225 l 2,5,6
 460 225 460 225 467.5 217.5 c 128,-1,7
 475 210 475 210 475 200 c 128,-1,8
 475 190 475 190 467.5 182.5 c 128,-1,9
 460 175 460 175 450 175 c 2,10,-1
 275 175 l 1,11,-1
 275 0 l 2,12,13
 275 -10 275 -10 267.5 -17.5 c 128,-1,14
 260 -25 260 -25 250 -25 c 128,-1,15
 240 -25 240 -25 232.5 -17.5 c 128,-1,16
 225 -10 225 -10 225 0 c 2,17,-1
 225 175 l 1,18,-1
 50 175 l 2,19,20
 40 175 40 175 32.5 182.5 c 128,-1,21
 25 190 25 190 25 200 c 128,-1,22
 25 210 25 210 32.5 217.5 c 128,-1,23
 40 225 40 225 50 225 c 2,24,-1
 225 225 l 1,25,-1
 225 400 l 2,26,27
 225 410 225 410 232.5 417.5 c 128,-1,0
 240 425 240 425 250 425 c 128,-1,1
EndSplineSet
EndChar

StartChar: question
Encoding: 63 63 75
Width: 500
Flags: W
LayerCount: 2
Fore
SplineSet
250 425 m 128,-1,1
 260 425 260 425 267.5 417.5 c 128,-1,2
 275 410 275 410 275 400 c 128,-1,3
 275 390 275 390 267.5 382.5 c 128,-1,4
 260 375 260 375 250 375 c 128,-1,5
 240 375 240 375 232.5 382.5 c 128,-1,6
 225 390 225 390 225 400 c 128,-1,7
 225 410 225 410 232.5 417.5 c 128,-1,0
 240 425 240 425 250 425 c 128,-1,1
250 225 m 128,-1,9
 260 225 260 225 267.5 217.5 c 128,-1,10
 275 210 275 210 275 200 c 128,-1,11
 275 190 275 190 267.5 182.5 c 128,-1,12
 260 175 260 175 250 175 c 128,-1,13
 240 175 240 175 232.5 182.5 c 128,-1,14
 225 190 225 190 225 200 c 128,-1,15
 225 210 225 210 232.5 217.5 c 128,-1,8
 240 225 240 225 250 225 c 128,-1,9
250 25 m 128,-1,17
 260 25 260 25 267.5 17.5 c 128,-1,18
 275 10 275 10 275 0 c 128,-1,19
 275 -10 275 -10 267.5 -17.5 c 128,-1,20
 260 -25 260 -25 250 -25 c 128,-1,21
 240 -25 240 -25 232.5 -17.5 c 128,-1,22
 225 -10 225 -10 225 0 c 128,-1,23
 225 10 225 10 232.5 17.5 c 128,-1,16
 240 25 240 25 250 25 c 128,-1,17
EndSplineSet
EndChar

